<svg width="19" height="19" viewBox="0 0 19 19" fill="none" xmlns="http://www.w3.org/2000/svg">
<path d="M12.9061 8.30765C13.2699 8.30765 13.5785 8.18029 13.8317 7.92558C14.0849 7.67088 14.2115 7.36158 14.2115 6.9977C14.2115 6.63383 14.0841 6.3253 13.8294 6.0721C13.5747 5.8189 13.2654 5.6923 12.9016 5.6923C12.5377 5.6923 12.2292 5.81966 11.976 6.07438C11.7227 6.32908 11.5961 6.63837 11.5961 7.00225C11.5961 7.36612 11.7235 7.67465 11.9782 7.92785C12.2329 8.18105 12.5422 8.30765 12.9061 8.30765ZM6.0984 8.30765C6.46227 8.30765 6.7708 8.18029 7.024 7.92558C7.27722 7.67088 7.40383 7.36158 7.40383 6.9977C7.40383 6.63383 7.27647 6.3253 7.02175 6.0721C6.76703 5.8189 6.45774 5.6923 6.09388 5.6923C5.73001 5.6923 5.42147 5.81966 5.16825 6.07438C4.91505 6.32908 4.78845 6.63837 4.78845 7.00225C4.78845 7.36612 4.91581 7.67465 5.17053 7.92785C5.42524 8.18105 5.73453 8.30765 6.0984 8.30765ZM9.49998 14.6923C10.5436 14.6923 11.4974 14.4003 12.3615 13.8163C13.2256 13.2323 13.8628 12.4602 14.273 11.5H12.95C12.5833 12.1166 12.0958 12.6041 11.4875 12.9625C10.8791 13.3208 10.2166 13.5 9.49998 13.5C8.78331 13.5 8.12081 13.3208 7.51248 12.9625C6.90414 12.6041 6.41664 12.1166 6.04998 11.5H4.72693C5.13718 12.4602 5.77435 13.2323 6.63845 13.8163C7.50255 14.4003 8.45639 14.6923 9.49998 14.6923ZM9.50165 19C8.18772 19 6.95268 18.7506 5.79655 18.252C4.6404 17.7533 3.63472 17.0765 2.7795 16.2217C1.92427 15.3669 1.24721 14.3616 0.748325 13.206C0.249442 12.0504 0 10.8156 0 9.50165C0 8.18772 0.249333 6.95268 0.748 5.79655C1.24667 4.6404 1.92342 3.63472 2.77825 2.7795C3.6331 1.92427 4.63834 1.24721 5.79398 0.748326C6.94959 0.249443 8.18437 0 9.4983 0C10.8122 0 12.0473 0.249334 13.2034 0.748001C14.3596 1.24667 15.3652 1.92342 16.2205 2.77825C17.0757 3.6331 17.7527 4.63834 18.2516 5.79398C18.7505 6.94959 19 8.18437 19 9.4983C19 10.8122 18.7506 12.0473 18.252 13.2034C17.7533 14.3596 17.0765 15.3652 16.2217 16.2205C15.3669 17.0757 14.3616 17.7527 13.206 18.2516C12.0504 18.7505 10.8156 19 9.50165 19ZM9.49998 17.5C11.7333 17.5 13.625 16.725 15.175 15.175C16.725 13.625 17.5 11.7333 17.5 9.49998C17.5 7.26664 16.725 5.37498 15.175 3.82498C13.625 2.27498 11.7333 1.49998 9.49998 1.49998C7.26664 1.49998 5.37498 2.27498 3.82498 3.82498C2.27498 5.37498 1.49998 7.26664 1.49998 9.49998C1.49998 11.7333 2.27498 13.625 3.82498 15.175C5.37498 16.725 7.26664 17.5 9.49998 17.5Z" fill="#FFFCF5"/>
</svg>
