<svg width="108" height="19" viewBox="0 0 108 19" fill="none" xmlns="http://www.w3.org/2000/svg">
<path d="M6.85 14.825L10 12.925L13.15 14.85L12.325 11.25L15.1 8.85L11.45 8.525L10 5.125L8.55 8.5L4.9 8.825L7.675 11.25L6.85 14.825ZM3.825 19L5.45 11.975L0 7.25L7.2 6.625L10 0L12.8 6.625L20 7.25L14.55 11.975L16.175 19L10 15.275L3.825 19Z" fill="#FFFCF5"/>
<path d="M50.85 14.825L54 12.925L57.15 14.85L56.325 11.25L59.1 8.85L55.45 8.525L54 5.125L52.55 8.5L48.9 8.825L51.675 11.25L50.85 14.825ZM47.825 19L49.45 11.975L44 7.25L51.2 6.625L54 0L56.8 6.625L64 7.25L58.55 11.975L60.175 19L54 15.275L47.825 19Z" fill="#FFFCF5"/>
<path d="M28.85 14.825L32 12.925L35.15 14.85L34.325 11.25L37.1 8.85L33.45 8.525L32 5.125L30.55 8.5L26.9 8.825L29.675 11.25L28.85 14.825ZM25.825 19L27.45 11.975L22 7.25L29.2 6.625L32 0L34.8 6.625L42 7.25L36.55 11.975L38.175 19L32 15.275L25.825 19Z" fill="#FFFCF5"/>
<path d="M72.85 14.825L76 12.925L79.15 14.85L78.325 11.25L81.1 8.85L77.45 8.525L76 5.125L74.55 8.5L70.9 8.825L73.675 11.25L72.85 14.825ZM69.825 19L71.45 11.975L66 7.25L73.2 6.625L76 0L78.8 6.625L86 7.25L80.55 11.975L82.175 19L76 15.275L69.825 19Z" fill="#FFFCF5"/>
<path d="M94.85 14.825L98 12.925L101.15 14.85L100.325 11.25L103.1 8.85L99.45 8.525L98 5.125L96.55 8.5L92.9 8.825L95.675 11.25L94.85 14.825ZM91.825 19L93.45 11.975L88 7.25L95.2 6.625L98 0L100.8 6.625L108 7.25L102.55 11.975L104.175 19L98 15.275L91.825 19Z" fill="#FFFCF5"/>
</svg>
