<svg width="397" height="427" viewBox="0 0 397 427" fill="none" xmlns="http://www.w3.org/2000/svg">
<g clip-path="url(#clip0_117_945)">
<path d="M31 107.49L116.11 107.49L116.11 18.77L31 18.77L31 107.49Z" fill="#04181F"/>
<path d="M36.77 107.49L121.88 107.49L121.88 18.77L36.77 18.77L36.77 107.49Z" fill="#092933"/>
<path d="M36.74 18.74H121.91V107.51H36.74V18.74ZM121.86 18.79H36.8V107.46H121.86V18.79Z" fill="#04181F"/>
<path d="M48.2101 95.5601L110.44 95.5601L110.44 30.6901L48.2101 30.6901L48.2101 95.5601Z" fill="#113946"/>
<path d="M110.44 96C110.88 96.6563 111.397 97.2573 111.98 97.79C112.98 98.84 114.37 100.25 115.98 101.79C117.59 103.33 118.98 104.7 120.05 105.68C120.59 106.248 121.194 106.751 121.85 107.18C121.41 106.53 120.897 105.932 120.32 105.4C119.32 104.35 117.92 102.93 116.32 101.4C114.72 99.87 113.32 98.48 112.25 97.5C111.709 96.9293 111.101 96.4257 110.44 96Z" fill="#04181F"/>
<path d="M48.21 95.8301C47.5559 96.2686 46.9581 96.7858 46.43 97.3701C45.38 98.3701 43.96 99.7601 42.43 101.32C40.9 102.88 39.51 104.32 38.53 105.39C37.9595 105.925 37.4589 106.53 37.04 107.19C37.6858 106.748 38.2796 106.235 38.81 105.66C39.81 104.66 41.29 103.27 42.81 101.66C44.33 100.05 45.74 98.6601 46.71 97.5901C47.2812 97.068 47.7851 96.4768 48.21 95.8301Z" fill="#04181F"/>
<path d="M48.38 30.8601C47.9373 30.2121 47.4241 29.6151 46.85 29.0801C45.85 28.0801 44.46 26.6101 42.85 25.0801C41.24 23.5501 39.85 22.1601 38.79 21.1901C38.2481 20.6242 37.6443 20.121 36.99 19.6901C37.4228 20.3427 37.9332 20.9404 38.51 21.4701C39.51 22.5201 40.91 23.9401 42.51 25.4701C44.11 27.0001 45.51 28.3901 46.58 29.3601C47.1144 29.9339 47.7192 30.4379 48.38 30.8601Z" fill="#04181F"/>
<path d="M110.61 31.0001C111.265 30.5624 111.866 30.0488 112.4 29.4701C113.4 28.4701 114.86 27.0801 116.4 25.4701C117.94 23.8601 119.31 22.4701 120.29 21.4101C120.855 20.8674 121.358 20.2637 121.79 19.6101C121.126 20.0596 120.525 20.5942 120 21.2001C118.95 22.2001 117.53 23.5901 116 25.2001C114.47 26.8101 113.08 28.2001 112.1 29.2701C111.538 29.7869 111.038 30.3675 110.61 31.0001Z" fill="#04181F"/>
<path d="M48.38 95.56C48.3886 95.4535 48.3886 95.3465 48.38 95.24C48.38 95.02 48.38 94.73 48.38 94.34C48.38 93.53 48.38 92.34 48.38 90.84C48.38 87.76 48.38 83.29 48.44 77.62C48.44 66.26 48.51 50.07 48.56 30.69L48.32 30.93H110.37L110.1 30.65C110.1 54.46 110.1 76.73 110.1 95.52L110.34 95.28L65.41 95.4L52.78 95.47H49.45H48.58H49.41H52.71L65.28 95.54L110.36 95.66H110.6V95.42C110.6 76.63 110.6 54.36 110.6 30.55V30.28H110.31H48.26H48.02V30.52C48.02 49.96 48.11 66.2 48.14 77.6C48.14 83.25 48.14 87.71 48.21 90.77C48.21 92.27 48.21 93.42 48.21 94.22C48.21 94.6 48.21 94.89 48.21 95.1C48.21 95.31 48.38 95.56 48.38 95.56Z" fill="#04181F"/>
<path d="M68.95 73.51H89.71V52.75H68.95V73.51Z" fill="#092933"/>
<path d="M7.11005 416.57H109.55L109.55 222.92H7.11005L7.11005 416.57Z" fill="#04181F"/>
<path d="M37.5001 416.57H139.94L139.94 222.92H37.5001L37.5001 416.57Z" fill="#113946"/>
<path d="M45.05 232.08H133V262.78H45.05V232.08ZM131.9 233.16H46.13V261.7H131.9V233.16Z" fill="#04181F"/>
<path d="M100.15 238.74H76.68C75.3672 238.74 74.1081 238.218 73.1798 237.29C72.2515 236.362 71.73 235.103 71.73 233.79V232.62H105.1V233.79C105.1 235.103 104.578 236.362 103.65 237.29C102.722 238.218 101.463 238.74 100.15 238.74Z" fill="#092933"/>
<path d="M45.05 271.07H133V301.77H45.05V271.07ZM131.9 272.16H46.13V300.69H131.9V272.16Z" fill="#04181F"/>
<path d="M100.15 277.73H76.68C75.3672 277.73 74.1081 277.209 73.1798 276.28C72.2515 275.352 71.73 274.093 71.73 272.78V271.61H105.1V272.78C105.1 274.093 104.578 275.352 103.65 276.28C102.722 277.209 101.463 277.73 100.15 277.73Z" fill="#092933"/>
<path d="M45.05 310.07H133V340.76H45.05V310.07ZM131.9 311.15H46.13V339.68H131.9V311.15Z" fill="#04181F"/>
<path d="M100.15 316.72H76.68C75.3672 316.72 74.1081 316.199 73.1798 315.27C72.2515 314.342 71.73 313.083 71.73 311.77V310.6H105.1V311.77C105.1 313.083 104.578 314.342 103.65 315.27C102.722 316.199 101.463 316.72 100.15 316.72Z" fill="#092933"/>
<path d="M45.05 349.06H133V379.76H45.05V349.06ZM131.9 350.14H46.13V378.68H131.9V350.14Z" fill="#04181F"/>
<path d="M100.15 355.72H76.68C75.3672 355.72 74.1081 355.199 73.1798 354.27C72.2515 353.342 71.73 352.083 71.73 350.77V349.6H105.1V350.77C105.1 352.083 104.578 353.342 103.65 354.27C102.722 355.199 101.463 355.72 100.15 355.72Z" fill="#092933"/>
<path d="M33.22 225.32H144.49V215.67H33.22V225.32Z" fill="#092933"/>
<path d="M-0.240032 225.32H33.22V215.67H-0.240032V225.32Z" fill="#04181F"/>
<path d="M134.57 426.46H139.95V416.57H134.57V426.46Z" fill="#04181F"/>
<path d="M101.31 426.46H106.69V416.57H101.31V426.46Z" fill="#04181F"/>
<path d="M40.5501 426.46H45.9301V416.57H40.5501V426.46Z" fill="#04181F"/>
<path d="M10.17 426.46H15.55L15.55 416.57H10.17V426.46Z" fill="#04181F"/>
<path d="M256.763 -0.296331L250.572 31.588L297.868 40.7729L304.06 8.88859L256.763 -0.296331Z" fill="#113946"/>
<path d="M304.15 9.31008C303.988 9.43956 303.814 9.5534 303.63 9.65008L302.09 10.5501L296.37 13.7801L277.37 24.3401L277.22 24.4301L277.1 24.2901L276.82 23.9601L262.61 7.16008L258.37 2.00008C257.89 1.42008 257.51 0.950076 257.23 0.590076C257.087 0.432668 256.96 0.261881 256.85 0.0800781C257.009 0.221262 257.156 0.375099 257.29 0.540077L258.5 1.89008L262.87 6.89008C266.56 11.2001 271.61 17.0901 277.18 23.6101C277.279 23.7151 277.373 23.8252 277.46 23.9401L277.19 23.8901L296.19 13.4401L302 10.4001L303.58 9.57008C303.763 9.46954 303.954 9.38264 304.15 9.31008Z" fill="#04181F"/>
<path d="M250.66 32C250.58 31.9 254.99 28.22 260.5 23.78C266.01 19.34 270.5 15.78 270.61 15.9C270.72 16.02 266.28 19.67 260.77 24.12C255.26 28.57 250.73 32.1 250.66 32Z" fill="#04181F"/>
<path d="M286.41 18.5701C286.52 18.5101 289.19 23.5701 292.41 29.7801C295.63 35.9901 298.1 41.1401 297.99 41.1901C297.88 41.2401 295.21 36.1901 291.99 29.9801C288.77 23.7701 286.3 18.6201 286.41 18.5701Z" fill="#04181F"/>
<path d="M405.744 42.0792L371.966 59.0458L383.402 81.8149L417.181 64.8483L405.744 42.0792Z" fill="#113946"/>
<path d="M406 42.3101C405.962 42.4683 405.908 42.6224 405.84 42.7701C405.71 43.1001 405.53 43.5301 405.31 44.0701L403.31 48.8101L396.59 64.4601L396.53 64.5901H396.39L396.06 64.5201L379.19 60.9001L374.08 59.7601L372.7 59.4401C372.536 59.4077 372.376 59.3608 372.22 59.3001C372.385 59.3076 372.549 59.331 372.71 59.3701L374.11 59.6301L379.24 60.6301L396.13 64.1501L396.47 64.2201L396.27 64.3201C398.93 58.2301 401.33 52.7301 403.09 48.7201L405.17 44.0001L405.76 42.7301C405.828 42.5833 405.908 42.4428 406 42.3101Z" fill="#04181F"/>
<path d="M383.64 82C383.55 82 384.52 77.58 385.81 72.18C387.1 66.78 388.23 62.42 388.32 62.44C388.41 62.46 387.44 66.86 386.15 72.26C384.86 77.66 383.73 82.06 383.64 82Z" fill="#04181F"/>
<path d="M244.364 139.955L240.466 159.01L268.741 164.794L272.638 145.738L244.364 139.955Z" fill="#113946"/>
<path d="M272.66 146L272.35 146.2L271.42 146.72L268 148.61L256.58 154.82L256.48 154.87L256.41 154.79L256.25 154.59C252.97 150.59 250 147.06 247.84 144.44L245.31 141.35L244.63 140.5C244.543 140.407 244.469 140.303 244.41 140.19C244.505 140.275 244.593 140.369 244.67 140.47L245.39 141.29L247.98 144.29C250.16 146.9 253.15 150.46 256.45 154.39L256.62 154.59H256.45L267.91 148.45L271.39 146.62L272.34 146.13C272.442 146.076 272.549 146.032 272.66 146Z" fill="#04181F"/>
<path d="M240.49 159.25C240.49 159.19 243.11 157.02 246.43 154.39C249.75 151.76 252.49 149.67 252.54 149.73C252.59 149.79 249.92 151.96 246.6 154.59C243.28 157.22 240.54 159.31 240.49 159.25Z" fill="#04181F"/>
<path d="M262 151.41C262.06 151.41 263.63 154.41 265.5 158.16C267.37 161.91 268.84 165 268.78 165.03C268.72 165.06 267.14 162.03 265.27 158.28C263.4 154.53 261.92 151.45 262 151.41Z" fill="#04181F"/>
<path d="M311.95 119.35L357.21 114.16L361.79 144.81L314.84 149.42L311.95 119.35Z" fill="#092933"/>
<path d="M312 119.36L331.58 99.7C331.983 99.2978 332.512 99.0465 333.078 98.9882C333.645 98.93 334.214 99.0683 334.69 99.38L357.26 114.16" fill="#04181F"/>
<path d="M314.84 149.42C314.78 149.42 317.98 145.03 321.99 139.71C326 134.39 329.3 130.12 329.36 130.17C329.42 130.22 326.22 134.56 322.21 139.88C318.2 145.2 314.9 149.47 314.84 149.42Z" fill="#04181F"/>
<path d="M361.79 144.82C361.73 144.87 357.79 141.37 352.97 137C348.15 132.63 344.29 129 344.34 129C344.39 129 348.34 132.45 353.16 136.82C357.98 141.19 361.84 144.76 361.79 144.82Z" fill="#04181F"/>
<path d="M314.42 120.79L312.82 106.65L352.44 101.92L354.48 116.76L336.39 134.53L314.42 120.79Z" fill="#092933"/>
<path d="M314.41 120.79L314.84 121.02L316.03 121.73L320.5 124.46L336.5 134.35H336.23L354.29 116.54L354.22 116.76C353.83 113.93 353.41 110.96 353 107.94C352.72 105.94 352.44 103.94 352.17 101.94L352.46 102.16L312.83 106.8L312.98 106.61C313.44 111.03 313.81 114.55 314.07 117C314.183 118.187 314.273 119.117 314.34 119.79C314.34 120.09 314.34 120.33 314.4 120.52C314.413 120.603 314.413 120.687 314.4 120.77C314.393 120.694 314.393 120.617 314.4 120.54L314.3 119.84C314.213 119.173 314.093 118.253 313.94 117.08C313.65 114.62 313.22 111.08 312.69 106.65V106.49H312.85L352.45 101.66H352.71V101.91C352.977 103.91 353.253 105.91 353.54 107.91C353.96 110.91 354.37 113.91 354.76 116.73V116.86L354.66 116.95L336.54 134.7L336.42 134.81L336.28 134.72L320.28 124.62L315.89 121.81L314.75 121.07C314.63 120.985 314.516 120.892 314.41 120.79Z" fill="#04181F"/>
<path d="M346.93 109.72C346.93 109.86 340.93 110.66 333.42 111.51C325.91 112.36 319.87 112.94 319.86 112.79C319.85 112.64 325.86 111.85 333.37 111C340.88 110.15 346.92 109.57 346.93 109.72Z" fill="#04181F"/>
<path d="M347.36 113.71C347.36 113.86 341.36 114.66 333.85 115.51C326.34 116.36 320.3 116.93 320.29 116.79C320.28 116.65 326.29 115.84 333.8 114.99C341.31 114.14 347.35 113.57 347.36 113.71Z" fill="#04181F"/>
<path d="M347.86 118.32C347.86 118.46 341.86 119.32 334.35 120.12C326.84 120.92 320.8 121.54 320.78 121.4C320.76 121.26 326.78 120.4 334.29 119.6C341.8 118.8 347.84 118.18 347.86 118.32Z" fill="#04181F"/>
<path d="M348.35 122.92C348.35 123.07 342.6 123.84 335.47 124.65C328.34 125.46 322.54 126 322.47 125.86C322.4 125.72 328.22 124.94 335.36 124.13C342.5 123.32 348.34 122.78 348.35 122.92Z" fill="#04181F"/>
<path d="M343.71 127.51C342.976 127.747 342.218 127.898 341.45 127.96C340.04 128.17 338.09 128.42 335.94 128.69C333.79 128.96 331.82 129.16 330.4 129.28C329.636 129.396 328.86 129.42 328.09 129.35C328.828 129.121 329.59 128.974 330.36 128.91C331.77 128.7 333.72 128.44 335.87 128.17C338.02 127.9 339.99 127.71 341.4 127.59C342.164 127.474 342.939 127.447 343.71 127.51Z" fill="#04181F"/>
<path d="M339 132C338.085 132.349 337.119 132.542 336.14 132.57C335.174 132.74 334.186 132.74 333.22 132.57C334.13 132.206 335.1 132.013 336.08 132C337.045 131.825 338.035 131.825 339 132Z" fill="#04181F"/>
<path d="M314.38 357.06C315.425 351.511 314.986 345.785 313.107 340.461C311.228 335.137 307.976 330.403 303.68 326.74C303.68 326.74 301.2 325.83 301.41 328.61C301.54 330.27 299.94 332.61 298.62 331.61C296.31 329.83 297.04 326.22 296.05 323.48C294.88 320.28 291.47 318.57 288.35 317.2C282.59 314.68 276.74 312.2 270.55 311.11C264.36 310.02 257.75 310.28 252.11 313.06C253.483 315.813 254.85 318.57 256.21 321.33C256.33 321.692 256.52 322.027 256.769 322.315C257.019 322.604 257.322 322.84 257.663 323.011C258.004 323.182 258.376 323.284 258.756 323.311C259.136 323.339 259.518 323.291 259.88 323.17L267.38 322.62C268.47 322.54 269.87 322.62 270.19 323.71C270.51 324.8 269.13 325.77 267.97 326.18L260.11 329C262.72 332.785 266.317 335.784 270.51 337.67C274.699 339.539 279.051 341.022 283.51 342.1C284.882 342.62 286.375 342.735 287.81 342.43C290.1 341.69 291.68 338.83 294.07 339.18C293.932 340.495 293.535 341.769 292.902 342.929C292.269 344.09 291.411 345.113 290.38 345.94C299.65 349.58 306.11 354.03 314.38 357.07" fill="#113946"/>
<path d="M322.33 398.21C322.303 398.131 322.279 398.051 322.26 397.97C322.26 397.78 322.17 397.55 322.1 397.26C321.97 396.6 321.78 395.69 321.53 394.52C321.05 392.11 320.36 388.68 319.53 384.45C319.11 382.32 318.65 379.99 318.15 377.45C317.91 376.2 317.65 374.9 317.39 373.57L316.99 371.57C316.89 370.903 316.79 370.203 316.69 369.47C315.82 363.83 314.8 357.53 312.06 351.53C309.32 345.53 304.82 340.9 300.57 337.11C296.742 333.795 292.66 330.785 288.36 328.11C284.71 325.77 281.67 324.02 279.58 322.79L277.17 321.37L276.55 320.99L276.35 320.85C276.35 320.85 276.43 320.85 276.58 320.95L277.22 321.29L279.67 322.63C281.78 323.82 284.85 325.54 288.53 327.84C292.87 330.507 296.99 333.516 300.85 336.84C303.119 338.82 305.241 340.962 307.2 343.25C309.304 345.716 311.073 348.45 312.46 351.38C315.24 357.46 316.25 363.8 317.1 369.45L317.39 371.55L317.78 373.55C318.03 374.88 318.28 376.18 318.52 377.43C318.99 379.93 319.43 382.26 319.84 384.43L321.72 394.52C321.93 395.69 322.1 396.61 322.21 397.27L322.33 397.99C322.339 398.063 322.339 398.137 322.33 398.21Z" fill="#04181F"/>
<path d="M336.87 294.34C334.87 297.34 329.2 295.87 328.87 292.34C328.54 288.81 333.79 286.25 336.35 288.78C337.246 278.287 336.174 267.719 333.19 257.62C332.599 259.692 331.603 261.626 330.26 263.31C328.81 264.89 326.48 265.88 324.47 265.12C321.75 264.12 320.95 260.37 322.08 257.69C323.21 255.01 325.66 253.16 328 251.44C326.124 247.922 323.548 244.824 320.43 242.339C317.312 239.854 313.718 238.034 309.87 236.99C306.87 241.87 303.8 246.86 302.44 252.43C301.08 258 301.7 264.37 305.44 268.74C307.02 270.6 309.11 272.05 310.34 274.16C311.57 276.27 311.48 279.49 309.34 280.63C306.8 281.96 303.93 279.45 302.49 276.96C301.05 274.47 299.58 271.43 296.74 270.96C296.011 280.899 297.994 290.849 302.476 299.75C306.958 308.65 313.771 316.168 322.19 321.5L321.9 321.23C328.6 313.332 333.686 304.196 336.87 294.34ZM323.87 272.42C325.384 271.039 327.188 270.014 329.15 269.42C329.542 269.27 329.971 269.248 330.377 269.355C330.782 269.463 331.144 269.696 331.41 270.02C331.67 270.349 331.857 270.73 331.957 271.137C332.057 271.544 332.068 271.968 331.99 272.38C331.831 273.208 331.489 273.991 330.99 274.67C330.25 275.818 329.214 276.744 327.99 277.35C327.364 277.642 326.681 277.794 325.99 277.794C325.299 277.794 324.616 277.642 323.99 277.35C323.554 277.146 323.178 276.833 322.899 276.44C322.62 276.047 322.448 275.589 322.4 275.11C322.438 274.586 322.586 274.075 322.834 273.612C323.082 273.149 323.425 272.742 323.84 272.42H323.87Z" fill="#113946"/>
<path d="M326.07 398.21C326.058 398.107 326.058 398.003 326.07 397.9C326.07 397.67 326.07 397.36 326.07 396.98C326.07 396.15 325.99 394.98 325.94 393.46C325.81 390.38 325.64 385.97 325.42 380.53C324.94 369.61 324.17 354.53 322.94 337.89C321.71 321.25 320.29 306.22 319.1 295.36C318.52 289.92 317.99 285.53 317.62 282.5C317.45 281 317.31 279.83 317.22 279C317.22 278.62 317.15 278.32 317.12 278.09C317.104 277.987 317.104 277.883 317.12 277.78L317.18 278.08C317.18 278.31 317.26 278.61 317.31 278.99C317.43 279.81 317.59 280.99 317.8 282.47C318.22 285.47 318.8 289.89 319.42 295.32C320.7 306.18 322.19 321.22 323.42 337.86C324.65 354.5 325.36 369.59 325.77 380.52C325.97 385.98 326.08 390.4 326.14 393.46C326.14 394.97 326.14 396.15 326.14 396.98V397.89C326.125 397.998 326.102 398.105 326.07 398.21Z" fill="#04181F"/>
<path d="M294.05 379.82L302.03 413.67H343.87L352.71 379.82H294.05Z" fill="#092933"/>
<path d="M307.21 406.56C307.21 407.2 310.44 426.61 310.44 426.61H335.89L338.69 406.56H307.21Z" fill="#092933"/>
<path d="M342.71 413.52C342.71 413.64 333.58 413.74 322.32 413.74C311.06 413.74 301.93 413.64 301.93 413.52C301.93 413.4 311.06 413.29 322.32 413.29C333.58 413.29 342.71 413.39 342.71 413.52Z" fill="#04181F"/>
<path d="M347.06 399.87C347.06 399.99 336.3 400.09 323.06 400.09C309.82 400.09 299.06 399.99 299.06 399.87C299.06 399.75 309.83 399.65 323.06 399.65C336.29 399.65 347.06 399.75 347.06 399.87Z" fill="#04181F"/>
<path d="M345.18 404.58C345.18 404.71 335.04 404.81 322.55 404.81C310.06 404.81 299.91 404.71 299.91 404.58C299.91 404.45 310.05 404.36 322.55 404.36C335.05 404.36 345.18 404.46 345.18 404.58Z" fill="#04181F"/>
<path d="M345 409.3C345 409.42 335.23 409.52 323.18 409.52C311.13 409.52 301.36 409.42 301.36 409.3C301.36 409.18 311.13 409.08 323.18 409.08C335.23 409.08 345 409.18 345 409.3Z" fill="#04181F"/>
<path d="M348.28 395.29C348.28 395.41 337.03 395.51 323.15 395.51C309.27 395.51 298.03 395.41 298.03 395.29C298.03 395.17 309.27 395.07 323.15 395.07C337.03 395.07 348.28 395.17 348.28 395.29Z" fill="#04181F"/>
<path d="M349.08 391.52C349.08 391.64 337.62 391.74 323.49 391.74C309.36 391.74 297.89 391.64 297.89 391.52C297.89 391.4 309.35 391.29 323.49 391.29C337.63 391.29 349.08 391.39 349.08 391.52Z" fill="#04181F"/>
<path d="M196.3 383.8L193.59 419.74L177.96 419.42L175.82 382.02L196.3 383.8Z" fill="#184757"/>
<path d="M194.08 415V416C194.08 416 211.64 423.25 211.8 426.59L176.8 426.09L177.45 414.45C180.02 415.73 182.836 416.442 185.705 416.536C188.575 416.631 191.431 416.107 194.08 415Z" fill="#113946"/>
<path d="M199.59 421.57C199.46 421.57 199.26 420.84 199.66 420.02C200.06 419.2 200.77 418.89 200.83 419.02C200.89 419.15 200.45 419.58 200.13 420.26C199.81 420.94 199.74 421.56 199.59 421.57Z" fill="#04181F"/>
<path d="M180.93 418.27C180.596 418.374 180.311 418.595 180.127 418.893C179.943 419.191 179.873 419.545 179.93 419.89C180.022 420.227 180.238 420.518 180.534 420.703C180.831 420.888 181.186 420.955 181.53 420.89C181.887 420.783 182.192 420.549 182.387 420.232C182.583 419.915 182.655 419.537 182.59 419.17C182.467 418.822 182.214 418.536 181.883 418.371C181.553 418.207 181.172 418.178 180.82 418.29" fill="#113946"/>
<path d="M194.19 416.15C194.19 416.32 193.33 416.39 192.48 416.93C191.63 417.47 191.17 418.17 191.02 418.1C190.87 418.03 191.13 417.05 192.17 416.42C193.21 415.79 194.23 416 194.19 416.15Z" fill="#04181F"/>
<path d="M197.84 417.72C197.84 417.89 197.14 418.17 196.55 418.88C195.96 419.59 195.78 420.36 195.61 420.35C195.44 420.34 195.34 419.35 196.09 418.5C196.84 417.65 197.84 417.56 197.84 417.72Z" fill="#04181F"/>
<path d="M176.8 426.16L176.95 423.51L210.71 425C211.254 425.42 211.633 426.019 211.78 426.69L176.8 426.16Z" fill="#04181F"/>
<path d="M278.23 71.51C278.23 71.51 284.78 65.04 286.52 63.95C288.26 62.86 290.4 60.41 291.75 59.85C293.297 59.0487 294.791 58.1468 296.22 57.15L298.88 53.86C298.88 53.86 300.88 53.65 300.44 55.86L305.39 54.86C305.39 54.86 306.72 56.01 304.61 57.37C303.584 58.156 302.294 58.5144 301.01 58.37L298.93 60.69L299.29 61.91L311.29 63.48C311.231 64.0264 310.973 64.5321 310.566 64.9009C310.158 65.2697 309.63 65.4758 309.08 65.48C307.08 65.48 299.84 65.17 299.84 65.17L311 69.38C311 69.38 311.59 71.09 308.1 70.59C305.04 70.0289 302.015 69.291 299.04 68.38L298.04 69.26L301.09 71.04L303.94 74.72C303.331 74.9926 302.651 75.061 302 74.915C301.35 74.769 300.764 74.4164 300.33 73.91L298.49 72.11H295.82C295.82 72.11 288.56 77.18 286.13 76L284.07 78.07L278.23 71.51Z" fill="#184757"/>
<path d="M299.5 62.72C299.56 62.72 299.77 63.17 299.91 63.97C300.087 65.0372 300.005 66.1313 299.67 67.16C299.33 68.2043 298.655 69.1074 297.75 69.73C297.08 70.21 296.59 70.36 296.56 70.3C296.53 70.24 296.94 69.97 297.56 69.44C298.323 68.7932 298.894 67.9491 299.21 67C299.91 64.73 299.31 62.74 299.5 62.72Z" fill="#07222B"/>
<path d="M289.28 71.28C290.363 71.1499 291.395 70.7474 292.28 70.11C293.241 69.3747 294.026 68.4355 294.58 67.36C295.272 65.9691 295.822 64.5117 296.22 63.01V62.95L296.28 62.89C297.711 61.6516 298.84 60.1021 299.58 58.36C299.943 57.4777 300.178 56.5485 300.28 55.6C300.319 55.1965 300.196 54.794 299.94 54.48C299.667 54.2324 299.309 54.0998 298.94 54.11L299.12 54C297.564 56.3899 295.568 58.4631 293.24 60.11C292.573 60.5796 291.871 60.9975 291.14 61.36C290.883 61.506 290.607 61.6169 290.32 61.69C290.32 61.62 291.41 61.11 293.06 59.86C295.289 58.1642 297.201 56.0892 298.71 53.73L298.78 53.62H298.9C299.161 53.5997 299.423 53.6346 299.669 53.7225C299.916 53.8103 300.141 53.9492 300.33 54.13C300.508 54.3325 300.643 54.5689 300.727 54.825C300.811 55.081 300.843 55.3514 300.82 55.62C300.725 56.631 300.479 57.6221 300.09 58.56C299.314 60.3833 298.122 61.9997 296.61 63.28L296.7 63.16C296.273 64.6841 295.686 66.1588 294.95 67.56C294.353 68.6773 293.5 69.637 292.46 70.36C291.786 70.8395 291.008 71.1514 290.19 71.27C289.891 71.3401 289.58 71.3436 289.28 71.28Z" fill="#07222B"/>
<path d="M189.54 119.46L237.29 99.23L278.5 69.41L286.84 78.27C286.84 78.27 257.96 108.35 250.44 114.49C242.92 120.63 202.29 146.49 202.29 146.49L189.54 119.46Z" fill="#113946"/>
<path d="M217 125.57C215.78 125.289 214.503 125.387 213.34 125.85C212.96 126.04 212.57 126.46 212.78 126.85C212.91 127.08 213.22 127.14 213.48 127.19C218.22 127.92 222.48 129.34 227.21 130.08L228.01 129.74C224.599 127.745 220.877 126.335 217 125.57Z" fill="#092933"/>
<path d="M225.57 122.68C226.345 125.033 227.35 127.304 228.57 129.46L229.04 129.19C229.135 126.792 228.995 124.39 228.62 122.02C228.337 119.72 227.361 117.561 225.82 115.83C225.009 118.028 224.922 120.428 225.57 122.68Z" fill="#092933"/>
<path d="M233.36 120C232.36 122.79 231.41 125.47 230.36 128.26L232.36 126.21C234.222 123.875 235.706 121.264 236.76 118.47C236.884 118.152 236.942 117.811 236.93 117.47C236.918 117.295 236.86 117.126 236.761 116.98C236.663 116.834 236.528 116.717 236.37 116.64C236.181 116.591 235.983 116.59 235.793 116.635C235.603 116.68 235.427 116.771 235.28 116.9C234.351 117.723 233.683 118.801 233.36 120Z" fill="#092933"/>
<path d="M267 86.7801C268.111 86.7725 269.194 86.4234 270.1 85.7801C270.39 85.5401 270.64 85.0801 270.38 84.7801C270.285 84.7061 270.175 84.6542 270.057 84.6283C269.939 84.6023 269.817 84.6029 269.7 84.6301C265.45 85.0101 261.47 84.6901 257.22 85.0701L256.6 85.5301C259.971 86.5308 263.488 86.9534 267 86.7801Z" fill="#092933"/>
<path d="M260.15 91.13C258.993 89.2585 257.653 87.5066 256.15 85.9L255.8 86.24C256.232 88.3306 256.869 90.3737 257.7 92.34C258.433 94.2704 259.743 95.9286 261.45 97.09C261.664 95.0155 261.208 92.927 260.15 91.13Z" fill="#092933"/>
<path d="M254 95.11C254.27 92.49 254.52 89.97 254.79 87.35L253.54 89.53C252.435 91.9505 251.713 94.5278 251.4 97.17C251.358 97.4814 251.382 97.7983 251.47 98.1C251.516 98.2515 251.603 98.3875 251.721 98.4933C251.84 98.599 251.984 98.6705 252.14 98.7C252.313 98.701 252.484 98.6596 252.637 98.5794C252.791 98.4992 252.922 98.3827 253.02 98.24C253.65 97.317 253.991 96.2274 254 95.11Z" fill="#092933"/>
<path d="M94.16 329.3L57.99 341.17L51.99 325.79L87.63 308.58L94.16 329.3Z" fill="#184757"/>
<path d="M62.81 339.74L61.81 340.15C61.81 340.15 61.81 360.22 58.63 361.72L45 327.36L56.62 323.28C56.412 326.307 56.857 329.343 57.925 332.183C58.993 335.023 60.659 337.6 62.81 339.74Z" fill="#113946"/>
<path d="M54.3101 328.22C54.0784 327.925 53.7453 327.727 53.3757 327.664C53.006 327.601 52.6261 327.678 52.3101 327.88C52.0036 328.103 51.7958 328.436 51.7305 328.809C51.6652 329.182 51.7475 329.566 51.9601 329.88C52.208 330.187 52.5605 330.391 52.95 330.454C53.3394 330.517 53.7383 330.433 54.0701 330.22C54.357 329.956 54.5315 329.592 54.5575 329.203C54.5836 328.814 54.4592 328.43 54.2101 328.13" fill="#113946"/>
<path d="M45 327.36L47.8 326.36L59.8 359.65C59.8 359.65 59.8 361.45 58.6 361.7L45 327.36Z" fill="#04181F"/>
<path d="M61.74 340.31C61.57 340.37 61.16 339.56 60.29 338.95C59.42 338.34 58.55 338.18 58.55 338C58.55 337.82 59.62 337.68 60.66 338.44C61.7 339.2 61.91 340.28 61.74 340.31Z" fill="#04181F"/>
<path d="M61.68 344.51C61.53 344.61 60.96 344 60.02 343.71C59.08 343.42 58.27 343.55 58.21 343.38C58.15 343.21 59.06 342.73 60.21 343.11C61.36 343.49 61.84 344.44 61.68 344.51Z" fill="#04181F"/>
<path d="M58.18 348.27C58.08 348.13 58.8299 347.56 59.9199 347.63C61.0099 347.7 61.69 348.33 61.57 348.46C61.45 348.59 60.7799 348.3 59.8799 348.25C58.9799 348.2 58.26 348.43 58.18 348.27Z" fill="#04181F"/>
<path d="M191.61 247C191.61 247 165.09 301 157.97 305.15C150.85 309.3 68.8701 338.48 68.8701 338.48L62.5601 319L136.75 279.82C136.75 279.82 146.44 253.4 150.05 233.33C152.26 221.03 157.33 213.82 164.62 204.24C166.85 201.31 170.62 197.12 172.55 195.83L205.88 202.14L191.61 247Z" fill="#04181F"/>
<path d="M215.05 203.82L179.26 197.82L172 239.9L179.27 328.27C179.27 328.27 174.27 358.99 175.12 379.2C175.89 398.26 176.63 405.45 176.63 405.45C176.63 405.45 192.02 405.52 195.52 405.52C196.99 405.52 210.14 309.87 210.14 309.87L215.05 203.82Z" fill="#04181F"/>
<path d="M198.66 226.9C198.595 227.112 198.514 227.319 198.42 227.52C198.23 227.97 197.98 228.52 197.66 229.28L194.83 235.71C192.45 241.2 189.2 248.71 185.62 256.99C182.04 265.27 178.4 272.68 175.62 277.93C174.23 280.55 173.08 282.66 172.24 284.1L171.24 285.75C171.139 285.948 171.019 286.136 170.88 286.31C170.947 286.097 171.038 285.893 171.15 285.7C171.38 285.27 171.67 284.7 172.03 284L175.25 277.76C177.93 272.47 181.46 265.07 185.09 256.76C188.72 248.45 192 241 194.49 235.56C195.73 232.86 196.75 230.68 197.49 229.19L198.34 227.48C198.423 227.274 198.53 227.08 198.66 226.9Z" fill="#092933"/>
<path d="M66.48 323C66.54 323.13 66.08 323.47 65.48 323.77C64.88 324.07 64.31 324.21 64.24 324.08C64.17 323.95 64.64 323.6 65.24 323.3C65.84 323 66.41 322.89 66.48 323Z" fill="#092933"/>
<path d="M75.43 318.69C75.5 318.82 74.54 319.41 73.31 320.01C72.593 320.451 71.7932 320.74 70.96 320.86C70.89 320.73 71.85 320.14 73.08 319.54C73.7971 319.099 74.5968 318.81 75.43 318.69Z" fill="#092933"/>
<path d="M84.38 314.33C84.45 314.46 83.49 315.05 82.26 315.66C81.5421 316.101 80.743 316.394 79.91 316.52C79.84 316.39 80.8 315.79 82.03 315.19C82.7478 314.749 83.5469 314.456 84.38 314.33Z" fill="#092933"/>
<path d="M93.3 310C91.9794 311.031 90.4614 311.779 88.84 312.2C90.1511 311.154 91.6724 310.404 93.3 310Z" fill="#092933"/>
<path d="M102.2 305.52C102.27 305.65 101.32 306.25 100.09 306.87C99.3778 307.317 98.5813 307.613 97.75 307.74C97.68 307.61 98.63 307.01 99.86 306.4C100.573 305.953 101.369 305.653 102.2 305.52Z" fill="#092933"/>
<path d="M111.09 301.05C111.16 301.18 110.21 301.78 108.99 302.4C108.28 302.855 107.483 303.158 106.65 303.29C107.253 302.704 107.967 302.245 108.75 301.94C109.461 301.487 110.258 301.184 111.09 301.05Z" fill="#092933"/>
<path d="M120 296.5C118.7 297.565 117.191 298.345 115.57 298.79C116.165 298.192 116.876 297.722 117.66 297.41C118.372 296.955 119.167 296.645 120 296.5Z" fill="#092933"/>
<path d="M128.74 291.85C128.81 291.98 127.88 292.6 126.67 293.25C125.974 293.72 125.187 294.04 124.36 294.19C124.95 293.59 125.654 293.114 126.43 292.79C127.126 292.32 127.913 291.999 128.74 291.85Z" fill="#092933"/>
<path d="M137.41 287C137.48 287.12 136.58 287.78 135.41 288.47C134.725 288.96 133.945 289.301 133.12 289.47C133.684 288.854 134.364 288.354 135.12 288C135.803 287.507 136.584 287.166 137.41 287Z" fill="#092933"/>
<path d="M142.82 279.56C142.912 280.39 142.854 281.23 142.65 282.04C142.601 282.348 142.567 282.659 142.55 282.97C142.546 283.037 142.546 283.103 142.55 283.17C142.558 283.279 142.53 283.388 142.47 283.48C142.395 283.602 142.304 283.713 142.2 283.81C141.84 284.13 141.58 284.23 141.53 284.18C141.48 284.13 141.67 283.91 141.92 283.56C141.986 283.478 142.04 283.387 142.08 283.29C142.085 283.264 142.085 283.236 142.08 283.21C142.068 283.134 142.068 283.056 142.08 282.98C142.05 282.647 142.05 282.313 142.08 281.98C142.136 281.127 142.389 280.299 142.82 279.56Z" fill="#092933"/>
<path d="M145.13 269.88C145.183 270.722 145.064 271.566 144.78 272.36C144.658 273.194 144.365 273.994 143.92 274.71C143.868 273.868 143.987 273.025 144.27 272.23C144.397 271.397 144.69 270.598 145.13 269.88Z" fill="#092933"/>
<path d="M147.68 260.27C147.583 261.941 147.143 263.575 146.39 265.07C146.345 264.228 146.478 263.387 146.78 262.6C146.918 261.77 147.225 260.977 147.68 260.27Z" fill="#092933"/>
<path d="M150.35 250.68C150.246 252.355 149.786 253.988 149 255.47C148.97 254.63 149.113 253.792 149.42 253.01C149.569 252.178 149.885 251.385 150.35 250.68Z" fill="#092933"/>
<path d="M153.11 241.12C153.133 241.962 152.979 242.8 152.66 243.58C152.507 244.409 152.187 245.198 151.72 245.9C151.836 244.226 152.31 242.596 153.11 241.12Z" fill="#092933"/>
<path d="M156 231.59C155.849 233.261 155.352 234.882 154.54 236.35C154.53 235.506 154.694 234.669 155.02 233.89C155.184 233.064 155.518 232.281 156 231.59Z" fill="#092933"/>
<path d="M159.32 222.22C159.185 223.044 158.943 223.848 158.6 224.61C158.395 225.424 158.024 226.187 157.51 226.85C157.55 226.004 157.757 225.175 158.12 224.41C158.307 223.582 158.723 222.823 159.32 222.22Z" fill="#092933"/>
<path d="M164.68 213.84C164.444 214.65 164.042 215.403 163.5 216.05C162.73 217.18 162 218.05 161.88 217.96C162.12 217.149 162.525 216.397 163.07 215.75C163.84 214.62 164.57 213.76 164.68 213.84Z" fill="#092933"/>
<path d="M170.54 205.8C170.66 205.89 170.09 206.8 169.27 207.95C168.45 209.1 167.7 209.88 167.58 209.8C167.852 209.001 168.284 208.266 168.85 207.64C169.67 206.54 170.43 205.71 170.54 205.8Z" fill="#092933"/>
<path d="M175.09 199.85C175.2 199.94 174.95 200.45 174.53 201C174.11 201.55 173.68 201.91 173.53 201.83C173.38 201.75 173.67 201.23 174.09 200.68C174.51 200.13 175 199.76 175.09 199.85Z" fill="#092933"/>
<path d="M179.32 273.83C179.18 273.83 179.02 273.3 178.97 272.61C178.92 271.92 178.97 271.35 179.13 271.34C179.29 271.33 179.43 271.88 179.48 272.57C179.53 273.26 179.47 273.82 179.32 273.83Z" fill="#092933"/>
<path d="M180.1 284.16C179.787 283.343 179.634 282.474 179.65 281.6C179.495 280.738 179.519 279.853 179.72 279C180.033 279.817 180.186 280.686 180.17 281.56C180.319 282.423 180.296 283.307 180.1 284.16Z" fill="#092933"/>
<path d="M180.79 294.5C180.476 293.681 180.33 292.807 180.36 291.93C180.223 291.065 180.257 290.182 180.46 289.33C180.765 290.151 180.908 291.024 180.88 291.9C181.016 292.764 180.986 293.647 180.79 294.5Z" fill="#092933"/>
<path d="M181.29 304.83C180.995 304.007 180.869 303.133 180.92 302.26C180.79 301.392 180.841 300.507 181.07 299.66C181.489 301.351 181.564 303.109 181.29 304.83Z" fill="#092933"/>
<path d="M181.53 315.18C181.263 314.344 181.161 313.465 181.23 312.59C181.131 311.721 181.206 310.84 181.45 310C181.824 311.704 181.851 313.465 181.53 315.18Z" fill="#092933"/>
<path d="M181.46 325.53C181.222 324.685 181.147 323.803 181.24 322.93C181.165 322.059 181.267 321.181 181.54 320.35C181.78 321.191 181.855 322.071 181.76 322.94C181.835 323.815 181.733 324.696 181.46 325.53Z" fill="#092933"/>
<path d="M181.05 335.88C180.834 335.031 180.79 334.147 180.92 333.28C180.876 332.403 181.005 331.527 181.3 330.7C181.517 331.549 181.564 332.432 181.44 333.3C181.478 334.177 181.346 335.053 181.05 335.88Z" fill="#092933"/>
<path d="M180.32 346.21C180.108 344.478 180.241 342.721 180.71 341.04C180.911 341.893 180.935 342.778 180.78 343.64C180.795 344.518 180.638 345.391 180.32 346.21Z" fill="#092933"/>
<path d="M179.45 356.52C179.275 355.662 179.275 354.778 179.45 353.92C179.44 353.047 179.603 352.18 179.93 351.37C180.099 352.228 180.099 353.112 179.93 353.97C179.94 354.843 179.777 355.71 179.45 356.52Z" fill="#092933"/>
<path d="M178.63 366.85C178.442 365.995 178.421 365.112 178.57 364.25C178.549 363.372 178.702 362.499 179.02 361.68C179.208 362.538 179.232 363.423 179.09 364.29C179.11 365.165 178.953 366.036 178.63 366.85Z" fill="#092933"/>
<path d="M178.07 377.19C177.859 376.34 177.812 375.458 177.93 374.59C177.89 373.717 178.019 372.844 178.31 372.02C178.527 372.866 178.575 373.746 178.45 374.61C178.5 375.487 178.371 376.365 178.07 377.19Z" fill="#092933"/>
<path d="M178 387.55C177.734 386.714 177.642 385.833 177.73 384.96C177.641 384.086 177.723 383.203 177.97 382.36C178.234 383.196 178.329 384.077 178.25 384.95C178.331 385.825 178.246 386.707 178 387.55Z" fill="#092933"/>
<path d="M178.55 397.88C178.233 397.065 178.08 396.195 178.1 395.32C177.944 394.458 177.968 393.573 178.17 392.72C178.641 394.397 178.77 396.152 178.55 397.88Z" fill="#092933"/>
<path d="M179.53 405.52C179.39 405.52 179.19 405.01 179.09 404.32C178.99 403.63 179.01 403.07 179.16 403.05C179.31 403.03 179.5 403.57 179.6 404.25C179.7 404.93 179.67 405.5 179.53 405.52Z" fill="#092933"/>
<path d="M190.45 204C190.318 204.357 190.136 204.693 189.91 205C189.364 205.882 188.77 206.733 188.13 207.55C186.051 210.315 183.383 212.583 180.32 214.19C177.198 215.766 173.633 216.235 170.21 215.52C169.186 215.295 168.199 214.924 167.28 214.42C166.935 214.257 166.618 214.041 166.34 213.78C167.601 214.387 168.926 214.85 170.29 215.16C173.626 215.749 177.064 215.244 180.09 213.72C183.083 212.138 185.721 209.96 187.84 207.32C189.51 205.34 190.38 204 190.45 204Z" fill="#092933"/>
<path d="M208.31 204.64C208.277 205.607 208.13 206.567 207.87 207.5C207.346 209.78 206.63 212.011 205.73 214.17C204.827 216.329 203.739 218.407 202.48 220.38C201.996 221.221 201.415 222.003 200.75 222.71C201.163 221.84 201.634 220.998 202.16 220.19C204.487 216.179 206.286 211.883 207.51 207.41C207.718 206.471 207.985 205.546 208.31 204.64Z" fill="#092933"/>
<path d="M204 205.48C204 205.56 203.52 205.6 203.19 206.19C203.106 206.341 203.053 206.508 203.036 206.68C203.019 206.852 203.037 207.025 203.09 207.19C203.186 207.372 203.33 207.525 203.506 207.631C203.682 207.738 203.884 207.794 204.09 207.794C204.296 207.794 204.498 207.738 204.674 207.631C204.85 207.525 204.994 207.372 205.09 207.19C205.14 207.025 205.156 206.851 205.137 206.679C205.118 206.507 205.065 206.341 204.98 206.19C204.65 205.61 204.15 205.57 204.17 205.49C204.19 205.41 204.29 205.42 204.51 205.49C204.824 205.57 205.1 205.758 205.29 206.02C205.438 206.218 205.538 206.447 205.583 206.69C205.628 206.932 205.617 207.182 205.55 207.42C205.428 207.708 205.225 207.954 204.964 208.127C204.703 208.3 204.398 208.392 204.085 208.392C203.772 208.392 203.466 208.3 203.206 208.127C202.945 207.954 202.742 207.708 202.62 207.42C202.551 207.183 202.538 206.932 202.583 206.689C202.628 206.446 202.73 206.217 202.88 206.02C203.065 205.755 203.338 205.564 203.65 205.48C203.91 205.41 204 205.45 204 205.48Z" fill="#092933"/>
<path d="M154.48 75.2C151.226 73.5978 147.469 73.3495 144.032 74.5095C140.595 75.6695 137.758 78.1434 136.14 81.39C134.55 84.6 134.14 88.48 131.77 91.14C129.62 93.51 126.33 94.38 123.3 95.41C120.27 96.44 117.05 98.02 115.86 101C114.86 103.54 115.53 106.66 113.98 108.91C112.43 111.16 109.21 111.59 106.43 111.77C106.583 112.393 106.931 112.951 107.425 113.361C107.918 113.771 108.529 114.013 109.17 114.05C107.137 115.224 104.786 115.727 102.45 115.49C103.19 118.87 106.17 121.42 109.45 122.49C112.73 123.56 116.27 123.55 119.72 123.33C123.63 123.09 127.81 122.54 130.72 119.93C134.23 116.79 135.34 111.11 139.65 109.19C141.85 108.19 144.46 108.47 146.65 107.45C149.65 106.05 151.15 102.55 151.48 99.24C151.81 95.93 151.27 92.59 151.48 89.24C151.69 85.89 153.01 82.39 155.9 80.75L154.48 75.2Z" fill="#04181F"/>
<path d="M155.24 74.22C155.53 73.58 154.79 72.85 154.08 72.88C153.376 73.0016 152.744 73.3836 152.31 73.95C150.524 75.7878 149.365 78.1436 149 80.68C148.83 81.9489 148.953 83.2399 149.36 84.4536C149.768 85.6672 150.448 86.7711 151.35 87.68C151.735 88.1152 152.271 88.3871 152.85 88.4401C153.152 88.4202 153.444 88.3258 153.701 88.1652C153.957 88.0047 154.17 87.783 154.32 87.5201C154.614 86.993 154.811 86.4171 154.9 85.8201C155.681 81.9621 155.97 78.0207 155.76 74.09L155.24 74.22Z" fill="#113946"/>
<path d="M152.2 87.6101C152.2 80.4601 153.35 72.8701 157.96 67.4201C162.07 62.5701 169.02 59.4201 175.3 58.4201C178.622 58.0756 181.979 58.4718 185.13 59.5801C189.22 60.9001 191.63 64.7801 194.19 68.2401C199.31 75.1601 200.99 85.6101 199.19 88.9801L170.7 112.44C164.43 110.66 157.44 107.92 154.7 102.02C152.78 98.0001 152.22 92.0001 152.2 87.6101Z" fill="#04181F"/>
<path d="M161.76 73.62L180.66 63.53C186.94 61.25 193.2 68.14 195.21 74.53C197.45 81.61 199.9 90.35 200.38 95.94C201.38 107.16 193.38 110.58 193.38 110.58L197.24 123.26L201.67 137.36L172.98 120.36L159.29 78.31C159.04 77.3609 159.155 76.3526 159.612 75.4842C160.069 74.6158 160.836 73.9506 161.76 73.62Z" fill="#184757"/>
<path d="M194.91 81.85C195.005 82.212 194.953 82.5967 194.766 82.9207C194.579 83.2446 194.271 83.4816 193.91 83.58C193.737 83.6386 193.555 83.6617 193.373 83.6478C193.192 83.6339 193.015 83.5834 192.853 83.4994C192.691 83.4153 192.548 83.2993 192.433 83.1585C192.317 83.0177 192.231 82.8549 192.18 82.68C192.088 82.3182 192.141 81.9347 192.328 81.6114C192.515 81.2881 192.82 81.0507 193.18 80.95C193.353 80.8929 193.535 80.8709 193.716 80.8855C193.897 80.9 194.074 80.9507 194.235 81.0346C194.396 81.1185 194.539 81.2339 194.655 81.374C194.771 81.514 194.858 81.6759 194.91 81.85Z" fill="#04181F"/>
<path d="M194.2 78.34C194.1 78.58 192.81 78.21 191.37 78.75C189.93 79.29 189.14 80.4 188.92 80.28C188.7 80.16 188.92 79.85 189.2 79.34C189.667 78.6812 190.322 78.1792 191.08 77.9C191.829 77.617 192.649 77.5819 193.42 77.8C194 78 194.25 78.24 194.2 78.34Z" fill="#04181F"/>
<path d="M181.31 85.82C181.402 86.1818 181.349 86.5653 181.162 86.8886C180.975 87.2119 180.67 87.4492 180.31 87.55C180.137 87.6072 179.954 87.6293 179.772 87.6149C179.59 87.6005 179.413 87.5498 179.251 87.466C179.089 87.3822 178.945 87.2668 178.828 87.1267C178.711 86.9865 178.623 86.8244 178.57 86.6499C178.478 86.2881 178.531 85.9046 178.718 85.5813C178.905 85.258 179.21 85.0207 179.57 84.9199C179.743 84.8641 179.926 84.8431 180.107 84.8581C180.289 84.8732 180.466 84.924 180.627 85.0077C180.789 85.0913 180.933 85.2062 181.05 85.3456C181.167 85.485 181.255 85.6462 181.31 85.82Z" fill="#04181F"/>
<path d="M179.93 82.7201C179.81 82.9401 178.56 82.4301 177.08 82.8001C175.6 83.1701 174.68 84.1901 174.47 84.0401C174.26 83.8901 174.47 83.6101 174.86 83.1501C175.385 82.5465 176.083 82.1203 176.86 81.9301C177.634 81.7319 178.451 81.788 179.19 82.0901C179.76 82.3301 180 82.6201 179.93 82.7201Z" fill="#04181F"/>
<path d="M188 93.19C188.726 92.7634 189.502 92.4276 190.31 92.19C190.69 92.05 191.03 91.89 191.03 91.61C190.965 91.2089 190.777 90.8381 190.49 90.55C189.91 89.71 189.29 88.84 188.65 87.93C186.07 84.19 184.1 81.07 184.25 80.93C184.4 80.79 186.62 83.78 189.2 87.52L191 90.16C191.352 90.5628 191.554 91.0753 191.57 91.61C191.546 91.7574 191.49 91.8977 191.405 92.0206C191.321 92.1434 191.209 92.2458 191.08 92.32C190.885 92.4289 190.676 92.5129 190.46 92.57C189.67 92.8803 188.843 93.0886 188 93.19Z" fill="#04181F"/>
<path d="M193.4 110.57C188.34 111.905 183.01 111.811 178 110.3C178 110.3 183.66 116.89 194.22 113.2L193.4 110.57Z" fill="#07222B"/>
<path d="M183.77 97.19C183.903 96.8047 184.13 96.4586 184.43 96.1828C184.731 95.907 185.095 95.7102 185.49 95.61C186.035 95.4348 186.617 95.4083 187.176 95.5331C187.735 95.6579 188.251 95.9295 188.67 96.32C188.994 96.6978 189.165 97.1827 189.15 97.68C189.1 97.95 189.15 97.81 189.01 98.02C188.549 98.8091 187.899 99.4721 187.12 99.95C186.693 100.176 186.209 100.269 185.729 100.215C185.249 100.162 184.796 99.9648 184.43 99.65C184.104 99.3405 183.87 98.947 183.754 98.5129C183.637 98.0788 183.643 97.621 183.77 97.19Z" fill="#07222B"/>
<path d="M183.87 95.31C184.11 95.23 184.51 96.85 186.18 97.66C187.85 98.47 189.53 97.86 189.6 98.08C189.67 98.3 189.29 98.49 188.6 98.69C187.655 98.9374 186.654 98.8453 185.77 98.43C184.925 98.0246 184.269 97.308 183.94 96.43C183.68 95.77 183.76 95.33 183.87 95.31Z" fill="#04181F"/>
<path d="M179.48 79C179.48 79.45 177.9 79.62 176.2 80.27C174.5 80.92 173.2 81.74 172.89 81.43C172.74 81.28 172.89 80.84 173.37 80.31C174.002 79.6308 174.787 79.113 175.66 78.8C176.531 78.4746 177.466 78.3581 178.39 78.46C179.09 78.59 179.5 78.83 179.48 79Z" fill="#04181F"/>
<path d="M192.62 74.56C192.44 74.96 191.33 74.86 190.09 75.15C188.85 75.44 187.87 75.94 187.54 75.65C187.39 75.5 187.47 75.12 187.85 74.65C188.36 74.1057 189.028 73.7351 189.76 73.59C190.487 73.4176 191.251 73.4807 191.94 73.77C192.47 74.05 192.7 74.36 192.62 74.56Z" fill="#04181F"/>
<path d="M165.39 90.78C165.22 90.78 158.9 90.29 160.39 96.32C161.88 102.35 167.63 99.59 167.6 99.42C167.57 99.25 165.39 90.78 165.39 90.78Z" fill="#092933"/>
<path d="M165.21 97.59C165.21 97.59 165.12 97.69 164.96 97.82C164.737 97.9892 164.457 98.0646 164.18 98.03C163.49 97.96 162.7 97.08 162.4 96.03C162.255 95.5159 162.228 94.976 162.32 94.45C162.329 94.2478 162.388 94.051 162.491 93.8766C162.594 93.7023 162.737 93.5558 162.91 93.45C163.023 93.3897 163.152 93.3698 163.278 93.3934C163.403 93.417 163.517 93.4829 163.6 93.58C163.72 93.73 163.71 93.86 163.75 93.86C163.79 93.86 163.85 93.73 163.75 93.49C163.677 93.3534 163.561 93.2445 163.42 93.18C163.322 93.1376 163.217 93.1157 163.11 93.1157C163.003 93.1157 162.898 93.1376 162.8 93.18C162.564 93.2897 162.361 93.459 162.21 93.6711C162.059 93.8833 161.966 94.131 161.94 94.39C161.796 94.9712 161.796 95.5787 161.94 96.16C162.047 96.7025 162.31 97.2019 162.698 97.5964C163.085 97.991 163.579 98.2634 164.12 98.38C164.293 98.3843 164.465 98.3507 164.624 98.2816C164.783 98.2126 164.925 98.1096 165.04 97.98C165.23 97.74 165.23 97.6 165.21 97.59Z" fill="#07222B"/>
<path d="M163.69 100.08C163.69 100.08 163.49 100.4 163.69 100.93C163.734 101.093 163.813 101.245 163.922 101.375C164.031 101.504 164.167 101.608 164.32 101.68C164.518 101.744 164.729 101.759 164.934 101.724C165.14 101.689 165.334 101.605 165.5 101.48C165.674 101.375 165.82 101.229 165.925 101.055C166.029 100.881 166.09 100.683 166.1 100.48C166.09 100.144 165.95 99.8251 165.71 99.59C165.3 99.2 164.91 99.25 164.92 99.28C164.93 99.31 165.24 99.37 165.55 99.74C165.718 99.9498 165.81 100.211 165.81 100.48C165.795 100.638 165.743 100.79 165.658 100.924C165.573 101.058 165.457 101.17 165.32 101.25C165.194 101.347 165.047 101.415 164.892 101.448C164.736 101.481 164.575 101.478 164.42 101.44C164.179 101.33 163.992 101.128 163.9 100.88C163.799 100.622 163.728 100.354 163.69 100.08Z" fill="#092933"/>
<path d="M195.76 74.63C194.438 73.1438 192.693 72.0971 190.76 71.63C188.86 71.08 186.87 70.82 184.97 70.25C180.56 68.916 176.801 65.9944 174.42 62.05C175.759 60.9627 177.331 60.1993 179.014 59.8194C180.696 59.4395 182.444 59.4534 184.12 59.86C187.484 60.7104 190.453 62.691 192.53 65.47C194.592 68.241 196.026 71.4284 196.73 74.81" fill="#04181F"/>
<path d="M160.05 71.82C163.49 66.51 171.36 62.14 177.66 62.73C178.02 68.02 175.56 74.65 173.12 79.36C170.68 84.07 170.27 91.46 162.32 90.9C161.77 90.9 161.32 91.47 160.77 91.31C160.335 91.122 159.98 90.7853 159.77 90.36C158.11 87.542 157.258 84.3211 157.307 81.0507C157.356 77.7803 158.305 74.5867 160.05 71.82Z" fill="#04181F"/>
<path d="M177.54 63.13C177.565 63.5949 177.538 64.061 177.46 64.52C177.36 65.41 177.22 66.69 177 68.28C176.481 72.4307 175.581 76.5248 174.31 80.51C173.58 82.7025 172.646 84.8218 171.52 86.84C170.731 88.596 169.431 90.0736 167.79 91.08C167.209 91.3916 166.559 91.5547 165.9 91.5547C165.24 91.5547 164.591 91.3916 164.01 91.08C163.702 90.907 163.433 90.6721 163.22 90.39C163.08 90.19 163.03 90.07 163.05 90.06C163.6 90.7065 164.363 91.1346 165.202 91.2667C166.04 91.3988 166.898 91.2261 167.62 90.78C169.157 89.7628 170.366 88.3211 171.1 86.63C172.186 84.6225 173.096 82.5246 173.82 80.36C175.071 76.3988 176.014 72.3467 176.64 68.24C176.88 66.74 177.09 65.49 177.26 64.51C177.313 64.0427 177.406 63.5809 177.54 63.13Z" fill="#04181F"/>
<path d="M111.56 106.3C111.483 106.101 111.436 105.892 111.42 105.68C111.356 105.075 111.39 104.464 111.52 103.87C111.732 102.92 112.144 102.027 112.73 101.25C113.501 100.205 114.562 99.4092 115.78 98.96C117.288 98.5144 118.892 98.5144 120.4 98.96C122.027 99.474 123.773 99.474 125.4 98.96C127.137 98.1859 128.551 96.8319 129.4 95.13C130.331 93.3001 130.931 91.3194 131.17 89.28C131.431 87.2054 131.832 85.1507 132.37 83.13C132.938 81.2397 133.884 79.4843 135.15 77.97C136.937 75.8146 139.312 74.2254 141.986 73.3962C144.66 72.567 147.517 72.5336 150.21 73.3C150.79 73.4681 151.358 73.6752 151.91 73.92C152.106 74.0007 152.294 74.1012 152.47 74.22C152.47 74.27 151.67 73.87 150.15 73.5C148.021 72.9664 145.8 72.9186 143.65 73.36C140.454 74.013 137.581 75.7512 135.52 78.28C134.305 79.7518 133.397 81.4519 132.85 83.28C132.333 85.2829 131.945 87.3172 131.69 89.37C131.438 91.4634 130.815 93.4952 129.85 95.37C128.94 97.1555 127.437 98.5693 125.6 99.37C124.721 99.7045 123.778 99.8377 122.84 99.76C121.984 99.6786 121.135 99.5349 120.3 99.33C118.869 98.8756 117.337 98.8478 115.89 99.25C114.726 99.6581 113.705 100.394 112.95 101.37C112.372 102.103 111.95 102.947 111.71 103.85C111.519 104.652 111.468 105.481 111.56 106.3Z" fill="#04181F"/>
<path d="M153.77 72.82C153.881 72.4939 154.036 72.1844 154.23 71.9C154.728 71.0943 155.33 70.358 156.02 69.71C158.331 67.5801 161.193 66.1391 164.28 65.55C167.338 64.9931 170.459 64.8753 173.55 65.2C174.73 65.31 175.68 65.42 176.34 65.52C176.681 65.5386 177.018 65.6059 177.34 65.72C176.062 65.7385 174.783 65.6884 173.51 65.57C170.455 65.3562 167.385 65.5208 164.37 66.06C161.371 66.6375 158.575 67.9888 156.26 69.98C155.351 70.8546 154.518 71.8046 153.77 72.82Z" fill="#092933"/>
<path d="M162.08 63.45C162.818 63.0453 163.614 62.7553 164.44 62.59C166.4 62.0805 168.415 61.8152 170.44 61.8C171.559 61.783 172.676 61.8667 173.78 62.05C174.723 62.195 175.589 62.6529 176.24 63.35C176.679 63.8253 176.931 64.4433 176.95 65.09C176.95 65.54 176.81 65.77 176.79 65.76C176.77 65.75 176.79 65.51 176.79 65.1C176.696 64.5298 176.423 64.0044 176.01 63.6C175.386 63.0035 174.587 62.6246 173.73 62.52C172.654 62.3664 171.567 62.3028 170.48 62.33C168.494 62.3428 166.515 62.5504 164.57 62.95C163.749 63.1599 162.918 63.3268 162.08 63.45Z" fill="#092933"/>
<path d="M151.29 97.0001C151.208 96.8752 151.151 96.7361 151.12 96.5901C150.976 96.1967 150.882 95.7868 150.84 95.3701C150.689 93.8122 150.987 92.2436 151.7 90.8501C152.729 88.7807 154.28 87.0158 156.2 85.7301C158.541 84.2269 160.961 82.8516 163.45 81.6101C167.848 79.187 171.565 75.6966 174.26 71.4601C175.082 70.1841 175.804 68.8468 176.42 67.4601C176.621 66.9373 176.858 66.4294 177.13 65.9401C177.112 66.0842 177.075 66.2254 177.02 66.3601C176.93 66.6301 176.82 67.0401 176.61 67.5401C176.064 68.9718 175.394 70.3536 174.61 71.6701C171.956 76.0319 168.205 79.6213 163.73 82.0801C161.257 83.2903 158.847 84.6254 156.51 86.0801C154.637 87.3075 153.106 88.99 152.06 90.9701C151.343 92.3006 150.997 93.7998 151.06 95.3101C151.12 96.4501 151.35 97.0001 151.29 97.0001Z" fill="#092933"/>
<path d="M175 137.35C174.92 137.35 174.93 136.35 174.65 134.71C174.293 132.6 173.569 130.57 172.51 128.71C171.56 126.808 170.034 125.255 168.15 124.27C167.334 123.957 166.463 123.817 165.59 123.86C165.808 123.74 166.051 123.675 166.3 123.67C166.979 123.602 167.665 123.698 168.3 123.95C170.326 124.872 171.972 126.465 172.96 128.46C174.05 130.359 174.751 132.457 175.02 134.63C175.176 135.531 175.169 136.452 175 137.35Z" fill="#04181F"/>
<path d="M178.48 119.9L202.15 138L195.36 117L201.1 119.94C201.1 119.94 211.34 138.88 214.6 148.41C215.868 152.111 216.811 155.915 217.42 159.78C218.18 166.63 214.36 174.29 214.36 174.29L217.63 199C218.09 201.66 216.36 204.23 215.19 204.23L178.12 199.23C173.29 198.28 171.31 195.75 171.6 192.95L172.16 187.77L156.32 134.77C155.39 137.91 154.42 127.15 161.49 124.56C164.48 123.43 173.93 119 178.48 119.9Z" fill="#113946"/>
<path d="M205 130.21C205 130.21 205.12 130.33 205.3 130.59L206.07 131.72C206.73 132.72 207.67 134.14 208.78 135.95C211.787 140.61 214.206 145.625 215.98 150.88C217.739 156.187 218.121 161.855 217.09 167.35C216.758 169.004 216.238 170.614 215.54 172.15C215.31 172.7 215.06 173.09 214.92 173.37C214.854 173.513 214.77 173.648 214.67 173.77C214.67 173.77 214.92 173.16 215.36 172.07C215.979 170.523 216.445 168.918 216.75 167.28C217.661 161.833 217.236 156.246 215.51 151C213.745 145.786 211.397 140.787 208.51 136.1L205.94 131.79L205.24 130.61C205.145 130.486 205.064 130.352 205 130.21Z" fill="#04181F"/>
<path d="M208.75 195.38C208.069 196.448 207.721 197.694 207.75 198.96C207.8 199.39 208.07 199.96 208.5 199.85C208.77 199.85 208.94 199.54 209.07 199.3C211.44 195.04 213.68 191.41 216.07 187.15L215.96 186.31C213.046 188.89 210.606 191.96 208.75 195.38Z" fill="#092933"/>
<path d="M208.13 185.23C210.668 185.378 213.214 185.271 215.73 184.91L215.67 184.48C213.383 183.471 211.006 182.681 208.57 182.12C206.279 181.581 203.879 181.756 201.69 182.62C203.505 184.152 205.761 185.066 208.13 185.23Z" fill="#092933"/>
<path d="M208.32 176.86L215.45 182.86L213.88 180C212.304 177.407 210.334 175.076 208.04 173.09C207.772 172.848 207.455 172.667 207.11 172.56C206.937 172.506 206.753 172.499 206.577 172.542C206.401 172.584 206.239 172.673 206.11 172.8C205.997 172.965 205.927 173.155 205.904 173.354C205.881 173.553 205.907 173.754 205.98 173.94C206.455 175.123 207.269 176.139 208.32 176.86Z" fill="#092933"/>
<path d="M187.43 169.44C189.43 170.75 191.43 171.17 193.58 172.03H194C192.594 170.164 191.003 168.445 189.25 166.9C187.476 165.351 185.271 164.381 182.93 164.12C183.818 166.332 185.396 168.198 187.43 169.44Z" fill="#092933"/>
<path d="M192.68 163.46C193.81 166.25 194.91 168.91 196.04 171.71L196.13 168.83C195.943 165.805 195.292 162.827 194.2 160C194.069 159.666 193.876 159.361 193.63 159.1C193.501 158.973 193.339 158.884 193.163 158.842C192.987 158.799 192.803 158.806 192.63 158.86C192.455 158.951 192.305 159.083 192.194 159.245C192.082 159.407 192.012 159.594 191.99 159.79C191.854 161.055 192.094 162.331 192.68 163.46Z" fill="#092933"/>
<path d="M206.7 160.73C206.674 161.005 206.606 161.275 206.5 161.53C206.415 161.835 206.305 162.133 206.17 162.42C206.013 162.812 205.836 163.196 205.64 163.57C205.121 164.547 204.508 165.472 203.81 166.33C202.087 168.429 199.899 170.1 197.42 171.21C196.409 171.647 195.357 171.982 194.28 172.21C193.558 172.379 192.821 172.479 192.08 172.51C191.812 172.551 191.538 172.551 191.27 172.51C191.27 172.41 192.42 172.36 194.2 171.89C195.231 171.609 196.235 171.238 197.2 170.78C198.384 170.221 199.512 169.552 200.57 168.78C201.61 167.969 202.568 167.058 203.43 166.06C204.128 165.239 204.754 164.359 205.3 163.43C206.25 161.8 206.61 160.7 206.7 160.73Z" fill="#04181F"/>
<g opacity="0.3">
<path d="M189 172.88C190.627 174.032 192.564 174.666 194.557 174.698C196.55 174.73 198.507 174.159 200.17 173.06C203.73 170.83 205.46 166.98 205.92 163.06C204.163 165.997 201.689 168.439 198.729 170.156C195.769 171.874 192.421 172.811 189 172.88Z" fill="black"/>
</g>
<g opacity="0.3">
<path d="M167.06 149.24L162.56 155.64C163.5 159.19 164.74 162.53 165.68 166.07C167.729 160.705 168.208 154.867 167.06 149.24Z" fill="black"/>
</g>
<path d="M101.93 224.44L95.4601 234.72L81.13 239C81.0794 238.521 81.126 238.037 81.2669 237.576C81.4078 237.116 81.6401 236.689 81.95 236.32C82.95 235.4 78.95 236.7 78.95 236.7L75.95 242.94C75.95 242.94 73.95 242.8 74.06 241.05C74.17 239.3 76.44 233.8 76.44 233.8L77.51 233.62C77.3452 233.142 77.2964 232.631 77.3676 232.131C77.4389 231.63 77.6283 231.153 77.92 230.74C78.0293 229.019 78.5879 227.357 79.54 225.92C80.3405 224.62 81.3315 223.446 82.48 222.44L95 217.28L101.93 224.44Z" fill="#184757"/>
<path d="M91.9 232.4C90.4613 233.38 88.8928 234.154 87.24 234.7C85.6459 235.389 83.9627 235.85 82.24 236.07C82.24 235.94 84.43 235.28 87.09 234.27C89.75 233.26 91.84 232.28 91.9 232.4Z" fill="#07222B"/>
<path d="M84 231.12C82.8424 231.801 81.6112 232.347 80.33 232.75C79.107 233.295 77.8252 233.698 76.51 233.95C77.6622 233.266 78.8906 232.719 80.17 232.32C81.3967 231.775 82.6817 231.372 84 231.12Z" fill="#07222B"/>
<path d="M83.76 228C82.808 228.511 81.8262 228.966 80.82 229.36C79.8829 229.9 78.9146 230.385 77.92 230.81C79.5201 229.279 81.565 228.295 83.76 228Z" fill="#07222B"/>
<path d="M83.82 224.86C83.09 225.324 82.308 225.7 81.49 225.98C80.733 226.401 79.9314 226.737 79.1 226.98C79.7116 226.343 80.4656 225.86 81.3 225.57C82.071 225.135 82.9353 224.892 83.82 224.86Z" fill="#07222B"/>
<path d="M168.83 125.51C169.516 126.051 170.111 126.699 170.59 127.43C171.826 129.15 172.743 131.077 173.3 133.12C173.853 135.161 174.033 137.285 173.83 139.39C173.787 140.264 173.602 141.126 173.28 141.94C173.19 141.94 173.39 140.94 173.46 139.36C173.65 135.219 172.542 131.121 170.29 127.64C169.42 126.31 168.76 125.57 168.83 125.51Z" fill="#04181F"/>
<path d="M164.46 124.2C167.76 124.2 170.8 127.25 171.08 130.54C171.42 134.44 171.46 140.22 169.53 144.75C166.3 152.31 133.53 191.18 133.53 191.18L101.94 224.44L93.8 216.29C93.8 216.29 110.59 188.85 112.87 185.54C117.61 178.63 129.54 166.46 134.27 158.38C139 150.3 149.57 135.48 152.76 132.25C155.95 129.02 158.63 124.21 164.46 124.2Z" fill="#113946"/>
<path d="M144.92 162.07C143.623 162.142 142.378 162.606 141.35 163.4C141.03 163.7 140.76 164.24 141.08 164.55C141.192 164.632 141.322 164.688 141.459 164.712C141.596 164.736 141.736 164.729 141.87 164.69C146.82 164.05 151.4 163.69 156.35 163.04L156.73 162.46C152.846 161.646 148.849 161.514 144.92 162.07Z" fill="#092933"/>
<path d="M152.91 155.39C154.256 157.472 155.814 159.41 157.56 161.17L157.83 160.71C157.369 158.36 156.665 156.064 155.73 153.86C154.788 151.644 153.185 149.772 151.14 148.5C150.981 150.927 151.601 153.341 152.91 155.39Z" fill="#092933"/>
<path d="M159.92 150.08C159.72 153.15 159.55 156.08 159.35 159.17L160.7 156.57C161.881 153.7 162.606 150.664 162.85 147.57C162.886 147.202 162.845 146.831 162.73 146.48C162.669 146.306 162.561 146.152 162.418 146.036C162.275 145.919 162.103 145.845 161.92 145.82C161.719 145.828 161.522 145.885 161.348 145.986C161.174 146.087 161.027 146.229 160.92 146.4C160.231 147.501 159.883 148.782 159.92 150.08Z" fill="#092933"/>
<path d="M167 148.6C166.945 148.754 166.867 148.899 166.77 149.03C166.57 149.34 166.33 149.73 166.03 150.19C165.37 151.19 164.38 152.62 163.13 154.35C160.61 157.82 157.01 162.52 152.95 167.64C148.89 172.76 145.12 177.32 142.35 180.64C140.97 182.27 139.83 183.58 139.04 184.48L138.11 185.48C137.89 185.71 137.77 185.83 137.76 185.81C137.75 185.79 137.84 185.67 138.03 185.41L138.89 184.33L142.07 180.39L152.55 167.39C156.61 162.28 160.25 157.62 162.84 154.21C164.08 152.54 165.1 151.21 165.84 150.15C166.16 149.71 166.43 149.34 166.66 149.04C166.752 148.878 166.867 148.73 167 148.6Z" fill="#04181F"/>
<path d="M115.07 182.56C118.87 183.697 122.84 184.164 126.8 183.94C128.097 183.987 129.377 183.638 130.47 182.94C130.82 182.67 131.13 182.16 130.84 181.82C130.734 181.73 130.608 181.665 130.473 181.63C130.338 181.595 130.197 181.592 130.06 181.62C125.06 181.83 120.48 181.83 115.5 182.04" fill="#092933"/>
<path d="M118.28 189.92C117.117 187.732 115.729 185.671 114.14 183.77L113.82 184.21C114.088 186.589 114.597 188.934 115.34 191.21C116.09 193.502 117.529 195.506 119.46 196.95C119.825 194.541 119.411 192.078 118.28 189.92Z" fill="#092933"/>
<path d="M110.87 195.53C111.33 192.48 111.75 189.53 112.21 186.53L110.64 189C109.222 191.766 108.241 194.734 107.73 197.8C107.655 198.16 107.655 198.531 107.73 198.89C107.775 199.068 107.867 199.23 107.998 199.359C108.128 199.487 108.292 199.578 108.47 199.62C108.673 199.632 108.876 199.593 109.061 199.508C109.246 199.422 109.407 199.292 109.53 199.13C110.328 198.092 110.794 196.837 110.87 195.53Z" fill="#092933"/>
<path d="M352.5 15.82L357.13 21.8L358.73 31.64L362.23 29.18L365.73 34.39L396.75 5.01001L352.5 15.82Z" fill="#113946"/>
<path opacity="0.3" d="M362.18 29.2399L360.6 30.3199L359.48 24.8099L362.18 29.2399Z" fill="black"/>
<path opacity="0.3" d="M357.13 21.8L396.75 5.01001L359.72 24.25L358.73 31.64L357.13 21.8Z" fill="black"/>
<path d="M396.75 5C396.609 5.11756 396.454 5.21824 396.29 5.3L394.93 6.07L389.86 8.81L373 17.68L359.51 24.68L359.6 24.39C361.3 27.48 362.84 29.96 363.94 31.67C364.47 32.49 364.89 33.15 365.23 33.67C365.398 33.8926 365.539 34.1343 365.65 34.39C365.451 34.1922 365.274 33.9743 365.12 33.74C364.79 33.31 364.32 32.66 363.74 31.82C362.57 30.14 360.97 27.69 359.22 24.61L359.11 24.42L359.31 24.31L372.76 17.24L389.64 8.51L394.79 5.92L396.2 5.23C396.37 5.12395 396.555 5.04626 396.75 5Z" fill="#04181F"/>
<path d="M396.75 4.99995C396.81 5.12995 387.93 8.99995 376.92 13.73C365.91 18.46 356.92 22.11 356.92 21.98C356.92 21.85 365.74 17.98 376.75 13.25C387.76 8.51995 396.7 4.87995 396.75 4.99995Z" fill="#04181F"/>
<path d="M358.73 31.64C358.592 30.438 358.625 29.2225 358.83 28.03C358.869 26.8234 359.078 25.6284 359.45 24.48C359.588 25.6786 359.554 26.8908 359.35 28.08C359.317 29.2904 359.108 30.4896 358.73 31.64Z" fill="#04181F"/>
<path d="M320.7 56C320.7 56.14 320.19 56.33 319.49 56.43C318.79 56.53 318.23 56.43 318.22 56.34C318.21 56.25 318.75 56 319.42 55.91C320.09 55.82 320.67 55.84 320.7 56Z" fill="#04181F"/>
<path d="M329.61 52C329.69 52.11 328.87 52.88 327.69 53.58C327.008 54.0774 326.209 54.3908 325.37 54.49C325.31 54.35 326.27 53.81 327.42 53.13C328.085 52.6392 328.825 52.2578 329.61 52Z" fill="#04181F"/>
<path d="M336.06 44.6599C335.891 45.4853 335.512 46.2533 334.96 46.8899C334.17 48.0199 333.33 48.7599 333.22 48.6699C333.553 47.9144 333.998 47.2133 334.54 46.5899C335.31 45.4999 335.93 44.5899 336.06 44.6599Z" fill="#04181F"/>
<path d="M338.41 35.24C338.729 36.0263 338.805 36.8899 338.63 37.72C338.621 38.5688 338.372 39.3976 337.91 40.11C337.867 39.2914 337.934 38.4707 338.11 37.67C338.115 36.8511 338.216 36.0356 338.41 35.24Z" fill="#04181F"/>
<path d="M332.46 28.4799C333.311 28.3062 334.195 28.4674 334.93 28.9299C336.23 29.5799 336.81 30.6499 336.71 30.6999C336.61 30.7499 335.86 29.9699 334.71 29.3899C333.56 28.8099 332.44 28.6399 332.46 28.4799Z" fill="#04181F"/>
<path d="M324.66 33.2499C324.7 32.3867 325.056 31.5683 325.66 30.9499C326.137 30.226 326.875 29.7138 327.72 29.5199C327.8 29.6499 326.89 30.2599 326.07 31.2799C325.25 32.2999 324.8 33.2999 324.66 33.2499Z" fill="#04181F"/>
<path d="M326.27 42.5099C325.549 42.033 325.007 41.3293 324.73 40.5099C324.302 39.7695 324.133 38.9073 324.25 38.0599C324.645 38.7777 324.979 39.527 325.25 40.2999C325.75 41.5299 326.4 42.3999 326.27 42.5099Z" fill="#04181F"/>
<path d="M334.83 46.8299C334.003 47.0117 333.14 46.9456 332.35 46.6399C331.512 46.4975 330.735 46.1075 330.12 45.5199C330.931 45.6364 331.726 45.8444 332.49 46.1399C333.295 46.274 334.081 46.5057 334.83 46.8299Z" fill="#04181F"/>
<path d="M344.34 44.83C343.73 45.4015 342.983 45.8047 342.17 46C341.408 46.3656 340.561 46.5176 339.72 46.44C340.429 46.0251 341.193 45.7121 341.99 45.51C342.736 45.1694 343.528 44.9403 344.34 44.83Z" fill="#04181F"/>
<path d="M352.32 39.1399C352.42 39.2399 351.64 40.0299 350.58 40.8899C349.995 41.4811 349.294 41.9442 348.52 42.2499C348.43 42.1299 349.21 41.3399 350.26 40.4899C350.847 39.9041 351.548 39.4446 352.32 39.1399Z" fill="#04181F"/>
<path d="M357.2 33.5799C357.33 33.6399 357.2 34.2099 356.75 34.7899C356.3 35.3699 355.89 35.7199 355.75 35.6299C355.61 35.5399 355.91 35.0399 356.3 34.4899C356.69 33.9399 357.07 33.5199 357.2 33.5799Z" fill="#04181F"/>
</g>
<defs>
<clipPath id="clip0_117_945">
<rect width="397" height="427" fill="white"/>
</clipPath>
</defs>
</svg>
