<svg width="24" height="24" viewBox="0 0 24 24" fill="none" xmlns="http://www.w3.org/2000/svg">
<path d="M12 21.0769C11.4949 21.0769 11.0593 20.9019 10.6932 20.5519C10.3272 20.2019 10.1282 19.7743 10.0961 19.2692H13.9038C13.8718 19.7743 13.6727 20.2019 13.3067 20.5519C12.9407 20.9019 12.5051 21.0769 12 21.0769ZM8.25 17.8846V16.3846H15.75V17.8846H8.25ZM8.40382 15C7.35641 14.3487 6.52725 13.4977 5.91635 12.4471C5.30545 11.3964 5 10.2474 5 8.99998C5 7.05128 5.67948 5.39743 7.03845 4.03845C8.39743 2.67948 10.0513 2 12 2C13.9487 2 15.6025 2.67948 16.9615 4.03845C18.3205 5.39743 19 7.05128 19 8.99998C19 10.2474 18.6945 11.3964 18.0836 12.4471C17.4727 13.4977 16.6435 14.3487 15.5961 15H8.40382ZM8.84997 13.5H15.15C15.9 12.9666 16.4791 12.3083 16.8875 11.525C17.2958 10.7416 17.5 9.89998 17.5 8.99998C17.5 7.46664 16.9666 6.16664 15.9 5.09998C14.8333 4.03331 13.5333 3.49998 12 3.49998C10.4666 3.49998 9.16664 4.03331 8.09997 5.09998C7.03331 6.16664 6.49997 7.46664 6.49997 8.99998C6.49997 9.89998 6.70414 10.7416 7.11247 11.525C7.52081 12.3083 8.09997 12.9666 8.84997 13.5Z" fill="#FFFCF5"/>
</svg>
