<svg width="152" height="37" viewBox="0 0 152 37" fill="none" xmlns="http://www.w3.org/2000/svg">
<path d="M1.3547 22.7718C2.19948 22.7275 2.77749 22.5394 3.08872 22.2075C3.39996 21.8534 3.56669 21.3776 3.58892 20.7801C3.63338 20.1604 3.65561 19.4633 3.65561 18.6888V4.34855C3.65561 3.90595 3.66673 3.48548 3.68896 3.08714C3.71119 2.66667 3.73342 2.29046 3.75565 1.95851C3.35549 1.98064 2.95534 2.00277 2.55518 2.0249C2.15502 2.04703 1.75486 2.06916 1.3547 2.09129V0.630705L9.22448 0.597511C11.2253 0.597511 13.0593 0.829876 14.7267 1.29461C16.394 1.75934 17.8279 2.47856 19.0284 3.45228C20.2511 4.40387 21.1848 5.62102 21.8295 7.10374C22.4964 8.56432 22.8299 10.2905 22.8299 12.2822C22.8299 13.8091 22.5631 15.2697 22.0296 16.6639C21.496 18.0581 20.6957 19.2974 19.6286 20.3817C18.5615 21.444 17.2277 22.296 15.627 22.9378C14.0486 23.5574 12.2146 23.8672 10.1248 23.8672H1.3547V22.7718ZM6.55676 19.9502C6.55676 20.5477 6.54565 21.0567 6.52342 21.4772C6.52342 21.8976 6.50118 22.2517 6.45672 22.5394C7.05696 22.5615 7.60162 22.5837 8.0907 22.6058C8.60202 22.6058 9.02441 22.6058 9.35787 22.6058C9.71357 22.6058 9.93588 22.6058 10.0248 22.6058C11.4698 22.6058 12.7703 22.3403 13.9263 21.8091C15.1046 21.278 16.105 20.5477 16.9275 19.6183C17.7723 18.6667 18.417 17.5602 18.8616 16.2988C19.3285 15.0152 19.5619 13.6321 19.5619 12.1494C19.5619 10.047 19.1729 8.23237 18.3948 6.70539C17.6389 5.15629 16.4718 3.96127 14.8934 3.12033C13.315 2.25726 11.3031 1.82573 8.85767 1.82573C8.03512 1.82573 7.45712 1.9917 7.12365 2.32365C6.81242 2.6556 6.63457 3.12033 6.59011 3.71784C6.56788 4.31535 6.55676 5.01245 6.55676 5.80913V19.9502Z" fill="#FFFCF5"/>
<path d="M25.8761 23.8672V22.7718C26.7209 22.7275 27.2989 22.5394 27.6101 22.2075C27.9214 21.8534 28.0881 21.3776 28.1103 20.7801C28.1548 20.1604 28.177 19.4633 28.177 18.6888V4.34855C28.177 3.90595 28.1882 3.48548 28.2104 3.08714C28.2326 2.66667 28.2548 2.29046 28.2771 1.95851C27.8769 1.98064 27.4768 2.00277 27.0766 2.0249C26.6764 2.04703 26.2763 2.06916 25.8761 2.09129V0.630705C27.1211 0.608575 28.3771 0.586446 29.6443 0.564316C30.9337 0.542186 32.2231 0.553251 33.5125 0.597511C35.6689 0.61964 37.4029 0.874135 38.7145 1.361C40.0484 1.82573 41.0266 2.50069 41.649 3.38589C42.2715 4.24896 42.5827 5.30014 42.5827 6.53942C42.605 7.40249 42.4382 8.28769 42.0825 9.19502C41.7491 10.0802 41.1266 10.8769 40.2151 11.5851C39.3259 12.2932 38.0365 12.8243 36.3469 13.1784C36.7916 13.4882 37.1806 13.8866 37.5141 14.3734C37.8475 14.8603 38.2255 15.4246 38.6478 16.0664L40.9154 19.6183C41.2933 20.2158 41.6602 20.758 42.0159 21.2448C42.3715 21.7095 42.7828 22.0858 43.2497 22.3734C43.7165 22.639 44.2945 22.7718 44.9837 22.7718V23.8672H40.782C40.1373 23.2918 39.5927 22.7165 39.148 22.1411C38.7257 21.5657 38.281 20.9129 37.8142 20.1826L35.58 16.6307C35.291 16.166 34.9575 15.6349 34.5796 15.0373C34.2239 14.4177 33.8126 13.8976 33.3457 13.4772C32.9901 13.4993 32.6121 13.5104 32.212 13.5104C31.834 13.5104 31.4561 13.4993 31.0782 13.4772V19.917C31.0782 20.5145 31.0671 21.0346 31.0448 21.4772C31.0448 21.8976 31.0226 22.2517 30.9781 22.5394C31.2449 22.5173 31.5117 22.5062 31.7785 22.5062C32.0452 22.4841 32.312 22.462 32.5788 22.4398C32.8456 22.4177 33.1123 22.4066 33.3791 22.4066V23.8672H25.8761ZM33.1457 12.249C34.3684 12.2047 35.4355 12.0055 36.3469 11.6515C37.2806 11.2974 38.0143 10.7331 38.5478 9.95851C39.0814 9.18396 39.3481 8.16597 39.3481 6.90456C39.3481 6.06362 39.2259 5.33333 38.9813 4.71369C38.759 4.07192 38.4033 3.5408 37.9142 3.12033C37.4251 2.69986 36.8027 2.39004 36.0468 2.19087C35.291 1.96957 34.4017 1.85892 33.3791 1.85892C32.5565 1.85892 31.9785 2.0249 31.6451 2.35685C31.3338 2.6888 31.156 3.15353 31.1115 3.75104C31.0893 4.32642 31.0782 5.01245 31.0782 5.80913V12.1826C31.4339 12.2047 31.7673 12.2268 32.0786 12.249C32.412 12.2711 32.7677 12.2711 33.1457 12.249Z" fill="#FFFCF5"/>
<path d="M46.4095 23.8672V22.7718C47.0764 22.7718 47.5878 22.5947 47.9435 22.2407C48.2991 21.8866 48.5882 21.3997 48.8105 20.7801C49.055 20.1604 49.3329 19.4412 49.6441 18.6224L56.5135 0H57.3138L64.7501 18.888C64.928 19.3527 65.128 19.9502 65.3503 20.6805C65.5727 21.4108 65.6616 22.0304 65.6171 22.5394C65.995 22.5173 66.373 22.4952 66.7509 22.473C67.1288 22.4509 67.5068 22.4288 67.8847 22.4066V23.8672H60.2483V22.7718C61.0931 22.7497 61.6489 22.5615 61.9156 22.2075C62.1824 21.8534 62.2825 21.4329 62.2158 20.9461C62.1491 20.4592 62.0379 20.0166 61.8823 19.6183L60.7152 16.4979L52.0451 16.6971L50.8779 20.249C50.7223 20.7801 50.5778 21.2006 50.4444 21.5104C50.3333 21.8202 50.1999 22.1632 50.0443 22.5394C50.4889 22.5173 50.9224 22.4952 51.3448 22.473C51.7894 22.4509 52.2229 22.4288 52.6453 22.4066V23.8672H46.4095ZM52.5453 15.2697H60.2483L57.8807 8.92946C57.6362 8.24343 57.3805 7.56846 57.1138 6.90456C56.8692 6.21853 56.6247 5.5325 56.3801 4.84647H56.3134C56.0911 5.46611 55.8577 6.08575 55.6132 6.70539C55.3908 7.32503 55.1574 7.95574 54.9129 8.59751L52.5453 15.2697Z" fill="#FFFCF5"/>
<path d="M71.552 24.3983C71.0407 24.3983 70.585 24.1992 70.1848 23.8008C69.8069 23.3804 69.6179 22.8714 69.6179 22.2739C69.6179 21.6763 69.818 21.1674 70.2182 20.7469C70.6183 20.3264 71.074 20.1162 71.5854 20.1162C72.1411 20.1162 72.5969 20.3264 72.9526 20.7469C73.3305 21.1674 73.5195 21.6763 73.5195 22.2739C73.5195 22.8714 73.3194 23.3804 72.9192 23.8008C72.5191 24.1992 72.0633 24.3983 71.552 24.3983Z" fill="#FFFCF5"/>
<path d="M84.25 23.8672V22.7718C84.9169 22.7718 85.4283 22.5947 85.784 22.2407C86.1396 21.8866 86.4286 21.3997 86.651 20.7801C86.8955 20.1604 87.1734 19.4412 87.4846 18.6224L94.354 0H95.1543L102.591 18.888C102.768 19.3527 102.969 19.9502 103.191 20.6805C103.413 21.4108 103.502 22.0304 103.458 22.5394C103.836 22.5173 104.213 22.4952 104.591 22.473C104.969 22.4509 105.347 22.4288 105.725 22.4066V23.8672H98.0888V22.7718C98.9336 22.7497 99.4894 22.5615 99.7561 22.2075C100.023 21.8534 100.123 21.4329 100.056 20.9461C99.9896 20.4592 99.8784 20.0166 99.7228 19.6183L98.5557 16.4979L89.8856 16.6971L88.7184 20.249C88.5628 20.7801 88.4183 21.2006 88.2849 21.5104C88.1738 21.8202 88.0404 22.1632 87.8848 22.5394C88.3294 22.5173 88.7629 22.4952 89.1853 22.473C89.6299 22.4509 90.0634 22.4288 90.4858 22.4066V23.8672H84.25ZM90.3858 15.2697H98.0888L95.7212 8.92946C95.4767 8.24343 95.221 7.56846 94.9542 6.90456C94.7097 6.21853 94.4652 5.5325 94.2206 4.84647H94.1539C93.9316 5.46611 93.6982 6.08575 93.4537 6.70539C93.2313 7.32503 92.9979 7.95574 92.7534 8.59751L90.3858 15.2697Z" fill="#FFFCF5"/>
<path d="M125.399 24.3983L112.094 6.60581C111.894 6.34025 111.693 6.08575 111.493 5.84232C111.315 5.57676 111.127 5.3112 110.926 5.04564H110.893L110.993 19.2531C110.993 19.8064 110.993 20.3596 110.993 20.9129C110.993 21.4661 110.971 22.0083 110.926 22.5394C111.327 22.5173 111.727 22.4952 112.127 22.473C112.527 22.4509 112.927 22.4288 113.327 22.4066V23.8672H107.225V22.7718C107.914 22.7718 108.403 22.6279 108.692 22.3402C109.003 22.0304 109.204 21.6763 109.292 21.278C109.381 20.8575 109.426 20.4813 109.426 20.1494L109.459 4.18257C109.459 3.80636 109.459 3.43015 109.459 3.05394C109.459 2.67773 109.459 2.31259 109.459 1.95851C109.104 1.98064 108.737 2.00277 108.359 2.0249C107.981 2.04703 107.603 2.06916 107.225 2.09129V0.630705H111.193L123.698 17.2946C123.987 17.6708 124.265 18.047 124.532 18.4232C124.821 18.7994 125.11 19.1757 125.399 19.5519H125.432L125.466 4.34855C125.466 3.90595 125.477 3.48548 125.499 3.08714C125.521 2.66667 125.543 2.29046 125.566 1.95851C125.165 1.98064 124.765 2.00277 124.365 2.0249C123.965 2.04703 123.565 2.06916 123.165 2.09129V0.630705H129.3V1.72614C128.478 1.74827 127.911 1.93638 127.6 2.29046C127.288 2.64454 127.122 3.12033 127.1 3.71784C127.077 4.31535 127.066 5.01245 127.066 5.80913L126.999 24.3983H125.399Z" fill="#FFFCF5"/>
<path d="M130.525 23.8672V22.7718C131.192 22.7718 131.703 22.5947 132.059 22.2407C132.414 21.8866 132.703 21.3997 132.926 20.7801C133.17 20.1604 133.448 19.4412 133.759 18.6224L140.629 0H141.429L148.865 18.888C149.043 19.3527 149.243 19.9502 149.466 20.6805C149.688 21.4108 149.777 22.0304 149.732 22.5394C150.11 22.5173 150.488 22.4952 150.866 22.473C151.244 22.4509 151.622 22.4288 152 22.4066V23.8672H144.364V22.7718C145.208 22.7497 145.764 22.5615 146.031 22.2075C146.298 21.8534 146.398 21.4329 146.331 20.9461C146.264 20.4592 146.153 20.0166 145.998 19.6183L144.831 16.4979L136.16 16.6971L134.993 20.249C134.838 20.7801 134.693 21.2006 134.56 21.5104C134.449 21.8202 134.315 22.1632 134.16 22.5394C134.604 22.5173 135.038 22.4952 135.46 22.473C135.905 22.4509 136.338 22.4288 136.761 22.4066V23.8672H130.525ZM136.661 15.2697H144.364L141.996 8.92946C141.752 8.24343 141.496 7.56846 141.229 6.90456C140.985 6.21853 140.74 5.5325 140.495 4.84647H140.429C140.206 5.46611 139.973 6.08575 139.728 6.70539C139.506 7.32503 139.273 7.95574 139.028 8.59751L136.661 15.2697Z" fill="#FFFCF5"/>
<path d="M5.85648 31.8859C5.78701 31.2358 5.55776 30.731 5.16871 30.3714C4.78662 30.0118 4.29337 29.8319 3.68896 29.8319C3.32076 29.8319 2.9734 29.9115 2.64688 30.0705C2.32731 30.2227 2.04595 30.444 1.8028 30.7344C1.55965 31.0249 1.3686 31.3741 1.22965 31.7822C1.09071 32.1902 1.02124 32.6501 1.02124 33.1618C1.02124 33.8119 1.14629 34.3859 1.39639 34.8838C1.64648 35.3817 1.98342 35.769 2.4072 36.0456C2.83098 36.3223 3.29992 36.4606 3.81401 36.4606C4.26558 36.4606 4.7102 36.3603 5.14787 36.1598C5.58554 35.9523 5.94333 35.6549 6.22121 35.2676L6.49215 35.4855C6.19342 35.8935 5.87038 36.2082 5.52302 36.4295C5.17566 36.6508 4.8283 36.7994 4.48094 36.8755C4.14053 36.9585 3.8279 37 3.54307 37C3.02203 37 2.54267 36.9066 2.105 36.7199C1.67427 36.5332 1.29913 36.2739 0.979554 35.9419C0.666931 35.603 0.423779 35.2123 0.250099 34.7697C0.0833663 34.3202 0 33.8361 0 33.3174C0 32.8264 0.0729455 32.3492 0.218837 31.8859C0.371675 31.4225 0.597459 31.0041 0.896188 30.6307C1.19492 30.2573 1.57007 29.9599 2.02163 29.7386C2.48015 29.5173 3.01161 29.4066 3.61601 29.4066C4.00506 29.4066 4.37326 29.4585 4.72062 29.5622C5.06798 29.666 5.40144 29.825 5.72101 30.0394L5.66891 29.4793H6.23163V31.8859H5.85648Z" fill="#FFFCF5"/>
<path d="M8.21386 36.834V36.4917C8.47786 36.4779 8.65848 36.4191 8.75574 36.3153C8.853 36.2047 8.90511 36.056 8.91206 35.8693C8.92595 35.6757 8.9329 35.4578 8.9329 35.2158V30.7344C8.9329 30.5961 8.93637 30.4647 8.94332 30.3402C8.95027 30.2089 8.95721 30.0913 8.96416 29.9876C8.83911 29.9945 8.71406 30.0014 8.58901 30.0083C8.46396 30.0152 8.33891 30.0221 8.21386 30.029V29.5726H10.5585V29.9149C10.3015 29.9219 10.1209 29.9806 10.0167 30.0913C9.9194 30.2019 9.86382 30.3506 9.84993 30.5373C9.84298 30.7241 9.83951 30.9419 9.83951 31.1909V35.6411C9.83951 35.8278 9.83603 35.9869 9.82909 36.1183C9.82909 36.2497 9.82214 36.3603 9.80824 36.4502L11.7569 36.4191C12.1946 36.4122 12.5246 36.2739 12.7469 36.0041C12.9762 35.7344 13.0908 35.2953 13.0908 34.6867H13.4451L13.3826 36.834H8.21386Z" fill="#FFFCF5"/>
<path d="M15.9161 28.9502L15.6869 28.6494L16.9999 27.4046C17.1388 27.287 17.2569 27.2248 17.3542 27.2178C17.4584 27.2109 17.5383 27.2282 17.5939 27.2697C17.6564 27.3043 17.6911 27.3319 17.6981 27.3527C17.7189 27.3804 17.7363 27.4322 17.7502 27.5083C17.771 27.5775 17.7606 27.657 17.7189 27.7469C17.6842 27.8368 17.5869 27.9302 17.4271 28.027L15.9161 28.9502ZM17.4167 29.9149C17.1597 29.9219 16.979 29.9806 16.8748 30.0913C16.7776 30.2019 16.722 30.3506 16.7081 30.5373C16.7012 30.7241 16.6977 30.9419 16.6977 31.1909V35.5996C16.6977 35.7863 16.6942 35.9488 16.6873 36.0871C16.6873 36.2185 16.6803 36.3292 16.6664 36.4191C16.7915 36.4122 16.9165 36.4053 17.0416 36.3983C17.1666 36.3914 17.2917 36.3845 17.4167 36.3776V36.834H15.072V36.4917C15.336 36.4779 15.5167 36.4191 15.6139 36.3153C15.7112 36.2047 15.7633 36.056 15.7702 35.8693C15.7841 35.6757 15.7911 35.4578 15.7911 35.2158V30.7344C15.7911 30.5961 15.7946 30.4647 15.8015 30.3402C15.8084 30.2089 15.8154 30.0913 15.8223 29.9876C15.6973 29.9945 15.5722 30.0014 15.4472 30.0083C15.3221 30.0152 15.1971 30.0221 15.072 30.029V29.5726H17.4167V29.9149Z" fill="#FFFCF5"/>
<path d="M25.0964 37L20.9385 31.4398C20.876 31.3568 20.8135 31.2773 20.751 31.2012C20.6954 31.1183 20.6363 31.0353 20.5738 30.9523H20.5634L20.5947 35.3921C20.5947 35.565 20.5947 35.7379 20.5947 35.9108C20.5947 36.0837 20.5877 36.2531 20.5738 36.4191C20.6989 36.4122 20.8239 36.4053 20.949 36.3983C21.074 36.3914 21.1991 36.3845 21.3241 36.3776V36.834H19.4171V36.4917C19.6325 36.4917 19.7853 36.4467 19.8756 36.3568C19.9729 36.26 20.0354 36.1494 20.0632 36.0249C20.091 35.8935 20.1049 35.7759 20.1049 35.6722L20.1153 30.6826C20.1153 30.565 20.1153 30.4474 20.1153 30.3299C20.1153 30.2123 20.1153 30.0982 20.1153 29.9876C20.0041 29.9945 19.8895 30.0014 19.7714 30.0083C19.6533 30.0152 19.5352 30.0221 19.4171 30.029V29.5726H20.6572L24.565 34.7801C24.6553 34.8976 24.7421 35.0152 24.8255 35.1328C24.9158 35.2503 25.0061 35.3679 25.0964 35.4855H25.1069L25.1173 30.7344C25.1173 30.5961 25.1208 30.4647 25.1277 30.3402C25.1346 30.2089 25.1416 30.0913 25.1485 29.9876C25.0235 29.9945 24.8984 30.0014 24.7734 30.0083C24.6483 30.0152 24.5233 30.0221 24.3982 30.029V29.5726H26.3157V29.9149C26.0586 29.9219 25.8815 29.9806 25.7842 30.0913C25.687 30.2019 25.6348 30.3506 25.6279 30.5373C25.621 30.7241 25.6175 30.9419 25.6175 31.1909L25.5966 37H25.0964Z" fill="#FFFCF5"/>
<path d="M30.5123 29.9149C30.2553 29.9219 30.0746 29.9806 29.9704 30.0913C29.8732 30.2019 29.8176 30.3506 29.8037 30.5373C29.7968 30.7241 29.7933 30.9419 29.7933 31.1909V35.5996C29.7933 35.7863 29.7898 35.9488 29.7829 36.0871C29.7829 36.2185 29.7759 36.3292 29.762 36.4191C29.8871 36.4122 30.0121 36.4053 30.1372 36.3983C30.2622 36.3914 30.3873 36.3845 30.5123 36.3776V36.834H28.1676V36.4917C28.4316 36.4779 28.6123 36.4191 28.7095 36.3153C28.8068 36.2047 28.8589 36.056 28.8658 35.8693C28.8797 35.6757 28.8867 35.4578 28.8867 35.2158V30.7344C28.8867 30.5961 28.8902 30.4647 28.8971 30.3402C28.904 30.2089 28.911 30.0913 28.9179 29.9876C28.7929 29.9945 28.6678 30.0014 28.5428 30.0083C28.4177 30.0152 28.2927 30.0221 28.1676 30.029V29.5726H30.5123V29.9149Z" fill="#FFFCF5"/>
<path d="M38.163 31.8859C38.0935 31.2358 37.8642 30.731 37.4752 30.3714C37.0931 30.0118 36.5999 29.8319 35.9954 29.8319C35.6272 29.8319 35.2799 29.9115 34.9534 30.0705C34.6338 30.2227 34.3524 30.444 34.1093 30.7344C33.8661 31.0249 33.6751 31.3741 33.5361 31.7822C33.3972 32.1902 33.3277 32.6501 33.3277 33.1618C33.3277 33.8119 33.4528 34.3859 33.7029 34.8838C33.953 35.3817 34.2899 35.769 34.7137 36.0456C35.1375 36.3223 35.6064 36.4606 36.1205 36.4606C36.5721 36.4606 37.0167 36.3603 37.4544 36.1598C37.892 35.9523 38.2498 35.6549 38.5277 35.2676L38.7986 35.4855C38.4999 35.8935 38.1769 36.2082 37.8295 36.4295C37.4821 36.6508 37.1348 36.7994 36.7874 36.8755C36.447 36.9585 36.1344 37 35.8496 37C35.3285 37 34.8492 36.9066 34.4115 36.7199C33.9808 36.5332 33.6056 36.2739 33.286 35.9419C32.9734 35.603 32.7303 35.2123 32.5566 34.7697C32.3899 34.3202 32.3065 33.8361 32.3065 33.3174C32.3065 32.8264 32.3794 32.3492 32.5253 31.8859C32.6782 31.4225 32.9039 31.0041 33.2027 30.6307C33.5014 30.2573 33.8766 29.9599 34.3281 29.7386C34.7866 29.5173 35.3181 29.4066 35.9225 29.4066C36.3115 29.4066 36.6797 29.4585 37.0271 29.5622C37.3745 29.666 37.7079 29.825 38.0275 30.0394L37.9754 29.4793H38.5381V31.8859H38.163Z" fill="#FFFCF5"/>
<path d="M39.7829 36.834V36.4917C39.9913 36.4917 40.1511 36.4364 40.2623 36.3257C40.3734 36.2151 40.4637 36.0629 40.5332 35.8693C40.6096 35.6757 40.6965 35.4509 40.7937 35.195L42.9404 29.3755H43.1905L45.5144 35.278C45.5699 35.4232 45.6325 35.61 45.7019 35.8382C45.7714 36.0664 45.7992 36.26 45.7853 36.4191C45.9034 36.4122 46.0215 36.4053 46.1396 36.3983C46.2577 36.3914 46.3758 36.3845 46.4939 36.3776V36.834H44.1075V36.4917C44.3715 36.4848 44.5452 36.426 44.6286 36.3153C44.712 36.2047 44.7432 36.0733 44.7224 35.9212C44.7015 35.769 44.6668 35.6307 44.6182 35.5062L44.2534 34.5311L41.544 34.5934L41.1793 35.7033C41.1307 35.8693 41.0855 36.0007 41.0438 36.0975C41.0091 36.1943 40.9674 36.3015 40.9188 36.4191C41.0577 36.4122 41.1932 36.4053 41.3252 36.3983C41.4641 36.3914 41.5996 36.3845 41.7316 36.3776V36.834H39.7829ZM41.7003 34.1473H44.1075L43.3677 32.166C43.2913 31.9516 43.2114 31.7407 43.128 31.5332C43.0516 31.3188 42.9752 31.1044 42.8987 30.89H42.8779C42.8084 31.0837 42.7355 31.2773 42.6591 31.471C42.5896 31.6646 42.5166 31.8617 42.4402 32.0622L41.7003 34.1473Z" fill="#FFFCF5"/>
<path d="M51.3466 36.4917C51.6106 36.4779 51.7912 36.4191 51.8885 36.3153C51.9857 36.2047 52.0378 36.056 52.0448 35.8693C52.0587 35.6757 52.0656 35.4578 52.0656 35.2158V30.7344C52.0656 30.5961 52.0691 30.4647 52.076 30.3402C52.083 30.2089 52.0899 30.0913 52.0969 29.9876C51.9718 29.9945 51.8468 30.0014 51.7217 30.0083C51.5967 30.0152 51.4716 30.0221 51.3466 30.029V29.5726L53.8059 29.5622C54.4311 29.5622 55.0043 29.6349 55.5253 29.7801C56.0464 29.9253 56.4944 30.1501 56.8696 30.4544C57.2517 30.7517 57.5435 31.1321 57.7449 31.5954C57.9534 32.0519 58.0576 32.5913 58.0576 33.2137C58.0576 33.6909 57.9742 34.1473 57.8075 34.583C57.6407 35.0187 57.3906 35.4059 57.0572 35.7448C56.7237 36.0768 56.3069 36.343 55.8067 36.5436C55.3134 36.7372 54.7403 36.834 54.0872 36.834H51.3466V36.4917ZM52.9722 35.61C52.9722 35.7967 52.9687 35.9557 52.9618 36.0871C52.9618 36.2185 52.9548 36.3292 52.941 36.4191C53.1285 36.426 53.2987 36.4329 53.4516 36.4398C53.6114 36.4398 53.7434 36.4398 53.8476 36.4398C53.9587 36.4398 54.0282 36.4398 54.056 36.4398C54.5075 36.4398 54.914 36.3568 55.2752 36.1909C55.6434 36.0249 55.956 35.7967 56.2131 35.5062C56.4771 35.2089 56.6785 34.8631 56.8175 34.4689C56.9634 34.0678 57.0363 33.6355 57.0363 33.1722C57.0363 32.5152 56.9148 31.9481 56.6716 31.471C56.4354 30.9869 56.0707 30.6134 55.5774 30.3506C55.0842 30.0809 54.4554 29.9461 53.6913 29.9461C53.4342 29.9461 53.2536 29.9979 53.1494 30.1017C53.0521 30.2054 52.9965 30.3506 52.9826 30.5373C52.9757 30.7241 52.9722 30.9419 52.9722 31.1909V35.61Z" fill="#FFFCF5"/>
<path d="M63.4696 34.1473C63.4696 33.843 63.4279 33.6252 63.3446 33.4938C63.2612 33.3624 63.1292 33.2828 62.9486 33.2552C62.768 33.2275 62.5283 33.2206 62.2295 33.2344L61.4688 33.2656V35.6411C61.4688 35.8278 61.4654 35.9869 61.4584 36.1183C61.4584 36.2497 61.4515 36.3603 61.4376 36.4502L63.4279 36.4191C63.7336 36.4122 63.9976 36.3638 64.2199 36.2739C64.4422 36.177 64.6159 36.0111 64.741 35.7759C64.866 35.5408 64.9285 35.2192 64.9285 34.8112H65.2828L65.2203 36.834H59.8432V36.4917C60.1072 36.4779 60.2878 36.4191 60.3851 36.3153C60.4823 36.2047 60.5344 36.056 60.5414 35.8693C60.5553 35.6757 60.5622 35.4578 60.5622 35.2158V30.7344C60.5622 30.5961 60.5657 30.4647 60.5726 30.3402C60.5796 30.2089 60.5865 30.0913 60.5935 29.9876C60.4684 29.9945 60.3434 30.0014 60.2183 30.0083C60.0933 30.0152 59.9682 30.0221 59.8432 30.029V29.5726H64.8556L64.9077 31.388H64.5638C64.5638 30.9799 64.5013 30.6722 64.3762 30.4647C64.2512 30.2503 64.081 30.1086 63.8656 30.0394C63.6572 29.9633 63.421 29.9288 63.157 29.9357L62.2608 29.9564C62.0038 29.9633 61.8197 30.0118 61.7085 30.1017C61.5974 30.1916 61.5279 30.3264 61.5001 30.5062C61.4792 30.6791 61.4688 30.9073 61.4688 31.1909V32.8506L63.4279 32.861L63.355 31.9689H63.8135V34.1473H63.4696Z" fill="#FFFCF5"/>
<path d="M67.1593 36.834V36.4917C67.4233 36.4779 67.6039 36.4191 67.7012 36.3153C67.7985 36.2047 67.8506 36.056 67.8575 35.8693C67.8714 35.6757 67.8783 35.4578 67.8783 35.2158V30.7344C67.8783 30.5961 67.8818 30.4647 67.8888 30.3402C67.8957 30.2089 67.9027 30.0913 67.9096 29.9876C67.7846 29.9945 67.6595 30.0014 67.5345 30.0083C67.4094 30.0152 67.2844 30.0221 67.1593 30.029V29.5726C67.5483 29.5657 67.9409 29.5588 68.3369 29.5519C68.7398 29.545 69.1427 29.5484 69.5457 29.5622C70.2195 29.5692 70.7614 29.6487 71.1713 29.8008C71.5882 29.9461 71.8938 30.157 72.0883 30.4336C72.2829 30.7033 72.3801 31.0318 72.3801 31.4191C72.3871 31.6888 72.335 31.9654 72.2238 32.249C72.1196 32.5256 71.9251 32.7745 71.6403 32.9958C71.3624 33.2171 70.9594 33.3831 70.4314 33.4938C70.5704 33.5906 70.692 33.7151 70.7962 33.8672C70.9004 34.0194 71.0185 34.1957 71.1505 34.3963L71.8591 35.5062C71.9772 35.6929 72.0918 35.8624 72.203 36.0145C72.3141 36.1598 72.4427 36.2773 72.5885 36.3672C72.7344 36.4502 72.9151 36.4917 73.1304 36.4917V36.834H71.8174C71.6159 36.6542 71.4457 36.4744 71.3068 36.2946C71.1748 36.1148 71.0358 35.9108 70.89 35.6826L70.1918 34.5726C70.1014 34.4274 69.9972 34.2614 69.8791 34.0747C69.768 33.8811 69.6395 33.7185 69.4936 33.5871C69.3824 33.5941 69.2643 33.5975 69.1393 33.5975C69.0212 33.5975 68.9031 33.5941 68.785 33.5871V35.5996C68.785 35.7863 68.7815 35.9488 68.7745 36.0871C68.7745 36.2185 68.7676 36.3292 68.7537 36.4191C68.8371 36.4122 68.9204 36.4087 69.0038 36.4087C69.0872 36.4018 69.1705 36.3949 69.2539 36.388C69.3373 36.3811 69.4206 36.3776 69.504 36.3776V36.834H67.1593ZM69.431 33.2033C69.8131 33.1895 70.1466 33.1272 70.4314 33.0166C70.7232 32.9059 70.9525 32.7296 71.1192 32.4876C71.2859 32.2455 71.3693 31.9274 71.3693 31.5332C71.3693 31.2704 71.3311 31.0422 71.2547 30.8485C71.1852 30.648 71.0741 30.482 70.9212 30.3506C70.7684 30.2192 70.5739 30.1224 70.3377 30.0602C70.1014 29.991 69.8236 29.9564 69.504 29.9564C69.2469 29.9564 69.0663 30.0083 68.9621 30.112C68.8648 30.2158 68.8093 30.361 68.7954 30.5477C68.7884 30.7275 68.785 30.9419 68.785 31.1909V33.1826C68.8961 33.1895 69.0003 33.1964 69.0976 33.2033C69.2018 33.2102 69.3129 33.2102 69.431 33.2033Z" fill="#FFFCF5"/>
<path d="M78.4651 36.9378C78.1595 36.2462 77.8503 35.5581 77.5377 34.8734C77.2251 34.1819 76.9194 33.4834 76.6207 32.778C76.5234 32.5567 76.4261 32.3354 76.3289 32.1141C76.2386 31.8859 76.1483 31.6577 76.0579 31.4295C75.9746 31.2012 75.8877 30.973 75.7974 30.7448C75.7974 30.8209 75.7939 30.897 75.787 30.973C75.787 31.0491 75.787 31.1252 75.787 31.2012C75.7801 31.4502 75.7696 31.751 75.7557 32.1037C75.7488 32.4495 75.7384 32.823 75.7245 33.2241C75.7106 33.6183 75.7001 34.0159 75.6932 34.417C75.6863 34.8112 75.6793 35.1846 75.6724 35.5373C75.6654 35.6895 75.6585 35.8416 75.6515 35.9938C75.6515 36.1459 75.6446 36.2877 75.6307 36.4191C75.7627 36.4122 75.8912 36.4053 76.0163 36.3983C76.1483 36.3914 76.2802 36.3845 76.4122 36.3776V36.834H74.4219V36.4917C74.6372 36.4848 74.7935 36.4398 74.8908 36.3568C74.995 36.2669 75.061 36.1494 75.0888 36.0041C75.1166 35.8589 75.134 35.7033 75.1409 35.5373L75.3389 30.8071C75.3458 30.6687 75.3493 30.5304 75.3493 30.3921C75.3563 30.2538 75.3632 30.1189 75.3702 29.9876C75.2451 29.9945 75.1201 30.0014 74.995 30.0083C74.87 30.0083 74.7449 30.0118 74.6199 30.0187V29.5726H76.2142L78.0066 33.6909C78.0969 33.8983 78.1838 34.1058 78.2671 34.3133C78.3575 34.5207 78.4478 34.7282 78.5381 34.9357C78.6353 35.1432 78.7291 35.3541 78.8194 35.5685H78.8403C78.9167 35.3817 79.007 35.1604 79.1112 34.9046C79.2154 34.6418 79.3023 34.417 79.3717 34.2303C79.6774 33.4696 79.9935 32.7089 80.32 31.9481C80.6535 31.1805 80.98 30.3887 81.2996 29.5726H82.8419V29.9149C82.6682 29.908 82.5258 29.9426 82.4146 30.0187C82.3035 30.0878 82.2236 30.2054 82.1749 30.3714C82.1263 30.5373 82.1089 30.7621 82.1228 31.0456L82.3938 35.7656C82.4077 35.8831 82.4146 35.9972 82.4146 36.1079C82.4146 36.2185 82.4146 36.3188 82.4146 36.4087C82.5397 36.4018 82.6647 36.3983 82.7898 36.3983C82.9218 36.3914 83.0503 36.3845 83.1753 36.3776V36.834H80.8411V36.4917C81.0564 36.4848 81.2162 36.4329 81.3204 36.3361C81.4246 36.2393 81.4872 36.101 81.508 35.9212C81.5358 35.7414 81.5427 35.5201 81.5289 35.2573L81.3204 31.834C81.3135 31.7234 81.3065 31.6127 81.2996 31.5021C81.2926 31.3914 81.2857 31.2808 81.2787 31.1701C81.2718 31.0595 81.2649 30.9488 81.2579 30.8382C81.2371 30.8866 81.2128 30.9384 81.185 30.9938C81.1641 31.0491 81.1433 31.1079 81.1224 31.1701L78.7778 36.9378H78.4651Z" fill="#FFFCF5"/>
<path d="M84.3005 36.834V36.4917C84.5089 36.4917 84.6687 36.4364 84.7798 36.3257C84.891 36.2151 84.9813 36.0629 85.0507 35.8693C85.1272 35.6757 85.214 35.4509 85.3113 35.195L87.458 29.3755H87.7081L90.0319 35.278C90.0875 35.4232 90.15 35.61 90.2195 35.8382C90.2889 36.0664 90.3167 36.26 90.3028 36.4191C90.4209 36.4122 90.539 36.4053 90.6571 36.3983C90.7752 36.3914 90.8933 36.3845 91.0114 36.3776V36.834H88.6251V36.4917C88.8891 36.4848 89.0628 36.426 89.1461 36.3153C89.2295 36.2047 89.2607 36.0733 89.2399 35.9212C89.2191 35.769 89.1843 35.6307 89.1357 35.5062L88.771 34.5311L86.0616 34.5934L85.6968 35.7033C85.6482 35.8693 85.6031 36.0007 85.5614 36.0975C85.5266 36.1943 85.4849 36.3015 85.4363 36.4191C85.5753 36.4122 85.7107 36.4053 85.8427 36.3983C85.9817 36.3914 86.1171 36.3845 86.2491 36.3776V36.834H84.3005ZM86.2179 34.1473H88.6251L87.8852 32.166C87.8088 31.9516 87.7289 31.7407 87.6455 31.5332C87.5691 31.3188 87.4927 31.1044 87.4163 30.89H87.3954C87.326 31.0837 87.253 31.2773 87.1766 31.471C87.1071 31.6646 87.0342 31.8617 86.9578 32.0622L86.2179 34.1473Z" fill="#FFFCF5"/>
<path d="M97.499 31.7614C97.4921 31.3534 97.4504 31.0145 97.374 30.7448C97.2976 30.4751 97.1621 30.2745 96.9676 30.1432C96.78 30.0048 96.5056 29.9391 96.1443 29.9461H95.2586L95.2481 35.5996C95.2481 35.7863 95.2447 35.9488 95.2377 36.0871C95.2377 36.2185 95.2308 36.3292 95.2169 36.4191C95.3628 36.4122 95.5052 36.4053 95.6441 36.3983C95.79 36.3914 95.9359 36.3845 96.0818 36.3776V36.834H93.6329V36.4917C93.8969 36.4779 94.0741 36.4156 94.1644 36.305C94.2616 36.1943 94.3138 36.0456 94.3207 35.8589C94.3346 35.6653 94.3415 35.4509 94.3415 35.2158L94.352 29.9564L93.2786 29.9668C92.8409 29.9668 92.5318 30.112 92.3512 30.4025C92.1705 30.6929 92.0802 31.1459 92.0802 31.7614H91.6947L91.7572 29.5726H97.8325L97.895 31.7614H97.499Z" fill="#FFFCF5"/>
<path d="M103.154 37C102.494 37 101.928 36.8893 101.455 36.668C100.983 36.4467 100.597 36.1528 100.299 35.7863C100.007 35.4129 99.7914 35.0014 99.6525 34.5519C99.5135 34.1024 99.4441 33.6528 99.4441 33.2033C99.4441 32.7676 99.517 32.3285 99.6629 31.8859C99.8088 31.4364 100.031 31.0249 100.33 30.6515C100.635 30.278 101.014 29.9772 101.466 29.749C101.924 29.5207 102.459 29.4066 103.07 29.4066C103.71 29.4066 104.262 29.5207 104.727 29.749C105.193 29.9772 105.575 30.2815 105.874 30.6618C106.179 31.0353 106.405 31.4433 106.551 31.8859C106.704 32.3285 106.78 32.7676 106.78 33.2033C106.78 33.6321 106.707 34.0712 106.561 34.5207C106.416 34.9633 106.19 35.3748 105.884 35.7552C105.585 36.1286 105.21 36.4295 104.759 36.6577C104.307 36.8859 103.772 37 103.154 37ZM103.175 36.5747C103.605 36.5747 103.981 36.4848 104.3 36.305C104.62 36.1183 104.884 35.8728 105.092 35.5685C105.307 35.2573 105.467 34.9149 105.571 34.5415C105.683 34.1611 105.738 33.7808 105.738 33.4004C105.738 32.9716 105.679 32.5463 105.561 32.1245C105.443 31.7026 105.269 31.3188 105.04 30.973C104.811 30.6272 104.526 30.3506 104.186 30.1432C103.852 29.9288 103.47 29.8216 103.039 29.8216C102.608 29.8216 102.23 29.9149 101.903 30.1017C101.584 30.2884 101.316 30.5373 101.101 30.8485C100.893 31.1528 100.733 31.4952 100.622 31.8755C100.517 32.249 100.465 32.6293 100.465 33.0166C100.465 33.397 100.517 33.7946 100.622 34.2095C100.733 34.6245 100.899 35.0118 101.122 35.3714C101.344 35.731 101.625 36.0214 101.966 36.2427C102.306 36.464 102.709 36.5747 103.175 36.5747Z" fill="#FFFCF5"/>
<path d="M108.553 36.834V36.4917C108.817 36.4779 108.998 36.4191 109.095 36.3153C109.193 36.2047 109.245 36.056 109.252 35.8693C109.266 35.6757 109.272 35.4578 109.272 35.2158V30.7344C109.272 30.5961 109.276 30.4647 109.283 30.3402C109.29 30.2089 109.297 30.0913 109.304 29.9876C109.179 29.9945 109.054 30.0014 108.929 30.0083C108.804 30.0152 108.679 30.0221 108.553 30.029V29.5726H110.898V29.9149C110.641 29.9219 110.46 29.9806 110.356 30.0913C110.259 30.2019 110.203 30.3506 110.19 30.5373C110.183 30.7241 110.179 30.9419 110.179 31.1909V35.6411C110.179 35.8278 110.176 35.9869 110.169 36.1183C110.169 36.2497 110.162 36.3603 110.148 36.4502L112.097 36.4191C112.534 36.4122 112.864 36.2739 113.087 36.0041C113.316 35.7344 113.43 35.2953 113.43 34.6867H113.785L113.722 36.834H108.553Z" fill="#FFFCF5"/>
<path d="M118.324 28.9502L118.095 28.6494L119.408 27.4046C119.547 27.287 119.665 27.2248 119.762 27.2178C119.866 27.2109 119.946 27.2282 120.002 27.2697C120.064 27.3043 120.099 27.3319 120.106 27.3527C120.127 27.3804 120.144 27.4322 120.158 27.5083C120.179 27.5775 120.168 27.657 120.127 27.7469C120.092 27.8368 119.995 27.9302 119.835 28.027L118.324 28.9502ZM118.824 37C118.164 37 117.598 36.8893 117.126 36.668C116.653 36.4467 116.268 36.1528 115.969 35.7863C115.677 35.4129 115.462 35.0014 115.323 34.5519C115.184 34.1024 115.114 33.6528 115.114 33.2033C115.114 32.7676 115.187 32.3285 115.333 31.8859C115.479 31.4364 115.701 31.0249 116 30.6515C116.306 30.278 116.684 29.9772 117.136 29.749C117.594 29.5207 118.129 29.4066 118.741 29.4066C119.38 29.4066 119.932 29.5207 120.398 29.749C120.863 29.9772 121.245 30.2815 121.544 30.6618C121.85 31.0353 122.075 31.4433 122.221 31.8859C122.374 32.3285 122.451 32.7676 122.451 33.2033C122.451 33.6321 122.378 34.0712 122.232 34.5207C122.086 34.9633 121.86 35.3748 121.554 35.7552C121.256 36.1286 120.881 36.4295 120.429 36.6577C119.977 36.8859 119.442 37 118.824 37ZM118.845 36.5747C119.276 36.5747 119.651 36.4848 119.97 36.305C120.29 36.1183 120.554 35.8728 120.762 35.5685C120.978 35.2573 121.138 34.9149 121.242 34.5415C121.353 34.1611 121.408 33.7808 121.408 33.4004C121.408 32.9716 121.349 32.5463 121.231 32.1245C121.113 31.7026 120.94 31.3188 120.71 30.973C120.481 30.6272 120.196 30.3506 119.856 30.1432C119.522 29.9288 119.14 29.8216 118.709 29.8216C118.279 29.8216 117.9 29.9149 117.574 30.1017C117.254 30.2884 116.987 30.5373 116.771 30.8485C116.563 31.1528 116.403 31.4952 116.292 31.8755C116.188 32.249 116.136 32.6293 116.136 33.0166C116.136 33.397 116.188 33.7946 116.292 34.2095C116.403 34.6245 116.57 35.0118 116.792 35.3714C117.014 35.731 117.296 36.0214 117.636 36.2427C117.977 36.464 118.38 36.5747 118.845 36.5747Z" fill="#FFFCF5"/>
<path d="M127.775 37C127.08 37 126.465 36.8548 125.931 36.5643C125.396 36.2739 124.979 35.8555 124.68 35.3091C124.381 34.7628 124.232 34.1127 124.232 33.3589C124.232 32.8679 124.305 32.3907 124.451 31.9274C124.604 31.4571 124.829 31.0318 125.128 30.6515C125.434 30.2711 125.812 29.9703 126.264 29.749C126.723 29.5207 127.254 29.4066 127.858 29.4066C128.108 29.4066 128.362 29.4308 128.619 29.4793C128.876 29.5207 129.123 29.5864 129.359 29.6763C129.602 29.7593 129.821 29.8596 130.015 29.9772L129.974 29.4793H130.547V31.8548H130.172C130.144 31.4191 130.026 31.0526 129.817 30.7552C129.616 30.4509 129.352 30.2192 129.026 30.0602C128.699 29.9011 128.334 29.8216 127.931 29.8216C127.563 29.8216 127.216 29.9046 126.889 30.0705C126.57 30.2296 126.285 30.4578 126.035 30.7552C125.792 31.0456 125.601 31.3914 125.462 31.7925C125.323 32.1936 125.253 32.6362 125.253 33.1203C125.253 33.7704 125.371 34.3513 125.607 34.8631C125.844 35.3748 126.17 35.7759 126.587 36.0664C127.011 36.3568 127.497 36.5021 128.046 36.5021C128.234 36.5021 128.428 36.4848 128.63 36.4502C128.838 36.4156 129.043 36.3603 129.244 36.2842C129.453 36.2012 129.647 36.101 129.828 35.9834V34.7178C129.828 34.5519 129.828 34.3859 129.828 34.2199C129.828 34.047 129.828 33.8776 129.828 33.7116C129.71 33.7185 129.588 33.7254 129.463 33.7324C129.338 33.7393 129.217 33.7462 129.098 33.7531V33.2967H131.454V33.639C131.259 33.639 131.11 33.6909 131.005 33.7946C130.901 33.8914 130.828 34.0124 130.787 34.1577C130.745 34.296 130.721 34.4343 130.714 34.5726C130.707 34.704 130.703 34.8043 130.703 34.8734V36.4606H130.422C130.311 36.4606 130.158 36.4813 129.963 36.5228C129.769 36.5643 129.547 36.6335 129.296 36.7303C129.081 36.8133 128.831 36.879 128.546 36.9274C128.261 36.9758 128.004 37 127.775 37Z" fill="#FFFCF5"/>
<path d="M135.421 29.9149C135.164 29.9219 134.984 29.9806 134.879 30.0913C134.782 30.2019 134.726 30.3506 134.713 30.5373C134.706 30.7241 134.702 30.9419 134.702 31.1909V35.5996C134.702 35.7863 134.699 35.9488 134.692 36.0871C134.692 36.2185 134.685 36.3292 134.671 36.4191C134.796 36.4122 134.921 36.4053 135.046 36.3983C135.171 36.3914 135.296 36.3845 135.421 36.3776V36.834H133.077V36.4917C133.34 36.4779 133.521 36.4191 133.618 36.3153C133.716 36.2047 133.768 36.056 133.775 35.8693C133.789 35.6757 133.796 35.4578 133.796 35.2158V30.7344C133.796 30.5961 133.799 30.4647 133.806 30.3402C133.813 30.2089 133.82 30.0913 133.827 29.9876C133.702 29.9945 133.577 30.0014 133.452 30.0083C133.327 30.0152 133.202 30.0221 133.077 30.029V29.5726H135.421V29.9149Z" fill="#FFFCF5"/>
<path d="M143.072 31.8859C143.002 31.2358 142.773 30.731 142.384 30.3714C142.002 30.0118 141.509 29.8319 140.904 29.8319C140.536 29.8319 140.189 29.9115 139.862 30.0705C139.543 30.2227 139.261 30.444 139.018 30.7344C138.775 31.0249 138.584 31.3741 138.445 31.7822C138.306 32.1902 138.237 32.6501 138.237 33.1618C138.237 33.8119 138.362 34.3859 138.612 34.8838C138.862 35.3817 139.199 35.769 139.623 36.0456C140.046 36.3223 140.515 36.4606 141.029 36.4606C141.481 36.4606 141.926 36.3603 142.363 36.1598C142.801 35.9523 143.159 35.6549 143.437 35.2676L143.708 35.4855C143.409 35.8935 143.086 36.2082 142.738 36.4295C142.391 36.6508 142.044 36.7994 141.696 36.8755C141.356 36.9585 141.043 37 140.758 37C140.237 37 139.758 36.9066 139.32 36.7199C138.89 36.5332 138.514 36.2739 138.195 35.9419C137.882 35.603 137.639 35.2123 137.465 34.7697C137.299 34.3202 137.215 33.8361 137.215 33.3174C137.215 32.8264 137.288 32.3492 137.434 31.8859C137.587 31.4225 137.813 31.0041 138.112 30.6307C138.41 30.2573 138.785 29.9599 139.237 29.7386C139.696 29.5173 140.227 29.4066 140.831 29.4066C141.22 29.4066 141.589 29.4585 141.936 29.5622C142.283 29.666 142.617 29.825 142.936 30.0394L142.884 29.4793H143.447V31.8859H143.072Z" fill="#FFFCF5"/>
<path d="M144.692 36.834V36.4917C144.9 36.4917 145.06 36.4364 145.171 36.3257C145.282 36.2151 145.373 36.0629 145.442 35.8693C145.518 35.6757 145.605 35.4509 145.703 35.195L147.849 29.3755H148.099L150.423 35.278C150.479 35.4232 150.541 35.61 150.611 35.8382C150.68 36.0664 150.708 36.26 150.694 36.4191C150.812 36.4122 150.93 36.4053 151.048 36.3983C151.167 36.3914 151.285 36.3845 151.403 36.3776V36.834H149.016V36.4917C149.28 36.4848 149.454 36.426 149.537 36.3153C149.621 36.2047 149.652 36.0733 149.631 35.9212C149.61 35.769 149.576 35.6307 149.527 35.5062L149.162 34.5311L146.453 34.5934L146.088 35.7033C146.04 35.8693 145.994 36.0007 145.953 36.0975C145.918 36.1943 145.876 36.3015 145.828 36.4191C145.967 36.4122 146.102 36.4053 146.234 36.3983C146.373 36.3914 146.508 36.3845 146.64 36.3776V36.834H144.692ZM146.609 34.1473H149.016L148.277 32.166C148.2 31.9516 148.12 31.7407 148.037 31.5332C147.96 31.3188 147.884 31.1044 147.808 30.89H147.787C147.717 31.0837 147.644 31.2773 147.568 31.471C147.498 31.6646 147.426 31.8617 147.349 32.0622L146.609 34.1473Z" fill="#FFFCF5"/>
</svg>
