<svg width="223" height="54" viewBox="0 0 223 54" fill="none" xmlns="http://www.w3.org/2000/svg">
<path d="M1.98749 33.2345C3.22687 33.1699 4.07487 32.8954 4.53148 32.4109C4.98809 31.8941 5.23271 31.1997 5.26532 30.3277C5.33055 29.4233 5.36317 28.406 5.36317 27.2755V6.34653C5.36317 5.70057 5.37948 5.08691 5.41209 4.50555C5.44471 3.89189 5.47732 3.34283 5.50994 2.85836C4.92286 2.89066 4.33579 2.92296 3.74872 2.95525C3.16164 2.98755 2.57457 3.01985 1.98749 3.05215V0.920489L13.5333 0.872042C16.4687 0.872042 19.1594 1.21117 21.6056 1.88943C24.0517 2.56768 26.1554 3.61736 27.9166 5.03847C29.7105 6.42727 31.0803 8.20366 32.0261 10.3676C33.0046 12.4993 33.4938 15.0185 33.4938 17.9253C33.4938 20.1539 33.1024 22.2855 32.3197 24.3203C31.5369 26.3551 30.3628 28.1637 28.7972 29.7463C27.2317 31.2966 25.2748 32.5401 22.9265 33.4767C20.6108 34.3811 17.92 34.8332 14.8542 34.8332H1.98749V33.2345ZM9.61946 29.1165C9.61946 29.9886 9.60315 30.7314 9.57054 31.3451C9.57054 31.9587 9.53792 32.4755 9.47269 32.8954C10.3533 32.9277 11.1524 32.96 11.8699 32.9923C12.6201 32.9923 13.2398 32.9923 13.729 32.9923C14.2508 32.9923 14.577 32.9923 14.7074 32.9923C16.8274 32.9923 18.7354 32.6047 20.4314 31.8295C22.16 31.0544 23.6277 29.9886 24.8345 28.632C26.0739 27.2432 27.0197 25.6283 27.672 23.7874C28.3569 21.9141 28.6994 19.8955 28.6994 17.7315C28.6994 14.6632 28.1286 12.0148 26.9871 9.78625C25.8782 7.5254 24.1659 5.78132 21.8502 4.554C19.5345 3.29438 16.5828 2.66457 12.9951 2.66457C11.7884 2.66457 10.9404 2.90681 10.4511 3.39127C9.99454 3.87574 9.73361 4.554 9.66838 5.42604C9.63577 6.29808 9.61946 7.31546 9.61946 8.47819V29.1165Z" fill="#04181F"/>
<path d="M37.963 34.8332V33.2345C39.2024 33.1699 40.0504 32.8954 40.507 32.4109C40.9636 31.8941 41.2082 31.1997 41.2408 30.3277C41.3061 29.4233 41.3387 28.406 41.3387 27.2755V6.34653C41.3387 5.70057 41.355 5.08691 41.3876 4.50555C41.4202 3.89189 41.4528 3.34283 41.4855 2.85836C40.8984 2.89066 40.3113 2.92296 39.7242 2.95525C39.1372 2.98755 38.5501 3.01985 37.963 3.05215V0.920489C39.7895 0.888191 41.6322 0.855894 43.4913 0.823596C45.383 0.791299 47.2747 0.807447 49.1663 0.872042C52.33 0.90434 54.874 1.27577 56.7983 1.98632C58.7552 2.66457 60.1903 3.64966 61.1035 4.94157C62.0168 6.20119 62.4734 7.73534 62.4734 9.54402C62.506 10.8036 62.2614 12.0955 61.7395 13.4198C61.2503 14.7117 60.3371 15.8744 58.9998 16.9079C57.6952 17.9415 55.8035 18.7166 53.3248 19.2334C53.9771 19.6855 54.5479 20.2669 55.0371 20.9775C55.5263 21.688 56.0808 22.5116 56.7005 23.4482L60.0272 28.632C60.5817 29.5041 61.1198 30.2954 61.6417 31.0059C62.1635 31.6842 62.7669 32.2333 63.4518 32.6531C64.1367 33.0407 64.9847 33.2345 65.9958 33.2345V34.8332H59.8315C58.8857 33.9935 58.0866 33.1538 57.4343 32.314C56.8146 31.4743 56.1623 30.5215 55.4774 29.4556L52.1996 24.2718C51.7756 23.5936 51.2863 22.8184 50.7319 21.9464C50.21 21.0421 49.6066 20.2831 48.9217 19.6694C48.3999 19.7017 47.8454 19.7178 47.2584 19.7178C46.7039 19.7178 46.1494 19.7017 45.595 19.6694V29.0681C45.595 29.9401 45.5787 30.6991 45.5461 31.3451C45.5461 31.9587 45.5134 32.4755 45.4482 32.8954C45.8396 32.8631 46.231 32.8469 46.6224 32.8469C47.0137 32.8146 47.4051 32.7823 47.7965 32.75C48.1879 32.7177 48.5793 32.7016 48.9706 32.7016V34.8332H37.963ZM48.6282 17.8769C50.422 17.8123 51.9876 17.5216 53.3248 17.0048C54.6946 16.4881 55.7709 15.6645 56.5537 14.534C57.3365 13.4036 57.7278 11.9179 57.7278 10.0769C57.7278 8.84961 57.5485 7.78378 57.1897 6.87944C56.8635 5.94281 56.3417 5.16766 55.6242 4.554C54.9066 3.94034 53.9934 3.48817 52.8845 3.19749C51.7756 2.87451 50.471 2.71302 48.9706 2.71302C47.7639 2.71302 46.9159 2.95525 46.4267 3.43972C45.97 3.92419 45.7091 4.60245 45.6439 5.47449C45.6113 6.31423 45.595 7.31546 45.595 8.47819V17.78C46.1168 17.8123 46.606 17.8446 47.0627 17.8769C47.5519 17.9092 48.0737 17.9092 48.6282 17.8769Z" fill="#04181F"/>
<path d="M68.0876 34.8332V33.2345C69.0661 33.2345 69.8163 32.9761 70.3381 32.4593C70.8599 31.9426 71.2839 31.232 71.6101 30.3277C71.9689 29.4233 72.3765 28.3737 72.8332 27.1786L82.9113 0H84.0854L94.9952 27.5662C95.2561 28.2445 95.5497 29.1165 95.8758 30.1823C96.202 31.2482 96.3325 32.1525 96.2672 32.8954C96.8217 32.8631 97.3761 32.8308 97.9306 32.7985C98.4851 32.7662 99.0395 32.7339 99.594 32.7016V34.8332H88.3906V33.2345C89.63 33.2022 90.4454 32.9277 90.8368 32.4109C91.2282 31.8941 91.3749 31.2805 91.2771 30.5699C91.1792 29.8594 91.0162 29.2134 90.7879 28.632L89.0756 24.0781L76.3556 24.3687L74.6433 29.5525C74.415 30.3277 74.203 30.9413 74.0073 31.3935C73.8442 31.8457 73.6485 32.3463 73.4202 32.8954C74.0725 32.8631 74.7085 32.8308 75.3282 32.7985C75.9805 32.7662 76.6165 32.7339 77.2362 32.7016V34.8332H68.0876ZM77.0895 22.2855H88.3906L84.9171 13.0322C84.5583 12.031 84.1833 11.0459 83.7919 10.0769C83.4331 9.0757 83.0744 8.07446 82.7156 7.07323H82.6177C82.2916 7.97757 81.9491 8.88191 81.5904 9.78625C81.2642 10.6906 80.9217 11.6111 80.563 12.5477L77.0895 22.2855Z" fill="#04181F"/>
<path d="M104.974 35.6084C104.224 35.6084 103.556 35.3177 102.969 34.7363C102.414 34.1227 102.137 33.3798 102.137 32.5078C102.137 31.6358 102.43 30.8929 103.017 30.2792C103.605 29.6656 104.273 29.3588 105.023 29.3588C105.839 29.3588 106.507 29.6656 107.029 30.2792C107.584 30.8929 107.861 31.6358 107.861 32.5078C107.861 33.3798 107.567 34.1227 106.98 34.7363C106.393 35.3177 105.724 35.6084 104.974 35.6084Z" fill="#04181F"/>
<path d="M123.604 34.8332V33.2345C124.582 33.2345 125.332 32.9761 125.854 32.4593C126.376 31.9426 126.8 31.232 127.126 30.3277C127.485 29.4233 127.893 28.3737 128.349 27.1786L138.427 0H139.601L150.511 27.5662C150.772 28.2445 151.066 29.1165 151.392 30.1823C151.718 31.2482 151.848 32.1525 151.783 32.8954C152.338 32.8631 152.892 32.8308 153.447 32.7985C154.001 32.7662 154.556 32.7339 155.11 32.7016V34.8332H143.907V33.2345C145.146 33.2022 145.961 32.9277 146.353 32.4109C146.744 31.8941 146.891 31.2805 146.793 30.5699C146.695 29.8594 146.532 29.2134 146.304 28.632L144.592 24.0781L131.872 24.3687L130.159 29.5525C129.931 30.3277 129.719 30.9413 129.523 31.3935C129.36 31.8457 129.165 32.3463 128.936 32.8954C129.589 32.8631 130.225 32.8308 130.844 32.7985C131.497 32.7662 132.133 32.7339 132.752 32.7016V34.8332H123.604ZM132.605 22.2855H143.907L140.433 13.0322C140.074 12.031 139.699 11.0459 139.308 10.0769C138.949 9.0757 138.59 8.07446 138.232 7.07323H138.134C137.808 7.97757 137.465 8.88191 137.106 9.78625C136.78 10.6906 136.438 11.6111 136.079 12.5477L132.605 22.2855Z" fill="#04181F"/>
<path d="M183.973 35.6084L164.453 9.64091C164.16 9.25334 163.866 8.88191 163.572 8.52663C163.312 8.13906 163.034 7.75149 162.741 7.36391H162.692L162.839 28.0991C162.839 28.9066 162.839 29.714 162.839 30.5215C162.839 31.3289 162.806 32.1202 162.741 32.8954C163.328 32.8631 163.915 32.8308 164.502 32.7985C165.089 32.7662 165.676 32.7339 166.263 32.7016V34.8332H157.31V33.2345C158.321 33.2345 159.039 33.0246 159.463 32.6047C159.92 32.1525 160.213 31.6357 160.344 31.0544C160.474 30.4407 160.539 29.8917 160.539 29.4072L160.588 6.10429C160.588 5.55523 160.588 5.00617 160.588 4.4571C160.588 3.90804 160.588 3.37513 160.588 2.85836C160.066 2.89066 159.528 2.92296 158.974 2.95525C158.419 2.98755 157.865 3.01985 157.31 3.05215V0.920489H163.132L181.478 25.2408C181.902 25.7898 182.31 26.3389 182.701 26.888C183.125 27.437 183.549 27.9861 183.973 28.5352H184.022L184.071 6.34653C184.071 5.70057 184.087 5.08691 184.12 4.50555C184.153 3.89189 184.185 3.34283 184.218 2.85836C183.631 2.89066 183.044 2.92296 182.457 2.95525C181.87 2.98755 181.283 3.01985 180.695 3.05215V0.920489H189.697V2.51923C188.491 2.55153 187.659 2.82606 187.202 3.34283C186.746 3.85959 186.501 4.554 186.468 5.42604C186.436 6.29808 186.419 7.31546 186.419 8.47819L186.322 35.6084H183.973Z" fill="#04181F"/>
<path d="M191.494 34.8332V33.2345C192.472 33.2345 193.222 32.9761 193.744 32.4593C194.266 31.9426 194.69 31.232 195.016 30.3277C195.375 29.4233 195.783 28.3737 196.239 27.1786L206.317 0H207.491L218.401 27.5662C218.662 28.2445 218.956 29.1165 219.282 30.1823C219.608 31.2482 219.738 32.1525 219.673 32.8954C220.228 32.8631 220.782 32.8308 221.337 32.7985C221.891 32.7662 222.446 32.7339 223 32.7016V34.8332H211.797V33.2345C213.036 33.2022 213.851 32.9277 214.243 32.4109C214.634 31.8941 214.781 31.2805 214.683 30.5699C214.585 29.8594 214.422 29.2134 214.194 28.632L212.482 24.0781L199.762 24.3687L198.049 29.5525C197.821 30.3277 197.609 30.9413 197.413 31.3935C197.25 31.8457 197.055 32.3463 196.826 32.8954C197.479 32.8631 198.115 32.8308 198.734 32.7985C199.387 32.7662 200.023 32.7339 200.642 32.7016V34.8332H191.494ZM200.495 22.2855H211.797L208.323 13.0322C207.964 12.031 207.589 11.0459 207.198 10.0769C206.839 9.0757 206.48 8.07446 206.122 7.07323H206.024C205.698 7.97757 205.355 8.88191 204.996 9.78625C204.67 10.6906 204.328 11.6111 203.969 12.5477L200.495 22.2855Z" fill="#04181F"/>
<path d="M8.59208 46.5362C8.49016 45.5874 8.15381 44.8506 7.58305 44.3258C7.02247 43.8009 6.29882 43.5385 5.41209 43.5385C4.8719 43.5385 4.36229 43.6546 3.88325 43.8867C3.41441 44.1088 3.00162 44.4318 2.64489 44.8557C2.28816 45.2796 2.00788 45.7893 1.80403 46.3848C1.60019 46.9803 1.49826 47.6514 1.49826 48.3983C1.49826 49.3471 1.68172 50.1848 2.04865 50.9115C2.41557 51.6382 2.90989 52.2034 3.53162 52.6072C4.15335 53.0109 4.84133 53.2127 5.59555 53.2127C6.25805 53.2127 6.91036 53.0664 7.55247 52.7737C8.19458 52.4709 8.71948 52.0369 9.12717 51.4717L9.52467 51.7896C9.08641 52.3851 8.61246 52.8443 8.10285 53.1673C7.59324 53.4903 7.08362 53.7073 6.57401 53.8183C6.07459 53.9394 5.61594 54 5.19806 54C4.43364 54 3.73037 53.8637 3.08826 53.5912C2.45634 53.3187 1.90595 52.9402 1.43711 52.4558C0.978457 51.9612 0.621728 51.3909 0.366922 50.745C0.122307 50.0889 0 49.3824 0 48.6254C0 47.9088 0.107019 47.2124 0.321056 46.5362C0.545286 45.8599 0.876535 45.2493 1.3148 44.7043C1.75307 44.1592 2.30345 43.7252 2.96595 43.4023C3.63864 43.0793 4.41835 42.9178 5.30507 42.9178C5.87584 42.9178 6.41603 42.9935 6.92564 43.1449C7.43526 43.2963 7.92449 43.5284 8.39333 43.8413L8.31689 43.0238H9.14246V46.5362H8.59208Z" fill="#04181F"/>
<path d="M12.0506 53.7578V53.2582C12.4379 53.238 12.7029 53.1522 12.8456 53.0008C12.9883 52.8393 13.0647 52.6223 13.0749 52.3498C13.0953 52.0672 13.1055 51.7492 13.1055 51.396V44.8557C13.1055 44.6538 13.1106 44.462 13.1208 44.2804C13.131 44.0886 13.1412 43.917 13.1514 43.7656C12.9679 43.7757 12.7844 43.7858 12.601 43.7959C12.4175 43.806 12.2341 43.8161 12.0506 43.8262V43.16H15.4905V43.6596C15.1134 43.6697 14.8484 43.7555 14.6955 43.917C14.5528 44.0785 14.4713 44.2955 14.4509 44.568C14.4407 44.8405 14.4356 45.1585 14.4356 45.5218V52.0167C14.4356 52.2892 14.4305 52.5214 14.4203 52.7131C14.4203 52.9049 14.4101 53.0664 14.3897 53.1976L17.2487 53.1522C17.8908 53.1421 18.3749 52.9402 18.7011 52.5466C19.0374 52.153 19.2056 51.5121 19.2056 50.6239H19.7254L19.6336 53.7578H12.0506Z" fill="#04181F"/>
<path d="M23.3506 42.2517L23.0143 41.8126L24.9406 39.9958C25.1445 39.8243 25.3177 39.7334 25.4604 39.7233C25.6133 39.7132 25.7305 39.7385 25.8121 39.799C25.9038 39.8495 25.9548 39.8899 25.965 39.9201C25.9955 39.9605 26.021 40.0362 26.0414 40.1472C26.072 40.2482 26.0567 40.3642 25.9955 40.4955C25.9446 40.6267 25.8019 40.7629 25.5675 40.9042L23.3506 42.2517ZM25.5522 43.6596C25.1751 43.6697 24.9101 43.7555 24.7572 43.917C24.6145 44.0785 24.5329 44.2955 24.5126 44.568C24.5024 44.8405 24.4973 45.1585 24.4973 45.5218V51.9561C24.4973 52.2287 24.4922 52.4658 24.482 52.6677C24.482 52.8595 24.4718 53.021 24.4514 53.1522C24.6349 53.1421 24.8183 53.132 25.0018 53.1219C25.1852 53.1118 25.3687 53.1017 25.5522 53.0916V53.7578H22.1123V53.2582C22.4996 53.238 22.7646 53.1522 22.9073 53.0008C23.05 52.8393 23.1264 52.6223 23.1366 52.3498C23.157 52.0672 23.1672 51.7492 23.1672 51.396V44.8557C23.1672 44.6538 23.1723 44.462 23.1825 44.2804C23.1927 44.0886 23.2029 43.917 23.213 43.7656C23.0296 43.7757 22.8461 43.7858 22.6627 43.7959C22.4792 43.806 22.2957 43.8161 22.1123 43.8262V43.16H25.5522V43.6596Z" fill="#04181F"/>
<path d="M36.8191 54L30.719 45.8852C30.6273 45.764 30.5356 45.648 30.4439 45.5369C30.3623 45.4158 30.2757 45.2947 30.184 45.1736H30.1687L30.2145 51.6534C30.2145 51.9057 30.2145 52.158 30.2145 52.4103C30.2145 52.6627 30.2043 52.9099 30.184 53.1522C30.3674 53.1421 30.5509 53.132 30.7343 53.1219C30.9178 53.1118 31.1013 53.1017 31.2847 53.0916V53.7578H28.4869V53.2582C28.8029 53.2582 29.0271 53.1925 29.1596 53.0613C29.3023 52.92 29.3941 52.7585 29.4348 52.5769C29.4756 52.3851 29.496 52.2135 29.496 52.0621L29.5113 44.78C29.5113 44.6084 29.5113 44.4368 29.5113 44.2652C29.5113 44.0936 29.5113 43.9271 29.5113 43.7656C29.3482 43.7757 29.18 43.7858 29.0068 43.7959C28.8335 43.806 28.6602 43.8161 28.4869 43.8262V43.16H30.3063L36.0394 50.7601C36.1719 50.9317 36.2993 51.1033 36.4216 51.2749C36.5541 51.4464 36.6866 51.618 36.8191 51.7896H36.8344L36.8497 44.8557C36.8497 44.6538 36.8548 44.462 36.865 44.2804C36.8752 44.0886 36.8854 43.917 36.8956 43.7656C36.7121 43.7757 36.5286 43.7858 36.3452 43.7959C36.1617 43.806 35.9783 43.8161 35.7948 43.8262V43.16H38.6079V43.6596C38.2307 43.6697 37.9708 43.7555 37.8282 43.917C37.6855 44.0785 37.609 44.2955 37.5988 44.568C37.5886 44.8405 37.5835 45.1585 37.5835 45.5218L37.553 54H36.8191Z" fill="#04181F"/>
<path d="M44.7648 43.6596C44.3877 43.6697 44.1227 43.7555 43.9698 43.917C43.8271 44.0785 43.7456 44.2955 43.7252 44.568C43.715 44.8405 43.7099 45.1585 43.7099 45.5218V51.9561C43.7099 52.2287 43.7048 52.4658 43.6946 52.6677C43.6946 52.8595 43.6844 53.021 43.664 53.1522C43.8475 53.1421 44.0309 53.132 44.2144 53.1219C44.3979 53.1118 44.5813 53.1017 44.7648 53.0916V53.7578H41.3249V53.2582C41.7122 53.238 41.9772 53.1522 42.1199 53.0008C42.2626 52.8393 42.339 52.6223 42.3492 52.3498C42.3696 52.0672 42.3798 51.7492 42.3798 51.396V44.8557C42.3798 44.6538 42.3849 44.462 42.3951 44.2804C42.4053 44.0886 42.4155 43.917 42.4257 43.7656C42.2422 43.7757 42.0587 43.7858 41.8753 43.7959C41.6918 43.806 41.5084 43.8161 41.3249 43.8262V43.16H44.7648V43.6596Z" fill="#04181F"/>
<path d="M55.9891 46.5362C55.8872 45.5874 55.5508 44.8506 54.9801 44.3258C54.4195 43.8009 53.6958 43.5385 52.8091 43.5385C52.2689 43.5385 51.7593 43.6546 51.2803 43.8867C50.8114 44.1088 50.3986 44.4318 50.0419 44.8557C49.6852 45.2796 49.4049 45.7893 49.2011 46.3848C48.9972 46.9803 48.8953 47.6514 48.8953 48.3983C48.8953 49.3471 49.0787 50.1848 49.4457 50.9115C49.8126 51.6382 50.3069 52.2034 50.9286 52.6072C51.5504 53.0109 52.2383 53.2127 52.9926 53.2127C53.6551 53.2127 54.3074 53.0664 54.9495 52.7737C55.5916 52.4709 56.1165 52.0369 56.5242 51.4717L56.9217 51.7896C56.4834 52.3851 56.0095 52.8443 55.4999 53.1673C54.9903 53.4903 54.4806 53.7073 53.971 53.8183C53.4716 53.9394 53.013 54 52.5951 54C51.8307 54 51.1274 53.8637 50.4853 53.5912C49.8534 53.3187 49.303 52.9402 48.8341 52.4558C48.3755 51.9612 48.0187 51.3909 47.7639 50.745C47.5193 50.0889 47.397 49.3824 47.397 48.6254C47.397 47.9088 47.504 47.2124 47.7181 46.5362C47.9423 45.8599 48.2736 45.2493 48.7118 44.7043C49.1501 44.1592 49.7005 43.7252 50.363 43.4023C51.0357 43.0793 51.8154 42.9178 52.7021 42.9178C53.2729 42.9178 53.813 42.9935 54.3227 43.1449C54.8323 43.2963 55.3215 43.5284 55.7904 43.8413L55.7139 43.0238H56.5395V46.5362H55.9891Z" fill="#04181F"/>
<path d="M58.3657 53.7578V53.2582C58.6715 53.2582 58.9059 53.1774 59.069 53.0159C59.2321 52.8544 59.3646 52.6324 59.4665 52.3498C59.5786 52.0672 59.706 51.7391 59.8487 51.3657L62.9981 42.8724H63.365L66.7743 51.4868C66.8559 51.6988 66.9476 51.9713 67.0495 52.3044C67.1515 52.6374 67.1922 52.92 67.1719 53.1522C67.3451 53.1421 67.5184 53.132 67.6917 53.1219C67.8649 53.1118 68.0382 53.1017 68.2115 53.0916V53.7578H64.7104V53.2582C65.0977 53.2481 65.3525 53.1623 65.4748 53.0008C65.5971 52.8393 65.643 52.6475 65.6124 52.4255C65.5819 52.2034 65.5309 52.0016 65.4595 51.8199L64.9245 50.3968L60.9495 50.4876L60.4144 52.1075C60.343 52.3498 60.2768 52.5415 60.2156 52.6828C60.1647 52.8242 60.1035 52.9806 60.0322 53.1522C60.236 53.1421 60.4348 53.132 60.6284 53.1219C60.8323 53.1118 61.031 53.1017 61.2247 53.0916V53.7578H58.3657ZM61.1788 49.8366H64.7104L63.6249 46.9449C63.5128 46.632 63.3956 46.3242 63.2733 46.0214C63.1612 45.7085 63.0491 45.3956 62.937 45.0828H62.9064C62.8045 45.3654 62.6974 45.648 62.5853 45.9306C62.4834 46.2132 62.3764 46.5008 62.2643 46.7935L61.1788 49.8366Z" fill="#04181F"/>
<path d="M75.3308 53.2582C75.7181 53.238 75.9831 53.1522 76.1258 53.0008C76.2685 52.8393 76.345 52.6223 76.3552 52.3498C76.3755 52.0672 76.3857 51.7492 76.3857 51.396V44.8557C76.3857 44.6538 76.3908 44.462 76.401 44.2804C76.4112 44.0886 76.4214 43.917 76.4316 43.7656C76.2481 43.7757 76.0647 43.7858 75.8812 43.7959C75.6978 43.806 75.5143 43.8161 75.3308 43.8262V43.16L78.9389 43.1449C79.8562 43.1449 80.6971 43.2509 81.4615 43.4628C82.2259 43.6748 82.8833 44.0028 83.4337 44.4469C83.9943 44.8809 84.4223 45.436 84.7179 46.1123C85.0237 46.7784 85.1766 47.5657 85.1766 48.474C85.1766 49.1705 85.0543 49.8366 84.8096 50.4725C84.565 51.1083 84.1981 51.6735 83.7089 52.1681C83.2197 52.6526 82.6081 53.0412 81.8743 53.3339C81.1506 53.6165 80.3098 53.7578 79.3517 53.7578H75.3308V53.2582ZM77.7158 51.9713C77.7158 52.2438 77.7107 52.4759 77.7005 52.6677C77.7005 52.8595 77.6903 53.021 77.67 53.1522C77.9452 53.1623 78.1949 53.1724 78.4191 53.1825C78.6535 53.1825 78.8472 53.1825 79.0001 53.1825C79.1631 53.1825 79.2651 53.1825 79.3058 53.1825C79.9683 53.1825 80.5646 53.0613 81.0946 52.8191C81.6348 52.5769 82.0934 52.2438 82.4705 51.8199C82.8578 51.3859 83.1534 50.8812 83.3572 50.3059C83.5713 49.7205 83.6783 49.0897 83.6783 48.4135C83.6783 47.4546 83.4999 46.627 83.1432 45.9306C82.7967 45.2241 82.2616 44.679 81.5379 44.2955C80.8143 43.9019 79.8919 43.7051 78.7707 43.7051C78.3936 43.7051 78.1286 43.7808 77.9757 43.9321C77.833 44.0835 77.7515 44.2955 77.7311 44.568C77.7209 44.8405 77.7158 45.1585 77.7158 45.5218V51.9713Z" fill="#04181F"/>
<path d="M93.1166 49.8366C93.1166 49.3925 93.0555 49.0746 92.9332 48.8828C92.8109 48.691 92.6172 48.575 92.3522 48.5346C92.0872 48.4942 91.7356 48.4841 91.2973 48.5043L90.1813 48.5497V52.0167C90.1813 52.2892 90.1761 52.5214 90.166 52.7131C90.166 52.9049 90.1558 53.0664 90.1354 53.1976L93.0555 53.1522C93.5039 53.1421 93.8912 53.0714 94.2174 52.9402C94.5435 52.7989 94.7983 52.5567 94.9818 52.2135C95.1653 51.8704 95.257 51.401 95.257 50.8055H95.7768L95.6851 53.7578H87.7963V53.2582C88.1836 53.238 88.4486 53.1522 88.5913 53.0008C88.7339 52.8393 88.8104 52.6223 88.8206 52.3498C88.841 52.0672 88.8512 51.7492 88.8512 51.396V44.8557C88.8512 44.6538 88.8563 44.462 88.8664 44.2804C88.8766 44.0886 88.8868 43.917 88.897 43.7656C88.7136 43.7757 88.5301 43.7858 88.3466 43.7959C88.1632 43.806 87.9797 43.8161 87.7963 43.8262V43.16H95.15L95.2264 45.8095H94.7219C94.7219 45.214 94.6302 44.7648 94.4467 44.462C94.2632 44.1492 94.0135 43.9422 93.6976 43.8413C93.3918 43.7303 93.0453 43.6798 92.658 43.6899L91.3432 43.7202C90.966 43.7303 90.696 43.8009 90.5329 43.9321C90.3698 44.0634 90.2679 44.2602 90.2271 44.5226C90.1965 44.7749 90.1813 45.108 90.1813 45.5218V47.9441L93.0555 47.9593L92.9484 46.6573H93.6211V49.8366H93.1166Z" fill="#04181F"/>
<path d="M98.5298 53.7578V53.2582C98.9171 53.238 99.1821 53.1522 99.3248 53.0008C99.4675 52.8393 99.5439 52.6223 99.5541 52.3498C99.5745 52.0672 99.5847 51.7492 99.5847 51.396V44.8557C99.5847 44.6538 99.5898 44.462 99.6 44.2804C99.6102 44.0886 99.6204 43.917 99.6305 43.7656C99.4471 43.7757 99.2636 43.7858 99.0802 43.7959C98.8967 43.806 98.7132 43.8161 98.5298 43.8262V43.16C99.1005 43.1499 99.6764 43.1398 100.257 43.1297C100.849 43.1197 101.44 43.1247 102.031 43.1449C103.019 43.155 103.814 43.271 104.416 43.4931C105.027 43.7051 105.476 44.0129 105.761 44.4166C106.047 44.8102 106.189 45.2897 106.189 45.8549C106.199 46.2485 106.123 46.6522 105.96 47.0661C105.807 47.4698 105.522 47.8331 105.104 48.1561C104.696 48.4791 104.105 48.7213 103.33 48.8828C103.534 49.0241 103.713 49.2058 103.865 49.4278C104.018 49.6499 104.192 49.9072 104.385 50.2L105.425 51.8199C105.598 52.0924 105.766 52.3397 105.929 52.5617C106.092 52.7737 106.281 52.9453 106.495 53.0765C106.709 53.1976 106.974 53.2582 107.29 53.2582V53.7578H105.364C105.068 53.4953 104.818 53.2329 104.615 52.9705C104.421 52.7081 104.217 52.4103 104.003 52.0773L102.979 50.4573C102.846 50.2454 102.693 50.0031 102.52 49.7306C102.357 49.448 102.168 49.2108 101.954 49.0191C101.791 49.0292 101.618 49.0342 101.435 49.0342C101.261 49.0342 101.088 49.0292 100.915 49.0191V51.9561C100.915 52.2287 100.91 52.4658 100.899 52.6677C100.899 52.8595 100.889 53.021 100.869 53.1522C100.991 53.1421 101.114 53.137 101.236 53.137C101.358 53.1269 101.48 53.1169 101.603 53.1068C101.725 53.0967 101.847 53.0916 101.97 53.0916V53.7578H98.5298ZM101.863 48.4589C102.423 48.4387 102.912 48.3479 103.33 48.1864C103.758 48.0249 104.095 47.7675 104.339 47.4143C104.584 47.061 104.706 46.5967 104.706 46.0214C104.706 45.6379 104.65 45.3048 104.538 45.0222C104.436 44.7295 104.273 44.4873 104.049 44.2955C103.825 44.1037 103.539 43.9624 103.193 43.8716C102.846 43.7707 102.439 43.7202 101.97 43.7202C101.593 43.7202 101.328 43.7959 101.175 43.9473C101.032 44.0987 100.95 44.3106 100.93 44.5832C100.92 44.8456 100.915 45.1585 100.915 45.5218V48.4286C101.078 48.4387 101.231 48.4488 101.373 48.4589C101.526 48.469 101.689 48.469 101.863 48.4589Z" fill="#04181F"/>
<path d="M115.117 53.9092C114.668 52.8998 114.215 51.8956 113.756 50.8964C113.297 49.8871 112.849 48.8677 112.411 47.8382C112.268 47.5152 112.125 47.1922 111.982 46.8692C111.85 46.5362 111.718 46.2031 111.585 45.87C111.463 45.5369 111.335 45.2039 111.203 44.8708C111.203 44.9818 111.198 45.0929 111.188 45.2039C111.188 45.3149 111.188 45.4259 111.188 45.5369C111.177 45.9003 111.162 46.3393 111.142 46.8541C111.131 47.3587 111.116 47.9038 111.096 48.4892C111.075 49.0645 111.06 49.6448 111.05 50.2302C111.04 50.8055 111.03 51.3506 111.019 51.8653C111.009 52.0874 110.999 52.3094 110.989 52.5315C110.989 52.7535 110.979 52.9604 110.958 53.1522C111.152 53.1421 111.34 53.132 111.524 53.1219C111.718 53.1118 111.911 53.1017 112.105 53.0916V53.7578H109.185V53.2582C109.501 53.2481 109.73 53.1825 109.873 53.0613C110.026 52.9301 110.122 52.7585 110.163 52.5466C110.204 52.3346 110.229 52.1075 110.24 51.8653L110.53 44.9616C110.54 44.7598 110.545 44.5579 110.545 44.3561C110.556 44.1542 110.566 43.9574 110.576 43.7656C110.393 43.7757 110.209 43.7858 110.026 43.7959C109.842 43.7959 109.659 43.8009 109.475 43.811V43.16H111.814L114.444 49.1705C114.576 49.4732 114.704 49.776 114.826 50.0788C114.959 50.3816 115.091 50.6844 115.224 50.9872C115.366 51.29 115.504 51.5978 115.636 51.9107H115.667C115.779 51.6382 115.912 51.3152 116.065 50.9418C116.217 50.5583 116.345 50.2302 116.447 49.9577C116.895 48.8475 117.359 47.7372 117.838 46.627C118.327 45.5067 118.806 44.351 119.275 43.16H121.538V43.6596C121.283 43.6495 121.074 43.7 120.911 43.811C120.748 43.912 120.631 44.0835 120.559 44.3258C120.488 44.568 120.462 44.896 120.483 45.3099L120.88 52.1984C120.901 52.37 120.911 52.5365 120.911 52.698C120.911 52.8595 120.911 53.0058 120.911 53.137C121.094 53.1269 121.278 53.1219 121.461 53.1219C121.655 53.1118 121.844 53.1017 122.027 53.0916V53.7578H118.602V53.2582C118.918 53.2481 119.153 53.1724 119.306 53.0311C119.459 52.8898 119.55 52.6879 119.581 52.4255C119.622 52.1631 119.632 51.8401 119.611 51.4565L119.306 46.4605C119.295 46.299 119.285 46.1375 119.275 45.976C119.265 45.8145 119.255 45.653 119.244 45.4915C119.234 45.33 119.224 45.1685 119.214 45.0071C119.183 45.0777 119.148 45.1534 119.107 45.2342C119.076 45.3149 119.046 45.4007 119.015 45.4915L115.575 53.9092H115.117Z" fill="#04181F"/>
<path d="M123.678 53.7578V53.2582C123.983 53.2582 124.218 53.1774 124.381 53.0159C124.544 52.8544 124.676 52.6324 124.778 52.3498C124.891 52.0672 125.018 51.7391 125.161 51.3657L128.31 42.8724H128.677L132.086 51.4868C132.168 51.6988 132.26 51.9713 132.361 52.3044C132.463 52.6374 132.504 52.92 132.484 53.1522C132.657 53.1421 132.83 53.132 133.004 53.1219C133.177 53.1118 133.35 53.1017 133.523 53.0916V53.7578H130.022V53.2582C130.41 53.2481 130.664 53.1623 130.787 53.0008C130.909 52.8393 130.955 52.6475 130.924 52.4255C130.894 52.2034 130.843 52.0016 130.771 51.8199L130.236 50.3968L126.261 50.4876L125.726 52.1075C125.655 52.3498 125.589 52.5415 125.528 52.6828C125.477 52.8242 125.415 52.9806 125.344 53.1522C125.548 53.1421 125.747 53.132 125.94 53.1219C126.144 53.1118 126.343 53.1017 126.537 53.0916V53.7578H123.678ZM126.491 49.8366H130.022L128.937 46.9449C128.825 46.632 128.708 46.3242 128.585 46.0214C128.473 45.7085 128.361 45.3956 128.249 45.0828H128.218C128.116 45.3654 128.009 45.648 127.897 45.9306C127.795 46.2132 127.688 46.5008 127.576 46.7935L126.491 49.8366Z" fill="#04181F"/>
<path d="M143.041 46.3545C143.031 45.759 142.97 45.2644 142.858 44.8708C142.746 44.4772 142.547 44.1845 142.262 43.9927C141.986 43.7908 141.584 43.695 141.054 43.7051H139.754L139.739 51.9561C139.739 52.2287 139.734 52.4658 139.724 52.6677C139.724 52.8595 139.714 53.021 139.693 53.1522C139.907 53.1421 140.116 53.132 140.32 53.1219C140.534 53.1118 140.748 53.1017 140.962 53.0916V53.7578H137.369V53.2582C137.757 53.238 138.017 53.1471 138.149 52.9856C138.292 52.8242 138.368 52.6072 138.378 52.3346C138.399 52.052 138.409 51.7391 138.409 51.396L138.424 43.7202L136.85 43.7353C136.207 43.7353 135.754 43.9473 135.489 44.3712C135.224 44.7951 135.091 45.4562 135.091 46.3545H134.526L134.617 43.16H143.531L143.622 46.3545H143.041Z" fill="#04181F"/>
<path d="M151.338 54C150.369 54 149.539 53.8385 148.846 53.5155C148.152 53.1925 147.587 52.7636 147.149 52.2287C146.72 51.6836 146.405 51.0831 146.201 50.427C145.997 49.771 145.895 49.1149 145.895 48.4589C145.895 47.823 146.002 47.1821 146.216 46.5362C146.43 45.8801 146.756 45.2796 147.194 44.7345C147.643 44.1895 148.198 43.7505 148.861 43.4174C149.534 43.0843 150.318 42.9178 151.215 42.9178C152.153 42.9178 152.963 43.0843 153.646 43.4174C154.329 43.7505 154.89 44.1946 155.328 44.7497C155.776 45.2947 156.108 45.8902 156.322 46.5362C156.546 47.1821 156.658 47.823 156.658 48.4589C156.658 49.0847 156.551 49.7256 156.337 50.3816C156.123 51.0276 155.792 51.6281 155.343 52.1832C154.905 52.7283 154.354 53.1673 153.692 53.5004C153.029 53.8335 152.245 54 151.338 54ZM151.368 53.3793C152 53.3793 152.55 53.2481 153.019 52.9856C153.488 52.7131 153.875 52.3548 154.181 51.9107C154.497 51.4565 154.732 50.9569 154.884 50.4119C155.048 49.8568 155.129 49.3017 155.129 48.7465C155.129 48.1208 155.042 47.5 154.869 46.8844C154.696 46.2687 154.441 45.7085 154.105 45.2039C153.768 44.6992 153.351 44.2955 152.851 43.9927C152.362 43.6798 151.801 43.5234 151.169 43.5234C150.537 43.5234 149.982 43.6596 149.503 43.9321C149.034 44.2047 148.642 44.568 148.326 45.0222C148.02 45.4663 147.786 45.9659 147.622 46.521C147.47 47.066 147.393 47.6212 147.393 48.1864C147.393 48.7415 147.47 49.3219 147.622 49.9274C147.786 50.533 148.03 51.0982 148.356 51.6231C148.682 52.1479 149.095 52.5718 149.595 52.8948C150.094 53.2178 150.685 53.3793 151.368 53.3793Z" fill="#04181F"/>
<path d="M159.259 53.7578V53.2582C159.647 53.238 159.912 53.1522 160.054 53.0008C160.197 52.8393 160.273 52.6223 160.284 52.3498C160.304 52.0672 160.314 51.7492 160.314 51.396V44.8557C160.314 44.6538 160.319 44.462 160.33 44.2804C160.34 44.0886 160.35 43.917 160.36 43.7656C160.177 43.7757 159.993 43.7858 159.81 43.7959C159.626 43.806 159.443 43.8161 159.259 43.8262V43.16H162.699V43.6596C162.322 43.6697 162.057 43.7555 161.904 43.917C161.762 44.0785 161.68 44.2955 161.66 44.568C161.649 44.8405 161.644 45.1585 161.644 45.5218V52.0167C161.644 52.2892 161.639 52.5214 161.629 52.7131C161.629 52.9049 161.619 53.0664 161.598 53.1976L164.457 53.1522C165.1 53.1421 165.584 52.9402 165.91 52.5466C166.246 52.153 166.414 51.5121 166.414 50.6239H166.934L166.842 53.7578H159.259Z" fill="#04181F"/>
<path d="M173.594 42.2517L173.257 41.8126L175.184 39.9958C175.388 39.8243 175.561 39.7334 175.703 39.7233C175.856 39.7132 175.974 39.7385 176.055 39.799C176.147 39.8495 176.198 39.8899 176.208 39.9201C176.239 39.9605 176.264 40.0362 176.284 40.1472C176.315 40.2482 176.3 40.3642 176.239 40.4955C176.188 40.6267 176.045 40.7629 175.81 40.9042L173.594 42.2517ZM174.328 54C173.359 54 172.529 53.8385 171.836 53.5155C171.142 53.1925 170.577 52.7636 170.139 52.2287C169.71 51.6836 169.394 51.0831 169.191 50.427C168.987 49.771 168.885 49.1149 168.885 48.4589C168.885 47.823 168.992 47.1821 169.206 46.5362C169.42 45.8801 169.746 45.2796 170.184 44.7345C170.633 44.1895 171.188 43.7505 171.851 43.4174C172.523 43.0843 173.308 42.9178 174.205 42.9178C175.143 42.9178 175.953 43.0843 176.636 43.4174C177.319 43.7505 177.88 44.1946 178.318 44.7497C178.766 45.2947 179.098 45.8902 179.312 46.5362C179.536 47.1821 179.648 47.823 179.648 48.4589C179.648 49.0847 179.541 49.7256 179.327 50.3816C179.113 51.0276 178.782 51.6281 178.333 52.1832C177.895 52.7283 177.344 53.1673 176.682 53.5004C176.019 53.8335 175.235 54 174.328 54ZM174.358 53.3793C174.99 53.3793 175.54 53.2481 176.009 52.9856C176.478 52.7131 176.865 52.3548 177.171 51.9107C177.487 51.4565 177.722 50.9569 177.874 50.4119C178.038 49.8568 178.119 49.3017 178.119 48.7465C178.119 48.1208 178.032 47.5 177.859 46.8844C177.686 46.2687 177.431 45.7085 177.095 45.2039C176.758 44.6992 176.34 44.2955 175.841 43.9927C175.352 43.6798 174.791 43.5234 174.159 43.5234C173.527 43.5234 172.972 43.6596 172.493 43.9321C172.024 44.2047 171.632 44.568 171.316 45.0222C171.01 45.4663 170.776 45.9659 170.612 46.521C170.46 47.066 170.383 47.6212 170.383 48.1864C170.383 48.7415 170.46 49.3219 170.612 49.9274C170.776 50.533 171.02 51.0982 171.346 51.6231C171.672 52.1479 172.085 52.5718 172.585 52.8948C173.084 53.2178 173.675 53.3793 174.358 53.3793Z" fill="#04181F"/>
<path d="M187.459 54C186.44 54 185.538 53.788 184.753 53.3641C183.969 52.9402 183.357 52.3296 182.919 51.5322C182.48 50.7349 182.261 49.7861 182.261 48.686C182.261 47.9694 182.368 47.273 182.582 46.5967C182.807 45.9104 183.138 45.2897 183.576 44.7345C184.025 44.1794 184.58 43.7404 185.243 43.4174C185.915 43.0843 186.695 42.9178 187.582 42.9178C187.949 42.9178 188.321 42.9531 188.698 43.0238C189.075 43.0843 189.437 43.1802 189.783 43.3114C190.14 43.4325 190.461 43.5789 190.746 43.7505L190.685 43.0238H191.526V46.4907H190.976C190.935 45.8549 190.762 45.3199 190.456 44.8859C190.16 44.4418 189.773 44.1037 189.294 43.8716C188.815 43.6395 188.28 43.5234 187.689 43.5234C187.149 43.5234 186.639 43.6445 186.16 43.8867C185.691 44.1189 185.273 44.4519 184.906 44.8859C184.55 45.3099 184.269 45.8145 184.065 46.3999C183.862 46.9853 183.76 47.6313 183.76 48.3378C183.76 49.2865 183.933 50.1343 184.279 50.8812C184.626 51.6281 185.105 52.2135 185.717 52.6374C186.338 53.0613 187.052 53.2733 187.857 53.2733C188.132 53.2733 188.417 53.2481 188.713 53.1976C189.019 53.1471 189.32 53.0664 189.615 52.9554C189.921 52.8342 190.206 52.6879 190.471 52.5163V50.6693C190.471 50.427 190.471 50.1848 190.471 49.9426C190.471 49.6903 190.471 49.443 190.471 49.2007C190.298 49.2108 190.12 49.2209 189.936 49.231C189.753 49.2411 189.574 49.2512 189.401 49.2613V48.5951H192.856V49.0948C192.571 49.0948 192.352 49.1705 192.199 49.3219C192.046 49.4632 191.939 49.6398 191.878 49.8517C191.817 50.0536 191.781 50.2555 191.771 50.4573C191.761 50.6491 191.755 50.7954 191.755 50.8964V53.2127H191.343C191.18 53.2127 190.955 53.243 190.67 53.3036C190.385 53.3641 190.058 53.4651 189.692 53.6064C189.376 53.7275 189.009 53.8234 188.591 53.894C188.173 53.9647 187.796 54 187.459 54Z" fill="#04181F"/>
<path d="M198.677 43.6596C198.3 43.6697 198.035 43.7555 197.882 43.917C197.739 44.0785 197.658 44.2955 197.638 44.568C197.627 44.8405 197.622 45.1585 197.622 45.5218V51.9561C197.622 52.2287 197.617 52.4658 197.607 52.6677C197.607 52.8595 197.597 53.021 197.576 53.1522C197.76 53.1421 197.943 53.132 198.127 53.1219C198.31 53.1118 198.494 53.1017 198.677 53.0916V53.7578H195.237V53.2582C195.625 53.238 195.89 53.1522 196.032 53.0008C196.175 52.8393 196.251 52.6223 196.262 52.3498C196.282 52.0672 196.292 51.7492 196.292 51.396V44.8557C196.292 44.6538 196.297 44.462 196.307 44.2804C196.318 44.0886 196.328 43.917 196.338 43.7656C196.155 43.7757 195.971 43.7858 195.788 43.7959C195.604 43.806 195.421 43.8161 195.237 43.8262V43.16H198.677V43.6596Z" fill="#04181F"/>
<path d="M209.901 46.5362C209.8 45.5874 209.463 44.8506 208.892 44.3258C208.332 43.8009 207.608 43.5385 206.721 43.5385C206.181 43.5385 205.672 43.6546 205.193 43.8867C204.724 44.1088 204.311 44.4318 203.954 44.8557C203.598 45.2796 203.317 45.7893 203.113 46.3848C202.91 46.9803 202.808 47.6514 202.808 48.3983C202.808 49.3471 202.991 50.1848 203.358 50.9115C203.725 51.6382 204.219 52.2034 204.841 52.6072C205.463 53.0109 206.151 53.2127 206.905 53.2127C207.567 53.2127 208.22 53.0664 208.862 52.7737C209.504 52.4709 210.029 52.0369 210.437 51.4717L210.834 51.7896C210.396 52.3851 209.922 52.8443 209.412 53.1673C208.903 53.4903 208.393 53.7073 207.883 53.8183C207.384 53.9394 206.925 54 206.507 54C205.743 54 205.04 53.8637 204.398 53.5912C203.766 53.3187 203.215 52.9402 202.746 52.4558C202.288 51.9612 201.931 51.3909 201.676 50.745C201.432 50.0889 201.309 49.3824 201.309 48.6254C201.309 47.9088 201.416 47.2124 201.63 46.5362C201.855 45.8599 202.186 45.2493 202.624 44.7043C203.062 44.1592 203.613 43.7252 204.275 43.4023C204.948 43.0793 205.728 42.9178 206.614 42.9178C207.185 42.9178 207.725 42.9935 208.235 43.1449C208.745 43.2963 209.234 43.5284 209.703 43.8413L209.626 43.0238H210.452V46.5362H209.901Z" fill="#04181F"/>
<path d="M212.278 53.7578V53.2582C212.584 53.2582 212.818 53.1774 212.981 53.0159C213.144 52.8544 213.277 52.6324 213.379 52.3498C213.491 52.0672 213.618 51.7391 213.761 51.3657L216.91 42.8724H217.277L220.687 51.4868C220.768 51.6988 220.86 51.9713 220.962 52.3044C221.064 52.6374 221.105 52.92 221.084 53.1522C221.257 53.1421 221.431 53.132 221.604 53.1219C221.777 53.1118 221.951 53.1017 222.124 53.0916V53.7578H218.623V53.2582C219.01 53.2481 219.265 53.1623 219.387 53.0008C219.51 52.8393 219.555 52.6475 219.525 52.4255C219.494 52.2034 219.443 52.0016 219.372 51.8199L218.837 50.3968L214.862 50.4876L214.327 52.1075C214.255 52.3498 214.189 52.5415 214.128 52.6828C214.077 52.8242 214.016 52.9806 213.945 53.1522C214.148 53.1421 214.347 53.132 214.541 53.1219C214.745 53.1118 214.943 53.1017 215.137 53.0916V53.7578H212.278ZM215.091 49.8366H218.623L217.537 46.9449C217.425 46.632 217.308 46.3242 217.186 46.0214C217.074 45.7085 216.961 45.3956 216.849 45.0828H216.819C216.717 45.3654 216.61 45.648 216.498 45.9306C216.396 46.2132 216.289 46.5008 216.177 46.7935L215.091 49.8366Z" fill="#04181F"/>
</svg>
