<svg width="336" height="263" viewBox="0 0 336 263" fill="none" xmlns="http://www.w3.org/2000/svg">
<g clip-path="url(#clip0_113_411)">
<path d="M92.2422 8.67951C92.2422 8.67951 75.6405 15.8699 75.5222 31.7847C75.4048 40.9227 76.0175 50.0555 77.3547 59.0963L75.4547 58.2533C76.0424 59.4879 76.7168 60.6794 77.4729 61.819C77.8276 62.055 74.0276 61.583 74.7369 62.5271C75.4462 63.4712 75.0916 63.7156 77.5911 65.0559C79.0173 65.7414 80.1241 66.9489 80.6818 68.4277C80.6818 68.4277 77.5911 67.7112 76.5187 68.4277C75.4462 69.1442 82.5987 79.8581 96.0338 79.993C109.469 80.1278 107.096 71.9175 112.332 62.898C117.567 53.8784 141.237 46.9831 145.4 47.1011C149.563 47.2191 158.126 49.9503 163.48 42.7093C168.833 35.4684 165.506 30.8322 165.506 30.8322C165.506 30.8322 166.46 32.7288 167.195 31.7847C167.93 30.8406 166.232 24.5691 155.17 14.597C144.108 4.62493 122.102 -2.26196 107.468 0.688365C92.8334 3.63868 92.2422 8.67951 92.2422 8.67951Z" fill="#07222B" stroke="#0F0305" stroke-linecap="round" stroke-linejoin="round"/>
<path d="M139.911 34.5074C140.882 33.5237 141.732 32.4287 142.444 31.2452" stroke="#FFFCF5" stroke-linecap="round" stroke-linejoin="round"/>
<path d="M87.7836 54.4601C98.7381 52.6498 109.528 49.9605 120.05 46.4184C125.978 44.4627 131.531 41.5185 136.474 37.7107" stroke="#FFFCF5" stroke-linecap="round" stroke-linejoin="round"/>
<path d="M83.0377 55.2018C83.0377 55.2018 83.9497 55.0838 85.5711 54.8309" stroke="#FFFCF5" stroke-linecap="round" stroke-linejoin="round"/>
<path d="M121.511 28.7501C116.9 35.2914 107.51 45.1876 90.4435 50.6078" stroke="#FFFCF5" stroke-linecap="round" stroke-linejoin="round"/>
<path d="M125.243 22.2594C124.772 23.3692 124.225 24.4451 123.605 25.4795" stroke="#FFFCF5" stroke-linecap="round" stroke-linejoin="round"/>
<path d="M102.443 36.4294C102.443 36.4294 88.839 45.8198 83.8652 48.2307" stroke="#FFFCF5" stroke-linecap="round" stroke-linejoin="round"/>
<path d="M154.452 31.043C154.452 31.043 158.675 25.4542 158.675 21.054" stroke="#FFFCF5" stroke-linecap="round" stroke-linejoin="round"/>
<path d="M123.681 86.3826C123.681 86.3826 138.399 87.5795 145.636 97.0711C152.873 106.563 154.199 126.128 154.199 133.908C154.199 141.688 165.05 181.728 165.05 181.728L136.474 189.981C136.474 189.981 142.208 149.865 137.268 136.757C132.328 123.649 119.535 99.9203 118.057 92.9238C116.579 85.9274 123.681 86.3826 123.681 86.3826Z" fill="#FFFCF5" stroke="#0F0305" stroke-linecap="round" stroke-linejoin="round"/>
<path d="M144.674 135.434C149.187 134.9 153.606 133.748 157.805 132.011C157.805 132.011 155.711 106.723 149.428 99.1363C143.145 91.5498 133.265 87.5795 129.651 87.5795H126.037C126.037 87.5795 124.137 109.606 125.843 110.339C128.385 111.441 130.99 112.393 133.645 113.188" fill="#0F0305"/>
<path d="M144.674 135.434C149.187 134.9 153.606 133.748 157.805 132.011C157.805 132.011 155.711 106.723 149.428 99.1363C143.145 91.5498 133.265 87.5795 129.651 87.5795H126.037C126.037 87.5795 124.137 109.606 125.843 110.339C128.385 111.441 130.99 112.393 133.645 113.188" stroke="#0F0305" stroke-linecap="round" stroke-linejoin="round"/>
<path d="M157.374 127.906C152.943 129.786 148.293 131.106 143.534 131.834L144.674 135.442C149.187 134.908 153.606 133.756 157.805 132.02C157.805 132.02 157.67 130.435 157.374 127.906Z" fill="#FFFCF5" stroke="#0F0305" stroke-linecap="round" stroke-linejoin="round"/>
<path d="M0.189302 284.981C-0.097809 276.822 -1.21248 233.165 8.45641 213.01C19.1133 190.799 34.1697 189.357 32.8609 184.502C31.552 179.646 30.7244 121.281 41.9471 105.265C53.1697 89.2486 81.9737 87.5627 81.9737 87.5627L105.711 87.4362C105.711 87.4362 125.361 84.6292 130.723 91.0019C134.126 97.8875 136.028 105.415 136.305 113.087L139.151 116.349C143.078 126.06 148.102 147.64 144.868 155.049C142.833 159.694 140.139 163.74 133.975 175.499C128.334 186.238 118.488 270.752 116.824 285.327" fill="#184757"/>
<path d="M0.189302 284.981C-0.097809 276.822 -1.21248 233.165 8.45641 213.01C19.1133 190.799 34.1697 189.357 32.8609 184.502C31.552 179.646 30.7244 121.281 41.9471 105.265C53.1697 89.2486 81.9737 87.5627 81.9737 87.5627L105.711 87.4362C105.711 87.4362 125.361 84.6292 130.723 91.0019C134.126 97.8875 136.028 105.415 136.305 113.087L139.151 116.349C143.078 126.06 148.102 147.64 144.868 155.049C142.833 159.694 140.139 163.74 133.975 175.499C128.334 186.238 118.488 270.752 116.824 285.327" stroke="#0F0305" stroke-linecap="round" stroke-linejoin="round"/>
<path d="M94.5897 81.2574C94.5897 81.2574 81.1546 82.6398 77.9964 86.5848C74.8382 90.5298 74.4413 103.933 76.4173 114.975C78.3933 126.018 78.1906 133.908 81.1546 133.318C84.1186 132.728 92.6137 120.893 96.7599 120.893C100.906 120.893 95.7719 122.073 99.2933 126.608C102.815 131.143 111.74 134.304 111.74 134.304L119.053 132.129C119.053 132.129 123.791 130.359 124.584 126.81C125.378 123.262 123.005 119.317 124.981 118.128C126.957 116.939 135.055 119.317 137.226 118.92C139.396 118.524 139.759 112.809 136.043 100.19C132.328 87.5711 130.132 84.8062 116.284 82.0414C102.435 79.2765 94.5897 81.2574 94.5897 81.2574Z" fill="#FFFCF5" stroke="#0F0305" stroke-linecap="round" stroke-linejoin="round"/>
<path d="M93.4075 83.82C93.4075 83.82 86.6519 86.3488 85.6977 90.5636C84.7435 94.7783 93.0106 113.247 101.109 123.304C109.207 133.36 111.977 139.868 114.544 139.278C117.111 138.687 125.8 112.851 126.991 104.177C128.182 95.5032 129.752 94.3147 123.824 87.2171C117.896 80.1194 103.279 79.091 93.4075 83.82Z" fill="#FFFCF5" stroke="#0F0305" stroke-linecap="round" stroke-linejoin="round"/>
<path d="M117.407 107.675C115.811 100.62 119.687 91.0609 119.687 91.0609C121.83 92.9202 124.601 93.8966 127.439 93.7921C134.076 93.5982 137.234 89.6953 141.794 83.095C146.354 76.4948 150.239 69.8945 150.686 65.8062C151.134 61.7179 152.738 59.6611 154.106 52.6056C155.474 45.5501 153.194 32.3748 153.194 32.3748C153.194 32.3748 150.23 37.6095 143.39 43.0718C136.55 48.5341 141.566 40.1131 141.566 40.1131C141.566 40.1131 136.55 43.7546 120.143 48.9893C103.735 54.2241 95.2906 57.4188 93.9648 57.8656C92.639 58.3124 92.8333 59.914 94.1928 62.8727C94.861 64.5118 96.0668 65.8759 97.6128 66.7418C97.6128 66.7418 93.7368 83.1203 89.8693 88.8102" fill="#FFFCF5"/>
<path d="M117.407 107.675C115.811 100.62 119.687 91.0609 119.687 91.0609C121.83 92.9202 124.601 93.8966 127.439 93.7921C134.076 93.5982 137.234 89.6953 141.794 83.095C146.354 76.4948 150.239 69.8945 150.686 65.8062C151.134 61.7179 152.738 59.6611 154.106 52.6056C155.474 45.5501 153.194 32.3748 153.194 32.3748C153.194 32.3748 150.23 37.6095 143.39 43.0718C136.55 48.5341 141.566 40.1131 141.566 40.1131C141.566 40.1131 136.55 43.7546 120.143 48.9893C103.735 54.2241 95.2906 57.4188 93.9648 57.8656C92.639 58.3124 92.8333 59.914 94.1928 62.8727C94.861 64.5118 96.0668 65.8759 97.6128 66.7418C97.6128 66.7418 93.7368 83.1203 89.8693 88.8102" stroke="#0F0305" stroke-linecap="round" stroke-linejoin="round"/>
<path d="M135.3 52.7657C135.3 52.7657 127.7 48.551 120.734 52.5381" stroke="#0F0305" stroke-width="2" stroke-linecap="round" stroke-linejoin="round"/>
<path d="M144.024 52.4707C146.566 51.0772 149.443 50.4066 152.341 50.5319" stroke="#0F0305" stroke-width="2" stroke-linecap="round" stroke-linejoin="round"/>
<path d="M142.554 54.6708C142.554 54.6708 140.114 58.7085 140.114 61.6841C140.114 64.6597 141.803 73.1651 140.359 74.4379C138.915 75.7108 130.825 74.0165 130.825 74.0165" fill="#FFFCF5"/>
<path d="M142.554 54.6708C142.554 54.6708 140.114 58.7085 140.114 61.6841C140.114 64.6597 141.803 73.1651 140.359 74.4379C138.915 75.7108 130.825 74.0165 130.825 74.0165" stroke="#0F0305" stroke-linecap="round" stroke-linejoin="round"/>
<path d="M129.043 62.3838C128.874 63.918 128.038 65.0896 127.177 64.9969C126.316 64.9042 125.758 63.5723 125.927 62.0382C126.096 60.504 126.932 59.3407 127.793 59.4335C128.655 59.5262 129.195 60.8496 129.043 62.3838Z" fill="#0F0305"/>
<path d="M145.932 61.6083C145.493 63.0918 144.463 64.1371 143.635 63.8505C142.807 63.5639 142.487 62.2067 142.917 60.7232C143.348 59.2396 144.387 58.1943 145.214 58.4809C146.042 58.7675 146.337 60.1247 145.932 61.6083Z" fill="#0F0305"/>
<path d="M134.954 80.7853C134.954 80.7853 128.84 82.2436 124.196 77.8519" stroke="#0F0305" stroke-linecap="round" stroke-linejoin="round"/>
<path d="M103.49 53.1029C103.49 53.1029 105.855 55.7498 106.446 55.6317C107.037 55.5137 107.18 53.1029 107.18 53.1029C107.18 53.1029 108.506 48.2475 103.49 53.1029Z" fill="#0F0305" stroke="#0F0305" stroke-linecap="round" stroke-linejoin="round"/>
<path d="M119.687 91.0356L113.961 86.1971C113.961 86.1971 114.941 97.0627 117.052 102.803C117.052 102.803 116.984 95.0312 119.687 91.0356Z" fill="#0F0305" stroke="#0F0305" stroke-linecap="round" stroke-linejoin="round"/>
<path d="M97.5707 66.6912L98.7782 66.4889C99.6075 66.2568 100.4 65.9107 101.134 65.4605C101.38 66.9193 101.776 68.3487 102.316 69.7258" fill="#FFFCF5"/>
<path d="M97.5707 66.6912L98.7782 66.4889C99.6075 66.2568 100.4 65.9107 101.134 65.4605C101.38 66.9193 101.776 68.3487 102.316 69.7258" stroke="#0F0305" stroke-linecap="round" stroke-linejoin="round"/>
<path d="M17.5089 287.696C17.5089 287.696 6.53112 247.883 30.7076 233.426C54.884 218.97 96.1098 215.573 132.801 211.08C160.296 207.708 188.796 213.558 210.692 231.092C226.906 244.081 236.71 264.717 242.511 284.315" fill="#FFFCF5"/>
<path d="M17.5089 287.696C17.5089 287.696 6.53112 247.883 30.7076 233.426C54.884 218.97 96.1098 215.573 132.801 211.08C160.296 207.708 188.796 213.558 210.692 231.092C226.906 244.081 236.71 264.717 242.511 284.315" stroke="#0F0305" stroke-linecap="round" stroke-linejoin="round"/>
<path d="M131.374 182.563C131.374 182.563 131.112 186.542 129.254 187.621C127.396 188.7 124.736 183.119 119.695 186.297C114.654 189.475 115.473 194.777 114.924 196.101C114.375 197.424 110.938 195.57 108.819 198.486C106.699 201.403 110.676 212.521 110.676 212.521C110.676 212.521 121.291 213.052 139.075 216.5C156.859 219.948 172.507 228.689 172.507 228.689C172.507 228.689 177.024 227.888 175.96 220.74C174.896 213.592 170.117 205.904 157.915 200.341C145.712 194.777 131.374 182.563 131.374 182.563Z" fill="#FFFCF5" stroke="#0F0305" stroke-linecap="round" stroke-linejoin="round"/>
<path d="M210.059 169.211C210.059 169.211 215.565 169.902 216.029 173.333C216.574 176.61 216.416 179.966 215.565 183.178C214.653 186.154 205.474 187.756 205.474 187.756C205.474 187.756 209.164 172.068 210.059 169.211Z" fill="#FFFCF5" stroke="#0F0305" stroke-linecap="round" stroke-linejoin="round"/>
<path d="M216.941 185.96C216.742 187.422 216.434 188.868 216.021 190.284C215.556 191.422 214.18 193.943 213.031 193.943C211.883 193.943 212.12 193.26 212.576 191.886C213.032 190.512 214.644 186.162 214.644 186.162L216.941 185.96Z" fill="#FFFCF5" stroke="#0F0305" stroke-linecap="round" stroke-linejoin="round"/>
<path d="M218.09 181.61C217.939 183.112 217.551 184.58 216.941 185.96C216.029 187.789 207.315 191.448 207.315 191.448C207.315 191.448 205.702 190.765 207.078 188.919C208.455 187.073 218.09 181.61 218.09 181.61Z" fill="#FFFCF5" stroke="#0F0305" stroke-linecap="round" stroke-linejoin="round"/>
<path d="M216.485 176.797C216.485 176.797 218.774 180.009 218.09 181.61C217.406 183.212 210.49 188.017 208.919 188.472C207.348 188.927 206.056 186.466 207.543 185.732C209.029 184.999 216.485 176.797 216.485 176.797Z" fill="#FFFCF5" stroke="#0F0305" stroke-linecap="round" stroke-linejoin="round"/>
<path d="M210.059 169.211L217.659 171.959C217.659 171.959 219.036 175.626 218.799 176.536C218.563 177.446 209.856 182.951 208.48 183.178C207.104 183.406 208.024 180.203 208.716 179.284C209.409 178.365 213.783 174.024 213.783 174.024" fill="#FFFCF5"/>
<path d="M210.059 169.211L217.659 171.959C217.659 171.959 219.036 175.626 218.799 176.536C218.563 177.446 209.856 182.951 208.48 183.178C207.104 183.406 208.024 180.203 208.716 179.284C209.409 178.365 213.783 174.024 213.783 174.024" stroke="#0F0305" stroke-linecap="round" stroke-linejoin="round"/>
<path d="M208.691 165.839C210.198 166.303 211.728 166.686 213.276 166.985C213.96 166.985 216.029 169.042 218.09 168.359C220.15 167.676 222.219 169.497 220.623 171.335C220.075 172.014 219.374 172.554 218.577 172.911C217.78 173.269 216.91 173.433 216.038 173.392C214.661 173.392 209.611 172.018 209.611 172.018L208.691 165.839Z" fill="#FFFCF5" stroke="#0F0305" stroke-linecap="round" stroke-linejoin="round"/>
<path d="M186.795 147.968C186.795 147.968 182.522 151.989 179.684 152.461C176.847 152.933 174.466 149.865 167.119 150.101C159.772 150.337 148.356 154.316 141.896 163.259C128.275 182.133 130.859 188.421 130.386 189.391C129.913 190.36 129.44 202.398 135.36 205.71C141.279 209.023 141.997 209.967 145.788 208.079C149.58 206.191 156.927 203.864 158.354 205.946C159.781 208.028 159.536 212.336 160.718 213.044C161.9 213.752 164.746 210.203 167.119 213.044C168.665 215.062 169.72 217.411 170.201 219.906C170.438 220.614 173.52 222.274 173.52 222.274C173.52 222.274 161.428 230.08 161.191 247.563C160.955 265.046 173.52 279.502 173.52 279.502C173.52 279.502 218.073 233.368 243.195 220.824C268.317 208.281 271.906 207.818 271.906 207.818C271.906 207.818 247.932 197.146 237.74 197.146C227.548 197.146 212.66 198.115 211.951 198.115C211.241 198.115 209.721 192.906 209.054 184.982C208.387 177.059 212.66 169.961 210.996 166.437C209.333 162.914 205.786 162.181 201.522 160.284C198.344 158.938 195.1 157.754 191.802 156.735C191.802 156.735 191.093 150.59 189.666 148.693C188.239 146.797 186.795 147.968 186.795 147.968Z" fill="#FFFCF5" stroke="#0F0305" stroke-linecap="round" stroke-linejoin="round"/>
<path d="M192.478 159.323C191.221 160.445 190.107 161.716 189.159 163.108C188.213 164.794 185.84 166.893 184.895 166.893" stroke="#0F0305" stroke-linecap="round" stroke-linejoin="round"/>
<path d="M164.831 164.33C164.831 164.33 165.329 160.857 167.153 159.365C168.977 157.873 170.303 158.042 171.13 157.679C171.958 157.317 169.306 159.171 167.98 160.655C166.655 162.138 164.831 164.33 164.831 164.33Z" fill="#0F0305" stroke="#0F0305" stroke-linecap="round" stroke-linejoin="round"/>
<path d="M159.367 162.18C159.367 162.18 157.678 160.2 160.211 156.558C162.745 152.916 167.339 153.085 167.339 153.085C167.339 153.085 167.001 151.264 163.691 152.588C160.38 153.911 157.374 156.566 159.367 162.18Z" fill="#0F0305" stroke="#0F0305" stroke-linecap="round" stroke-linejoin="round"/>
<path d="M215.489 220.378C216.215 220.631 216.924 220.909 217.617 221.221" stroke="#0F0305" stroke-linecap="round" stroke-linejoin="round"/>
<path d="M193.153 218.65C193.153 218.65 203.996 217.208 213.42 219.729" stroke="#0F0305" stroke-linecap="round" stroke-linejoin="round"/>
<path d="M171.476 204.227C160.017 196.328 150.019 181.973 149.394 168.25C149.073 161.144 150.424 156.996 151.809 154.645C147.919 156.766 144.536 159.705 141.896 163.259C128.275 182.133 130.859 188.421 130.386 189.391C129.913 190.36 129.44 202.398 135.36 205.71C141.279 209.023 141.997 209.967 145.788 208.079C149.58 206.191 156.927 203.864 158.354 205.946C159.781 208.028 159.536 212.336 160.718 213.044C161.9 213.752 164.746 210.203 167.119 213.044C168.665 215.062 169.72 217.411 170.201 219.906C170.438 220.614 173.52 222.274 173.52 222.274C180.765 218.675 190.232 217.967 190.232 217.967C190.232 217.967 182.936 212.134 171.476 204.227Z" fill="#FFFCF5" stroke="#0F0305" stroke-linecap="round" stroke-linejoin="round"/>
<path d="M211.917 198.124C211.917 198.124 214.965 203.67 224.128 207.86C233.29 212.049 247.046 213.39 247.772 212.252C248.498 211.114 250.449 208.037 245.484 205.575C240.518 203.114 235.933 205.575 234.016 203.67C232.099 201.765 233.45 194.322 226.762 193.943C220.074 193.563 216.257 195.848 214.94 193.563C213.623 191.279 209.78 190.512 209.78 190.512C209.78 190.512 210.203 196.185 211.917 198.124Z" fill="#FFFCF5" stroke="#0F0305" stroke-linecap="round" stroke-linejoin="round"/>
<path d="M165.472 288.066C165.472 288.066 192.832 235.374 232.741 218.666C272.649 201.959 287.14 204.21 299.047 208.062C310.953 211.914 329.624 226.379 329.624 226.379" stroke="#0F0305" stroke-linecap="round" stroke-linejoin="round"/>
<path d="M303.953 230.181C305.844 229.836 307.787 229.524 309.771 229.262" stroke="#0F0305" stroke-linecap="round" stroke-linejoin="round"/>
<path d="M236.287 274.124C236.287 274.124 252.332 242.935 295.981 231.901" stroke="#0F0305" stroke-linecap="round" stroke-linejoin="round"/>
<path d="M246.598 249.847C250.181 246.846 254.015 244.155 258.057 241.805" stroke="#0F0305" stroke-linecap="round" stroke-linejoin="round"/>
<path d="M224.229 276.054C229.213 267.726 235.341 260.136 242.435 253.506" stroke="#0F0305" stroke-linecap="round" stroke-linejoin="round"/>
<path d="M138.501 188.708C138.501 188.708 152.645 183.591 154.039 182.807C155.432 182.024 163.665 177.547 166.199 176.46C168.732 175.373 178.629 174.909 181.399 174.285C184.168 173.661 186.22 170.913 186.997 172.119C187.774 173.324 186.997 175.373 186.06 176.334C185.123 177.295 180.005 179.276 179.541 179.436C179.076 179.596 189.944 179.276 194.454 178.812C198.963 178.348 202.839 179.276 202.687 180.498C202.535 181.72 201.75 182.361 200.356 182.673C198.963 182.984 192.756 183.448 190.569 183.76C188.382 184.072 184.194 184.999 184.194 184.999C184.194 184.999 191.186 185.151 194.606 185.151C198.026 185.151 203.616 184.224 204.393 184.999C205.17 185.775 205.482 186.862 203.464 187.789C200.245 188.987 196.903 189.824 193.499 190.284C190.865 190.596 182.159 191.835 182.159 191.835C184.925 192.937 187.887 193.464 190.865 193.386C196.303 193.386 198.938 192.771 199.098 194.01C199.259 195.249 198.786 196.185 198.009 196.488C195.14 197.381 192.155 197.847 189.151 197.871H180.765C183.367 198.646 186.012 199.268 188.686 199.734C190.704 199.886 194.749 200.197 195.053 201.125C195.357 202.052 193.812 202.676 191.675 202.988C189.539 203.3 178.865 202.204 177.345 202.086C175.825 201.968 173.773 202.237 170.505 202.237C167.237 202.237 156.834 199.759 156.834 199.759C156.834 199.759 124.829 209.875 123.748 210.144C122.667 210.414 120.328 211.08 120.328 211.08C120.328 211.08 105.88 213.246 91.6173 215.885C77.3546 218.523 47.343 221.937 45.9413 220.85C44.5395 219.762 33.663 168.275 32.5822 162.686L65.051 161.919C65.051 161.919 66.1404 181.762 68.0066 186.112C68.0066 186.112 75.463 185.8 90.9924 187.798C106.522 189.795 128.874 191.97 138.501 188.708Z" fill="#FFFCF5" stroke="#0F0305" stroke-linecap="round" stroke-linejoin="round"/>
<path d="M67.9728 186.07C64.8719 186.861 62.0658 188.53 59.8915 190.874" stroke="#0F0305" stroke-linecap="round" stroke-linejoin="round"/>
<path d="M65.3551 92.7047C65.3551 92.7047 39.6755 89.8555 32.2528 113.972C24.8302 138.089 29.3986 165.839 29.3986 165.839C29.3986 165.839 37.5728 167.525 50.3155 166.404C63.0582 165.283 65.9208 164.507 65.9208 164.507L69.3408 149.334C69.3408 149.334 73.3351 143.256 73.3351 130.536" fill="#0F0305"/>
<path d="M65.3551 92.7047C65.3551 92.7047 39.6755 89.8555 32.2528 113.972C24.8302 138.089 29.3986 165.839 29.3986 165.839C29.3986 165.839 37.5728 167.525 50.3155 166.404C63.0582 165.283 65.9208 164.507 65.9208 164.507L69.3408 149.334C69.3408 149.334 73.3351 143.256 73.3351 130.536" stroke="#0F0305" stroke-linecap="round" stroke-linejoin="round"/>
<path d="M66.8582 160.326C53.2626 163.436 36.9564 162.644 28.8582 161.961C29.1284 164.406 29.3648 165.814 29.3648 165.814C29.3648 165.814 37.539 167.5 50.2817 166.378C63.0244 165.257 65.887 164.482 65.887 164.482L66.8582 160.326Z" fill="#FFFCF5" stroke="#0F0305" stroke-linecap="round" stroke-linejoin="round"/>
</g>
<defs>
<clipPath id="clip0_113_411">
<rect width="336" height="263" fill="white"/>
</clipPath>
</defs>
</svg>
