<svg width="336" height="263" viewBox="0 0 336 263" fill="none" xmlns="http://www.w3.org/2000/svg">
<g clip-path="url(#clip0_113_462)">
<path d="M250.449 31.189C250.449 31.189 263.96 58.1634 267.338 71.6506C270.716 85.1377 266.215 104.247 266.215 108.74C266.215 113.233 274.094 143.588 278.595 150.888C283.095 158.188 282.538 162.133 282.538 162.133C282.538 162.133 270.15 168.311 263.395 170.562L256.622 172.804C256.622 172.804 238.044 140.216 236.921 130.657C235.798 121.098 243.677 95.8179 244.8 76.1519C245.923 56.4859 244.8 19.3877 250.449 31.189Z" fill="#184757" stroke="#0F0305" stroke-miterlimit="10"/>
<path d="M160.702 129.654C160.702 129.654 150.568 132.705 146.937 135.765C143.306 138.825 109.925 192.867 108.093 197.444C106.26 202.021 111.471 213.013 119.408 220.035C127.346 227.057 132.261 248.13 132.261 248.13L110.846 323.861H261.343C261.967 320.211 259.535 307.971 243.905 286.299C237.149 276.968 232.589 270.73 232.589 270.73L234.734 264.315C234.734 264.315 243.905 258.204 250.331 239.583C256.757 220.962 260.735 197.14 261.647 186.477C262.559 175.814 263.175 158.66 258.269 148.308C253.363 137.957 240.535 135.479 240.535 135.479C240.535 135.479 199.85 128.457 195.873 127.546C191.895 126.636 160.702 129.654 160.702 129.654Z" fill="#FFFCF5" stroke="#0F0305" stroke-miterlimit="10"/>
<path d="M148.542 261.516L144.438 323.844H151.008L152.24 261.516H148.542Z" fill="#FFFCF5" stroke="#0F0305" stroke-miterlimit="10"/>
<path d="M154.174 261.516L156.353 323.844H162.923L157.864 261.516H154.174Z" fill="#FFFCF5" stroke="#0F0305" stroke-miterlimit="10"/>
<path d="M211.09 265.377C215.318 262.562 219.389 259.517 223.284 256.256" stroke="#0F0305" stroke-miterlimit="10"/>
<path d="M234.734 264.315C234.734 264.315 219.771 267.476 198.938 264.947C178.106 262.418 175.556 261.854 175.556 261.854C175.556 261.854 176.4 266.346 186.533 268.032C196.667 269.718 205.424 272.576 232.572 270.73C232.589 270.73 236.465 268.462 234.734 264.315Z" fill="#FFFCF5" stroke="#0F0305" stroke-miterlimit="10"/>
<path d="M126.316 183.763C126.316 183.763 109.689 190.203 104.622 192.732C99.5555 195.261 97.3093 205.654 97.8666 212.12C98.424 218.585 102.089 243.587 102.089 248.088C102.089 252.59 108 255.675 114.477 257.074C120.954 258.473 133.333 260.168 138.121 258.204C142.909 256.239 146.718 247.582 146.92 235.613C147.123 223.643 142.622 201.465 141.237 192.454C139.852 183.442 126.316 183.763 126.316 183.763Z" fill="#FFFCF5" stroke="#0F0305" stroke-miterlimit="10"/>
<path d="M140.207 132.098C140.207 132.098 128.588 121.983 127.667 120.803C126.747 119.623 127.971 116.833 127.971 116.833C127.971 116.833 136.542 107.366 136.542 105.529C136.542 103.691 134.093 104.618 132.261 106.144C132.261 106.144 133.477 102.174 131.948 102.174C130.42 102.174 127.084 104.955 125.193 106.49C123.941 107.661 123.003 109.128 122.465 110.755C122.465 110.755 122.778 103.699 120.633 104.618C118.488 105.537 117.88 111.025 116.96 114.085C116.039 117.144 113.582 125.684 113.582 125.684L115.414 129.957L110.829 126.585C110.829 126.585 110.212 115.627 109.908 113.452C109.604 111.278 106.852 112.23 106.852 118.341C106.871 123.048 107.281 127.745 108.076 132.385C108.38 133.607 128.571 148.57 130.099 150.087C131.825 151.556 133.666 152.883 135.605 154.057C135.605 154.057 131.324 167.797 127.65 176.96C123.977 186.123 119.392 197.115 118.167 204.137C116.943 211.159 123.673 223.98 124.593 225.506C125.514 227.031 133.46 233.446 137.133 226.424C140.807 219.403 145.088 188.559 146.616 175.434C148.145 162.31 149.065 152.531 149.994 148.561C150.923 144.591 149.69 131.154 148.466 128.103C147.241 125.051 141.66 123.888 139.827 119.935C137.995 115.981 135.605 111.615 134.397 115.585C133.19 119.555 134.701 121.081 135.926 123.829C137.15 126.577 140.207 132.098 140.207 132.098Z" fill="#FFFCF5" stroke="#0F0305" stroke-miterlimit="10"/>
<path d="M122.465 110.755C122.411 112.589 122.207 114.416 121.857 116.217C121.241 119.589 120.633 123.551 120.633 123.551L124.61 128.432" stroke="#0F0305" stroke-miterlimit="10"/>
<path d="M132.261 106.144C132.261 106.144 130.167 108.622 129.103 109.92C128.039 111.219 126.02 113.233 126.02 113.233C126.02 113.233 124.239 121.157 124.239 121.519C124.239 121.882 127.557 125.54 127.557 125.54" stroke="#0F0305" stroke-miterlimit="10"/>
<path d="M115.431 129.957L119.282 132.882" stroke="#0F0305" stroke-miterlimit="10"/>
<path d="M119.56 134.003L129.128 125.574" stroke="#0F0305" stroke-miterlimit="10"/>
<path d="M134.482 139.348C134.482 139.348 142.36 142.998 142.639 148.055C142.918 153.113 140.393 154.799 140.393 154.799" stroke="#0F0305" stroke-miterlimit="10"/>
<path d="M178.219 125.025C178.219 125.025 162.622 127.461 160.781 129.906C158.94 132.35 157.724 159.223 157.404 178.797C157.083 198.37 159.852 209.986 159.852 209.986L147 235.94L153.122 240.214C153.122 240.214 206.956 186.476 214.606 175.787C222.257 165.099 244.584 139.751 244.584 137.012C244.584 134.272 229.899 129.071 225.001 127.857C220.104 126.643 212.157 126.635 203.595 125.716C195.032 124.797 178.219 125.025 178.219 125.025Z" fill="#184757" stroke="#0F0305" stroke-miterlimit="10"/>
<path d="M172.946 194.628L159.79 209.658" stroke="#0F0305" stroke-miterlimit="10"/>
<path d="M159.773 33.6673C159.773 33.6673 145.89 50.3745 145.89 56.056C145.89 61.7375 145.89 70.6221 143.762 73.8254C141.634 77.0286 133.435 80.5689 135.216 84.4802C135.755 85.6329 136.55 86.6479 137.541 87.4482C138.532 88.2486 139.692 88.8133 140.933 89.0996C140.933 89.0996 146.279 107.931 149.124 112.55C151.97 117.17 158.413 117.878 161.225 117.17C164.037 116.462 170.835 112.55 170.835 112.55C170.835 112.55 179.381 129.249 179.736 131.736C180.09 134.223 171.544 183.257 171.544 188.213C171.544 193.17 172.971 194.611 172.971 194.611C172.971 194.611 210.701 141.666 214.619 136.692C218.538 131.719 221.738 128.17 221.738 128.17C221.738 128.17 212.838 116.445 209.637 107.939C206.437 99.4341 205.364 96.9221 207.146 94.4523C208.928 91.9825 211.765 88.0628 211.765 88.0628C211.765 88.0628 183.654 55.3732 174.399 43.6478C165.143 31.9224 162.982 29.4104 159.773 33.6673Z" fill="#FFFCF5" stroke="#0F0305" stroke-miterlimit="10"/>
<path d="M170.81 112.55L182.328 104.787L174.449 117.709L170.81 112.55Z" fill="#0F0305" stroke="#0F0305" stroke-miterlimit="10"/>
<path d="M155.027 67.7308L153.803 70.9003" stroke="#0F0305" stroke-miterlimit="10" stroke-linecap="round"/>
<path d="M161.875 71.3893C161.875 71.3893 154.275 73.5894 150.383 70.167" stroke="#0F0305" stroke-width="2" stroke-miterlimit="10" stroke-linecap="round"/>
<path d="M160.702 32.6052C160.364 32.9335 160.053 33.2887 159.773 33.6673C159.773 33.6673 156.902 37.1318 153.769 41.4393C157.383 44.8111 166.689 53.2911 170.1 54.9854C174.145 57.0085 162.534 35.7409 160.702 32.6052Z" fill="#07222B"/>
<path d="M197.511 81.9935C197.511 81.9935 200.424 90.2628 203.279 92.8001C206.133 95.3374 208.345 92.8001 211.216 88.99C214.088 85.1799 211.85 80.4341 210.583 80.4341C209.316 80.4341 197.562 77.9052 197.562 77.9052L197.511 81.9935Z" fill="#07222B" stroke="#0F0305" stroke-miterlimit="10"/>
<path d="M185.756 84.8343C185.756 84.8343 187.538 91.5778 192.512 89.8077C197.486 88.0375 197.494 81.9935 197.494 81.9935" stroke="#0F0305" stroke-miterlimit="10"/>
<path d="M151.599 62.3781C151.599 62.3781 156.496 58.2308 160.651 63.1115" stroke="#0F0305" stroke-width="2" stroke-miterlimit="10" stroke-linecap="round"/>
<path d="M156.007 74.4407C156.007 75.9917 155.517 77.2477 154.909 77.2477C154.301 77.2477 153.803 75.9917 153.803 74.4407C153.803 72.8897 154.301 71.6337 154.909 71.6337C155.517 71.6337 156.007 72.8897 156.007 74.4407Z" fill="#0F0305"/>
<path d="M143.779 94.3427C143.779 94.3427 147.444 97.0233 151.379 90.9203" stroke="#0F0305" stroke-miterlimit="10" stroke-linecap="round"/>
<path d="M153.372 30.4725C153.372 30.4725 166.182 53.2321 172.237 61.7374C178.292 70.2428 206.403 87.675 208.548 89.4536C210.693 91.2322 216.021 90.1617 217.448 89.0996C218.875 88.0374 233.493 83.0556 238.095 73.4629C242.697 63.8701 247.384 40.0652 241.65 28.3398C235.916 16.6144 219.23 10.2164 209.257 9.15431C203.427 8.49315 197.526 8.85258 191.82 10.2164C191.82 10.2164 187.192 8.44623 181.137 11.641C175.083 14.8358 173.664 16.6144 173.664 16.6144C173.664 16.6144 160.845 20.5257 153.372 30.4725Z" fill="#FFFCF5" stroke="#0F0305" stroke-miterlimit="10"/>
<path d="M197.148 9.15433C197.148 9.15433 204.267 3.8269 209.967 2.41074C215.667 0.99459 231.677 4.5434 237.369 7.73818C243.06 10.933 256.597 39.7197 259.088 48.9584C261.579 58.1971 255.879 73.8338 255.524 83.0641C255.17 92.2944 266.916 123.576 268.343 127.479C269.77 131.382 270.116 131.39 261.588 136.364C253.059 141.337 230.968 146.673 225.623 148.435C220.277 150.197 214.594 137.063 211.022 124.276C207.45 111.488 208.531 97.3015 212.095 78.4447C215.658 59.5879 218.141 42.552 216.359 28.3398C214.577 14.1277 204.267 8.4294 197.148 9.15433Z" fill="#FFFCF5" stroke="#0F0305" stroke-miterlimit="10"/>
<path d="M191.811 10.2164C198.554 15.1681 203.337 22.3297 205.322 30.4472C208.523 43.9344 212.795 50.678 215.996 53.2068" stroke="#0F0305" stroke-miterlimit="10"/>
<path d="M173.656 16.6144C173.656 16.6144 198.668 24.7152 208.987 41.768Z" fill="#D9D9D9"/>
<path d="M173.656 16.6144C173.656 16.6144 198.668 24.7152 208.987 41.768" stroke="#0F0305" stroke-miterlimit="10"/>
<path d="M61.4822 130.751C68.7903 128.118 69.6926 112.096 63.4975 94.966C57.3024 77.8358 46.3559 66.0841 39.0477 68.7177C31.7396 71.3514 30.8373 87.373 37.0324 104.503C43.2275 121.633 54.174 133.385 61.4822 130.751Z" fill="#184757" stroke="#0F0305" stroke-miterlimit="10"/>
<path d="M63.0272 130.451C70.3354 127.817 71.2377 111.796 65.0426 94.6654C58.8475 77.5352 47.9009 65.7835 40.5928 68.4171C33.2846 71.0508 32.3823 87.0725 38.5774 104.203C44.7725 121.333 55.7191 133.084 63.0272 130.451Z" fill="#FFFCF5" stroke="#0F0305" stroke-miterlimit="10"/>
<path d="M51.6924 111.632L51.5573 114.439" stroke="#0F0305" stroke-miterlimit="10" stroke-linecap="round"/>
<path d="M53.4066 76.7673L51.8698 108.066" stroke="#0F0305" stroke-miterlimit="10" stroke-linecap="round"/>
<path d="M49.3364 85.2642L48.2302 105.2" stroke="#0F0305" stroke-miterlimit="10" stroke-linecap="round"/>
<path d="M64.6631 123.441L64.5027 125.144" stroke="#0F0305" stroke-miterlimit="10" stroke-linecap="round"/>
<path d="M65.9888 109.263L65.0177 119.614" stroke="#0F0305" stroke-miterlimit="10" stroke-linecap="round"/>
<path d="M61.4963 130.75L71.6466 158.845L77.9377 155.161L64.0888 129.772L61.4963 130.75Z" fill="#184757" stroke="#0F0305" stroke-miterlimit="10"/>
<path d="M134.093 220.01C134.093 220.01 107.476 205.047 101.059 197.115C97.8793 193.314 94.9163 189.337 92.1835 185.204C92.1835 185.204 90.047 168.101 89.1266 162.917C88.2062 157.732 81.4759 147.339 80.2515 143.672C79.2291 140.491 78.5137 137.219 78.1151 133.902C77.8111 131.458 74.4417 132.073 72.9133 135.428C71.3848 138.783 73.8337 144.591 74.1377 146.732C74.4045 148.292 74.8144 149.824 75.3622 151.309C75.3622 151.309 66.1831 142.762 65.2288 142.146C64.2746 141.531 62.1719 141.539 61.5639 144.894C60.9559 148.249 63.7004 152.531 63.7004 152.531C63.7004 152.531 59.1151 155.903 59.1151 158.027C59.1898 159.871 59.393 161.708 59.7231 163.524C59.7231 163.524 57.5866 170.849 57.8906 172.686C58.1946 174.524 60.9475 180.012 60.9475 180.012C60.9475 180.012 57.5697 180.315 56.6662 179.405C55.7626 178.494 53.6093 173.597 52.3848 174.819C51.1604 176.041 51.7768 180.627 52.3848 182.153C52.9928 183.678 55.7626 183.678 57.5866 185.811C59.4106 187.944 67.6777 188.256 69.2062 189.183C70.7346 190.11 87.5644 206.885 95.5191 214.522C103.474 222.159 126.409 244.758 127.937 247.506C129.466 250.254 133.755 253.609 133.755 253.609L134.093 220.01Z" fill="#FFFCF5" stroke="#0F0305" stroke-miterlimit="10"/>
<path d="M75.3622 151.334L83.3168 158.356" stroke="#0F0305" stroke-miterlimit="10"/>
<path d="M63.7341 152.557L68.6319 160.497" stroke="#0F0305" stroke-miterlimit="10"/>
<path d="M59.7568 163.549L63.7342 170.874" stroke="#0F0305" stroke-miterlimit="10"/>
<path d="M225.555 168.126L176.577 226.146C176.577 226.146 172.6 224.317 171.072 225.843C170.227 226.65 169.505 227.576 168.927 228.591L160.06 226.146C160.06 226.146 139.869 216.983 135.892 216.983C131.915 216.983 130.69 217.599 130.69 219.124C130.69 220.65 131.003 278.055 131.003 282.025C131.003 285.996 131.307 289.662 136.508 291.492C141.71 293.321 158.228 296.069 162.813 295.765C167.398 295.462 171.072 292.714 172.296 290.269C173.52 287.825 173.52 277.448 173.52 277.448C173.52 277.448 186.364 278.974 195.544 271.337C204.723 263.7 234.084 220.65 238.365 214.859C242.647 209.068 252.13 194.089 254.883 188.593" fill="#FFFCF5"/>
<path d="M225.555 168.126L176.577 226.146C176.577 226.146 172.6 224.317 171.072 225.843C170.227 226.65 169.505 227.576 168.927 228.591L160.06 226.146C160.06 226.146 139.869 216.983 135.892 216.983C131.915 216.983 130.69 217.599 130.69 219.124C130.69 220.65 131.003 278.055 131.003 282.025C131.003 285.996 131.307 289.662 136.508 291.492C141.71 293.321 158.228 296.069 162.813 295.765C167.398 295.462 171.072 292.714 172.296 290.269C173.52 287.825 173.52 277.448 173.52 277.448C173.52 277.448 186.364 278.974 195.544 271.337C204.723 263.7 234.084 220.65 238.365 214.859C242.647 209.068 252.13 194.089 254.883 188.593" stroke="#0F0305" stroke-miterlimit="10"/>
<path d="M163.657 227.124L160.094 226.146C160.094 226.146 139.903 216.983 135.926 216.983C131.948 216.983 130.724 217.599 130.724 219.124C130.724 220.65 131.036 278.055 131.036 282.025C131.036 285.996 131.34 289.662 136.542 291.492C141.744 293.321 158.261 296.069 162.847 295.765C167.432 295.462 171.105 292.714 172.33 290.269C173.554 287.825 173.554 277.448 173.554 277.448C173.554 277.448 170.176 239.583 164.071 227.672L163.657 227.124Z" fill="#FFFCF5" stroke="#0F0305" stroke-miterlimit="10"/>
<path d="M241.152 211.184C241.152 211.184 250.635 204.162 254.308 197.444" stroke="#0F0305" stroke-miterlimit="10"/>
<path d="M182.193 245.365C182.488 246.065 182.767 246.782 183.037 247.523" stroke="#0F0305" stroke-miterlimit="10"/>
<path d="M168.96 228.591C173.941 232.19 177.994 236.919 180.783 242.39" stroke="#0F0305" stroke-miterlimit="10"/>
<path d="M177.531 227.672C177.531 227.672 183.645 231.642 185.478 236.835" stroke="#0F0305" stroke-miterlimit="10"/>
<path d="M173.208 88.6444C172.912 88.6444 172.794 88.5854 172.769 88.5011C174.863 87.4559 176.476 86.2673 177.101 85.1293C179.026 81.6142 174.863 79.6923 171.342 80.6532C171.342 80.6532 161.842 82.592 157.037 84.514C152.232 86.4359 151.48 90.5579 157.881 91.5189C158.27 91.5779 158.667 91.62 159.089 91.6453H158.945H159.266C160.679 91.6919 162.092 91.6044 163.488 91.384C164.172 91.384 164.536 91.4683 164.13 91.6706C162.838 92.3197 160.026 94.0393 163.919 94.4776C167.812 94.9159 176.873 91.2407 177.734 90.1617C178.596 89.0827 174.508 88.6444 173.208 88.6444Z" fill="#FFFCF5"/>
<path opacity="0.6" d="M173.208 88.6444C172.912 88.6444 172.794 88.5854 172.769 88.5011C174.863 87.4559 176.476 86.2673 177.101 85.1293C179.026 81.6142 174.863 79.6923 171.342 80.6532C171.342 80.6532 161.842 82.592 157.037 84.514C152.232 86.4359 151.48 90.5579 157.881 91.5189C158.27 91.5779 158.667 91.62 159.089 91.6453H158.945H159.266C160.679 91.6919 162.092 91.6044 163.488 91.384C164.172 91.384 164.536 91.4683 164.13 91.6706C162.838 92.3197 160.026 94.0393 163.919 94.4776C167.812 94.9159 176.873 91.2407 177.734 90.1617C178.596 89.0827 174.508 88.6444 173.208 88.6444Z" fill="#FFFCF5"/>
<path d="M297.257 285.591L300.913 262.208" stroke="#0F0305" stroke-linecap="round" stroke-linejoin="round"/>
</g>
<defs>
<clipPath id="clip0_113_462">
<rect width="336" height="263" fill="white"/>
</clipPath>
</defs>
</svg>
